<svg xmlns="http://www.w3.org/2000/svg" width="256" height="256" fill="none" viewBox="0 0 256 256">
    <style>
        @media (prefers-color-scheme: dark) {
            path {
                fill: #FFF;
                stroke: #191228
            }
        }
    </style>
    <path fill="#191228" stroke="#FFF" stroke-width="2.743" d="M130.204 1.536c29.293 0 55.561 9.298 76.013 26.88 19.292 16.585 32.668 39.99 38.784 67.776l-43.428 9.07-20.599-36.407a36.054 36.054 0 0 0-31.232-18.377h-46.29A35.995 35.995 0 0 0 73.49 66.779l-1.27 2.076-23.132 40.896a37.39 37.39 0 0 0 0 36.727l23.131 40.896a36.056 36.056 0 0 0 31.233 18.377h46.29c12.846 0 24.804-7.04 31.232-18.377l22.354-39.516 42.286 8.412c-5.221 27.127-17.445 50.413-35.365 67.565-20.937 20.023-48.585 30.629-80.045 30.629-70.83 0-124.252-54.821-124.252-126.775C5.942 55.735 59.356 1.536 130.194 1.536h.01Z"/>
    <path fill="#191228" stroke="#FFF" stroke-width="2.743" d="M148.48 89.746a.86.86 0 0 1 .823.65l7.516 30.655.091.366.018.028c4.297 17.27-5.211 35.245-21.687 41.078-.731.229-1.462.448-2.194.631l-2.286.503a32.361 32.361 0 0 1-24.685-5.623 33.596 33.596 0 0 1-13.22-20.096l-.33-1.645c-2.679-17.71 8.622-34.762 25.719-38.858l.018-.009 30.007-7.662.082-.018h.137-.009Z"/>
</svg>
