<svg xmlns="http://www.w3.org/2000/svg" width="48" height="48" fill="none" viewBox="0 0 48 48">
    <path fill="#000" d="M26.558 23.605c.408-.193 1.017-.26 1.44-.157.314.077.661.262.89.477.246.231.394.462.522.816.08.22.092.305.092.644 0 .338-.012.426-.094.66-.13.374-.27.607-.51.848-.346.344-.764.517-1.32.543a2.507 2.507 0 0 1-.445-.017c-.633-.114-1.141-.486-1.41-1.032-.514-1.043-.129-2.326.835-2.782Z"/>
    <path fill="#000" fill-rule="evenodd" d="M24 0c13.255 0 24 10.745 24 24S37.255 48 24 48 0 37.255 0 24 10.745 0 24 0ZM11.91 18.29c-1.047-.335-2.095-.386-3.223-.155-2.37.485-4.184 2.38-4.649 4.86-.088.47-.088 1.593 0 2.034.257 1.287.821 2.37 1.693 3.248 1.257 1.266 3.086 1.9 4.96 1.717 2.53-.246 4.556-1.936 5.218-4.35.047-.17.086-.32.086-.335 0-.015-.66-.023-1.465-.018l-1.465.01-.077.2c-.377.975-1.124 1.694-2.062 1.987a3.2 3.2 0 0 1-2.213-.152c-1.76-.834-2.476-3.212-1.536-5.105.48-.968 1.315-1.601 2.324-1.764a3.863 3.863 0 0 1 1.323.07c.974.268 1.76 1.029 2.183 2.11l.036.093h2.926l-.02-.127c-.037-.224-.221-.748-.39-1.103a6.12 6.12 0 0 0-3.65-3.22Zm17.478-.33v3.755l-.22-.215c-.265-.26-.76-.516-1.204-.625-.368-.09-1.098-.125-1.498-.071-1.679.224-3.036 1.358-3.536 2.953-.228.725-.299 1.772-.172 2.544a5.84 5.84 0 0 0 .425 1.357 4.135 4.135 0 0 0 2.9 2.215c.42.083.438.083 1.084.072.481-.008.67-.025.892-.08.547-.14 1-.383 1.287-.694l.143-.156v.812h2.815V17.96h-2.916Zm5.34.017-.018 3.27-.933.019-.016 2.255h.95v1.725c0 2.247.033 2.568.342 3.211.12.252.194.352.452.608.258.259.359.331.63.464.588.288 1.104.39 1.992.396l.55.003v-2.23l-.35-.013c-.407-.015-.502-.058-.601-.277-.061-.133-.064-.25-.065-2.014v-1.872l1-.02v-2.236l-.5-.01-.5-.009-.017-3.27h-2.916Zm-13.512-.004c-1.051.039-1.637.173-2.156.493-.777.478-1.132 1.25-1.133 2.468v.313l-.933.019v2.238l.933.018v6.305h2.882V23.52h1.05v-2.272h-1.058l.014-.338c.014-.364.048-.445.245-.592.077-.057.154-.072.446-.082l.353-.011v-2.276l-.643.024Zm19.92 9.022-.018 2.831h2.951l-.017-2.83h-2.916Zm-.017-5.747v2.813l.805.01c.443.006 1.103.01 1.467.01l.66-.002.018-2.831h-2.95Z" clip-rule="evenodd"/>
</svg>
