<svg xmlns="http://www.w3.org/2000/svg" width="150" height="40" fill="none" viewBox="0 0 150 40">
    <path fill="#000" d="M15.486 15.493V.017h-1.53L7.74 7.788 1.531.017H.01v15.476h1.042V.682l5.706 7.595h1.968l5.705-7.61v14.826h1.054Zm13.918 0V14.45h-5.77V8.287h4.323V7.233h-4.325V1.07h5.772V.017H22.59v15.476h6.813ZM37.323.003H36.27v15.468h1.053V.003Zm11.324.021a4.848 4.848 0 0 0-4.727 4.845 4.837 4.837 0 0 0 3.935 4.764V8.57a3.804 3.804 0 0 1 .917-7.499h1.964V.017h-1.858l-.231.007Zm.018 15.469.234-.007a4.85 4.85 0 0 0 4.724-4.844 4.857 4.857 0 0 0-3.935-4.764v1.076a3.802 3.802 0 0 1 2.884 3.688 3.803 3.803 0 0 1-3.8 3.808h-3.41v1.043h3.303Zm18.115.002v-1.044h-5.77V8.288h4.325V7.233H61.01v-6.16h5.77V.018h-6.816v15.474h1.963l4.852.002Zm7.92 0V.685l5.706 7.594h1.379L75.174.02h-1.526v15.476H74.7Zm8.651 0V.02h-1.039v15.476h1.04Zm11.597-.021V1.054h4.338V0H89.58v1.053h4.328v14.421h1.04Zm20.496.019.004-15.476h-1.059v7.22h-7.607l.003-7.22h-1.045v15.476h1.045V8.287h7.604v7.206h1.055Zm13.794-5.325h-4.918l3.194-9.592 3.209 9.592h-1.485Zm4.21 5.367L128.296.061h-1.561l-5.156 15.474h.952l1.44-4.325h7.096l1.446 4.325h.935Zm8.172-.042h6.297V14.45h-7.22l.002-14.433h-1.055v15.476h1.976ZM31.132 39.78v-7.203h5.771v-1.053h-5.771V25.36h5.771v-1.055H30.09v15.474h1.042Zm14.711-6.813h-1.071v-7.606h3.806a3.802 3.802 0 0 1 3.796 3.808 3.797 3.797 0 0 1-3.796 3.798h-2.736Zm7.018 6.812-2.217-4.413-.078-.154-.635-1.268.92-.488a4.86 4.86 0 0 0 2.578-4.287 4.85 4.85 0 0 0-4.724-4.848l-.21-.006h-4.77V39.78h1.047v-5.757h4.219l2.88 5.757h.99Zm14.095-5.326h-4.918l3.197-9.59 3.21 9.59h-1.489Zm4.217 5.371-5.155-15.476h-1.56l-5.16 15.476h.955l1.44-4.323h7.092l1.445 4.323h.943Zm7.23-.044V24.972l5.705 7.595h1.38l-6.607-8.263H77.35v15.474h1.054Zm8.65 0V24.304h-1.04v15.474h1.04Zm14.351 0h1.812v-1.042h-1.964a6.69 6.69 0 0 1 0-13.378h1.964v-1.055h-1.923l-.176.003a7.748 7.748 0 0 0-7.61 7.744c0 4.21 3.4 7.657 7.61 7.725l.176.002h.111Zm10.653 0h4.856v-1.042h-5.773v-6.16h4.325v-1.054h-4.325V25.36h5.773v-1.055h-6.82v15.474h1.964Z"/>
</svg>
