<svg xmlns="http://www.w3.org/2000/svg" width="108" height="40" fill="currentColor" viewBox="0 0 108 40">
    <path d="M72.51 21.559a35.364 35.364 0 0 1-4.22-.742h-.001c-.056-.01-4.8-.978-9.173-3.396l-.353-.2c1.608-1.946 3.75-3.136 6.1-3.136 3.812 0 7.078 3.135 8.402 7.553-.248-.024-.499-.05-.755-.079M66.48 37.74a6.898 6.898 0 0 1-3.422-.044c-4.12-1.106-7.232-5.926-7.232-11.686 0-2.683.675-5.162 1.813-7.156.139.085.29.177.454.273a35.847 35.847 0 0 0 4.787 2.331 39.406 39.406 0 0 0 10.899 2.633c.077.625.118 1.265.118 1.92 0 5.847-3.205 10.72-7.418 11.729ZM11.967 13.664c4.412 0 8.47 4.612 8.47 10.378H2.74c-.203-4.111 3.297-10.378 9.23-10.378m94.783-1.238c-.251 0-.492.072-.699.21-1.311.877-6.692 4.424-14.23 6.798V6.687c0-2.323 1.881-4.208 4.22-4.257.03-.001.06-.005.091-.005 2.38 0 4.31 1.908 4.31 4.262 0 1.21.831 2.293 2.028 2.548.31.066.636.109.966.109h.017c2.326-.01 3.819-2.49 2.672-4.489C104.348 1.75 100.795.195 97.3.02c-3.153-.157-6.649.584-9.008 2.78a9.465 9.465 0 0 0-3.011 6.898v11.36a47.285 47.285 0 0 1-5.745.683v-.013l-.03.003a74.02 74.02 0 0 1-1.353.068 13.899 13.899 0 0 0-13.256-9.697 13.898 13.898 0 0 0-12.235 7.286 13.773 13.773 0 0 0-1.687 6.622c0 1.78.341 3.482.956 5.048-1.673 3.892-4.981 6.531-9.653 6.531-6.543 0-11.94-5.179-12.383-11.733-.026-.44-.042-.89-.042-1.353 0-6.919 5.022-10.68 8.268-10.68 4.743 0 6.595 5.115 7.007 7.201.157.802.854 1.414 1.681 1.424h.034c1.673 0 2.13-1.203 2.13-2.206 0-3.158-3.956-7.871-10.396-7.871-7.355 0-12.882 5.515-12.882 13.485-.002.092-.008.182-.008.274 0 1.026.125 2.024.354 2.986-1.67 5.012-6.095 8.596-11.298 8.596-6.368 0-11.577-5.475-11.983-12.266h-.07 18.105c1.572 0 2.282-.802 2.282-2.857 0-5.415-4.767-10.33-11.107-10.33C6.644 12.26 0 17.374 0 25.797h.007c-.003.11-.007.221-.007.332C0 33.79 6.091 40 13.604 40c5.983 0 11.058-3.938 12.881-9.408 1.994 5.408 7.5 9.297 13.982 9.297 5.774 0 10.028-3.087 12.024-7.584 2.302 4.494 6.982 7.58 12.374 7.58 4.351 0 8.24-2.01 10.788-5.148a13.783 13.783 0 0 0 3.025-10.5c.159-.006.32-.013.478-.021a45.737 45.737 0 0 0 6.123-.581v15.742h6.543V22.113c3.027-.915 6.21-2.166 9.534-3.834v21.098H108V13.661c0-.682-.559-1.235-1.249-1.235"/>
</svg>
