<svg xmlns="http://www.w3.org/2000/svg" width="64" height="44" fill="currentColor" viewBox="0 0 64 44">
    <path d="m25.203 6.904-24.68.058-.364.311C-.117 19.293.06 31.338.015 43.372c.063.327.5.56.819.532l23.178-.046c.483-.09.542-.445.58-.863.111-1.188.132-3.908-.003-5.073-.024-.2-.23-.813-.438-.813H6.91v-8.32h13.55c.091 0 .549-.363.531-.53-.169-1.789.235-4.003.008-5.74-.044-.34-.418-.616-.733-.616H6.909v-8.321h13.648c.541 0 1.236-.662 1.545-1.062 1.184-1.532 2.114-3.52 3.289-5.09.118-.165-.005-.466-.188-.528v.002ZM45.392 25.38 57.326 7.406c.05-.32-.202-.601-.53-.617-2.008.221-4.657-.29-6.587.027-.625.103-1.223.64-1.552 1.15-3.336 5.635-7.833 10.997-11.092 16.624-.18.312-.451.588-.33.975l14.019 17.857c.398.284.874.432 1.362.477 1.96.181 4.205-.115 6.194-.02.4-.115.603-.405.346-.778L45.392 25.38Zm-9.434 17.616-.013-35.477c-.054-.385-.213-.653-.628-.72l-5.997.014c-.216.133-.457.324-.462.597l.008 35.964c.094.331.398.49.723.53 1.046.132 4.59.131 5.628-.011.6-.082.69-.348.741-.896v-.001Z"/>
    <path d="M63.935 1.194C63.872.527 63.632.1 62.913 0h-9.307l-2.11 3.254h9.132v9.564l3.283-4.85c-.118-2.171.227-4.638.024-6.774Z"/>
</svg>
