<svg xmlns="http://www.w3.org/2000/svg" width="147" height="40" fill="none" viewBox="0 0 147 40">
    <path fill="#000" fill-rule="evenodd" d="M0 7.222a7.222 7.222 0 1 1 14.444 0v9.445H10V7.222a2.778 2.778 0 1 0-5.556 0v25.556a2.778 2.778 0 1 0 5.556 0v-3.89a7.778 7.778 0 0 1 7.778-7.777h7.778v11.667a2.778 2.778 0 1 0 5.555 0V7.222a2.778 2.778 0 1 0-5.555 0v9.445H21.11V7.222a7.222 7.222 0 0 1 14.445 0v25.556a7.222 7.222 0 0 1-14.445 0v-7.222h-3.333a3.333 3.333 0 0 0-3.334 3.333v3.889a7.222 7.222 0 0 1-14.444 0V7.222Z" clip-rule="evenodd"/>
    <path fill="#000" d="M71.668 8.28v22.103h-4.433v-9.405h-9.468v9.405h-4.434V8.279h4.434v9.088h9.468V8.28h4.433Zm3.224 13.267c0-1.773.349-3.346 1.045-4.718.718-1.373 1.679-2.428 2.882-3.167 1.224-.739 2.586-1.108 4.085-1.108 1.309 0 2.449.264 3.42.791.992.528 1.784 1.193 2.375 1.995v-2.5h4.465v17.543H88.7v-2.565c-.57.824-1.362 1.51-2.375 2.058-.992.528-2.143.792-3.452.792-1.478 0-2.829-.38-4.053-1.14-1.203-.76-2.164-1.826-2.882-3.198-.697-1.393-1.045-2.988-1.045-4.782Zm13.807.063c0-1.076-.211-1.995-.633-2.755-.423-.78-.993-1.372-1.71-1.773a4.483 4.483 0 0 0-2.312-.633c-.823 0-1.584.2-2.28.601-.697.401-1.267.993-1.71 1.774-.422.76-.633 1.668-.633 2.723 0 1.056.21 1.985.633 2.787.443.78 1.013 1.383 1.71 1.805a4.426 4.426 0 0 0 2.28.633c.823 0 1.594-.2 2.312-.602a4.606 4.606 0 0 0 1.71-1.773c.422-.781.633-1.71.633-2.787Zm11.043-10.861c-.781 0-1.435-.243-1.963-.728-.507-.507-.76-1.13-.76-1.869 0-.739.253-1.35.76-1.836.528-.507 1.182-.76 1.963-.76.781 0 1.425.253 1.932.76.528.485.791 1.097.791 1.836 0 .74-.263 1.362-.791 1.869-.507.485-1.151.728-1.932.728Zm2.185 2.09v17.544h-4.433V12.839h4.433Zm11.252-.285c1.309 0 2.46.264 3.452.791.992.507 1.773 1.172 2.343 1.995v-2.5h4.465v17.67c0 1.625-.327 3.072-.981 4.338-.655 1.288-1.636 2.301-2.945 3.04-1.309.76-2.892 1.14-4.75 1.14-2.492 0-4.539-.58-6.144-1.742-1.583-1.16-2.48-2.744-2.691-4.75h4.401c.233.803.729 1.436 1.489 1.9.781.486 1.72.729 2.818.729 1.288 0 2.333-.39 3.135-1.172.802-.76 1.203-1.92 1.203-3.483v-2.724c-.57.824-1.361 1.51-2.375 2.059-.992.549-2.132.823-3.42.823-1.478 0-2.829-.38-4.053-1.14-1.224-.76-2.196-1.826-2.913-3.198-.697-1.393-1.045-2.988-1.045-4.782 0-1.773.348-3.346 1.045-4.718.717-1.373 1.678-2.428 2.881-3.167 1.225-.739 2.586-1.108 4.085-1.108Zm5.795 9.056c0-1.076-.211-1.995-.633-2.755-.422-.78-.992-1.372-1.71-1.773a4.483 4.483 0 0 0-2.312-.633c-.823 0-1.583.2-2.28.601-.696.401-1.266.993-1.71 1.774-.422.76-.633 1.668-.633 2.723 0 1.056.211 1.985.633 2.787.444.78 1.014 1.383 1.71 1.805a4.428 4.428 0 0 0 2.28.633c.824 0 1.594-.2 2.312-.602a4.603 4.603 0 0 0 1.71-1.773c.422-.781.633-1.71.633-2.787Zm16.585 9.057c-1.688 0-3.208-.37-4.56-1.108a8.314 8.314 0 0 1-3.198-3.199c-.76-1.372-1.14-2.955-1.14-4.75 0-1.794.391-3.377 1.172-4.75a8.249 8.249 0 0 1 3.261-3.166c1.373-.76 2.903-1.14 4.592-1.14 1.689 0 3.22.38 4.592 1.14a8.038 8.038 0 0 1 3.23 3.166c.802 1.373 1.203 2.956 1.203 4.75 0 1.795-.412 3.378-1.235 4.75a8.415 8.415 0 0 1-3.293 3.199c-1.372.739-2.914 1.108-4.624 1.108Zm0-3.863c.803 0 1.552-.19 2.249-.57.718-.401 1.288-.993 1.71-1.774.422-.78.633-1.73.633-2.85 0-1.667-.443-2.945-1.33-3.831-.865-.908-1.932-1.362-3.198-1.362-1.267 0-2.333.454-3.199 1.362-.844.886-1.266 2.164-1.266 3.831 0 1.668.411 2.956 1.235 3.864.844.886 1.9 1.33 3.166 1.33Z"/>
</svg>
