<svg xmlns="http://www.w3.org/2000/svg" fill="currentColor" viewBox="0 0 532 70">
    <path d="m37.198 26.756-10.559-.886c-4.788-.376-7.216-1.68-7.216-3.875 0-3.904 6.65-4.486 10.617-4.486 11.04 0 16.321 6.753 16.37 6.818l.93 1.246 12.876-10.147-.78-1.177C59.068 13.696 50.223.747 30.04.747 13.874.747 2.584 9.628 2.584 22.35c0 11.798 8.68 19.312 23.812 20.623l10.551.883c5.88.494 8.28 1.668 8.28 4.052 0 4.13-8.653 4.577-12.375 4.577-11.755 0-19.04-7.661-19.111-7.736l-.992-1.073L.33 54.355l.757 1.128c.377.562 9.489 13.76 31.678 13.76 17.96 0 29.562-8.652 29.562-22.043 0-12-8.69-19.07-25.128-20.447v.003ZM225.862 2.52h-16.676l6.898 36.983c.757 4.064.149 7.436-1.759 9.75-1.745 2.116-4.518 3.238-8.016 3.238-7.509 0-13.321-5.16-14.813-13.148L184.627 2.52h-16.676l1.45 7.772c-3.862-4.607-10.094-7.772-18.972-7.772H66.564l-4.83 16.761h20.574l-13.894 48.2h16.7l13.893-48.2h16.412v48.2h16.66V46.078h15.669l10.899 21.401h18.867l-13.415-24.79c4.512-2.654 7.671-6.719 9.18-11.627l1.657 8.881c3.167 16.981 17.613 29.305 34.341 29.305 7.984 0 14.755-2.874 19.059-8.093 4.453-5.398 6.046-12.988 4.479-21.372l-6.95-37.264h-.003Zm-74.73 26.797h-19.056V19.278h19.056c4.18 0 6.485 1.815 6.485 5.108 0 4.074-3.527 4.93-6.485 4.93ZM351.68 19.278l-2.935-16.762h-57.911l1.42 8.103C285.008 2.902 274.873-.587 263.417.957c-9.228 1.242-17.258 5.84-22.605 12.939-5.348 7.099-7.607 16.163-6.358 25.518 2.382 17.894 15.973 29.734 33.205 29.734 1.71 0 3.459-.118 5.234-.356 14.459-1.95 24.813-11.141 28.398-25.221l.364-1.433-16.081-4.682-.41 1.488c-2.051 7.452-7.457 12.295-14.829 13.285-5.019.677-9.509-.399-12.997-3.103-3.488-2.707-5.692-6.834-6.371-11.932-.647-4.862.475-9.512 3.163-13.09 2.685-3.573 6.8-5.898 11.585-6.543 6.97-.938 13.211 2.149 17.119 8.476l.783 1.269 13.491-8.021h17.238l8.387 47.842.062.36h16.676l-8.449-48.2h20.662l-.004-.009Zm117.968 4.932c0-10.798-7.375-21.69-23.847-21.69h-46.836l-6.456 36.826c-1.398 7.985-7.155 13.142-14.66 13.142-3.505 0-6.291-1.122-8.062-3.247-1.931-2.316-2.578-5.687-1.866-9.748l6.482-36.977H357.73l-6.531 37.271c-1.466 8.371.205 15.954 4.704 21.35 4.363 5.228 11.166 8.11 19.163 8.11 16.735 0 31.041-12.328 34.015-29.31l1.707-9.73V67.48h16.66v-21.4h15.668l10.903 21.401h18.867l-13.419-24.79c6.479-3.809 10.181-10.518 10.181-18.48Zm-23.145 5.107h-19.055V19.278h19.055c4.181 0 6.482 1.815 6.482 5.108 0 4.074-3.523 4.93-6.482 4.93Zm48.602 21.402v-7.384h35.686V26.662h-35.686v-7.384h36.128V2.52h-52.788v64.96h53.227V50.72h-36.567Z" />
</svg>
