<svg xmlns="http://www.w3.org/2000/svg" width="185" height="43" fill="currentColor" viewBox="0 0 185 43">
    <path fill-rule="evenodd" d="M37.49 9.594c3.564 2.07 7.508 15.239-2.49 17.63 0 0 10.284-3.56 3.496-15.023 0 0-1.823-4.595-8.393-3.91-5.822.618-12.365-2.177-17.616-1.182-1.36.241-9.494 4.676-9.005 15.13.504 10.454 7.21 9.648 10.148 11.274 2.911 1.613 4.87-.564 7.482-1.075 3.51-.685 4.325.282 12.066-2.11 6.189-1.908 5.78-3.95 5.78-3.95 1.157 2.365-6.325 5.926-14.269 6.248-7.93.323-4.897 4.032-12.95 1.344-8.04-2.687-9.685-9.54-8.746-14.781.938-5.214 4.053-11.046 7.794-12.55 5.224-2.084 4.448 1.155 16.541.63 7.904-.335 8.788 1.52 10.162 2.325Z" clip-rule="evenodd"/>
    <path fill-rule="evenodd" d="M40.442 27.6c-3.564 6.961-17.848 5.913-17.848 5.913 2.123.484 13.345 1.25 17.684-3.722 1.769-2.016 1.81-4.005 1.252-5.63-1.524-4.65-4.897-5.846-8.04-9.34-3.183-3.534-2.475-6.57-3.278-8.747-3.618-9.42-15.194-4.851-15.194-4.851S9.59 3.574 5.142 10.427c-8.203 12.645-7.713 26.217 9.753 23.785 0 0-12.324 1.155-13.33-6.41-.49-3.735-1.307-8.922 3.754-17.16 0 0 6.04-9.339 12.691-9.957 4.666-.443 11.522.457 11.522 7.136.49 5.71 4.87 8.895 4.87 8.895 2.544 1.787 8.298 5.254 6.04 10.898V27.6Z" clip-rule="evenodd"/>
    <path fill-rule="evenodd" d="M17.384 34.01c-.204-3.077-1.224-4.85-3.278-5.55-2.312-.82-3.89-2.19-3.918-3.4-.04-1.222 4.707-4.245 16.555-4.447 11.862-.215 12.692 5.066 12.692 5.066-.163-.484-1.7-3.117-7.59-4.085-8.394-1.451-16.65.914-19.058 2.11-2.408 1.182-1.197 2.512-.164 3.52 1.034 1.008 4.054.404 4.925 3.118a6.98 6.98 0 0 1 .34 1.881c0-.04.013-.094.013-.148.381-2.11 1.483-4.904 2.53-5.455 1.048-.538 1.646-.82 3.197-1.183 1.537-.376 1.102-.578 1.592-.873 0 0-.504 1.29-2.87 1.558-2.367.27-3.034 3.078-3.524 4.421-.503 1.344-2.095 8.95-3.196 10.455-1.102 1.505-.436.322-.721.712-.272.376-.544 1.236-.504.269.055-.968 1.211-1.451 1.429-3.185.217-1.223.993-3.064 1.55-4.784Zm8.706-14.862s-1.7-.765-.163-3.117c1.537-2.338 1.905-6.1-2.802-5.657-4.706.443-8.801 3.641-12.025 8.842 0 0 6.978-9.622 13.467-8.21 2.353.685.775 3.91.503 4.931-.313 1.008-.693 3.198 1.007 3.198l.013.013Z" clip-rule="evenodd"/>
    <path fill-rule="evenodd" d="M23.955 17.657s-.898 2.795 3.89 2.338c0 0 9.631-1.102 8.747 3.763-.87 4.85-7.4 4.085-8.679 3.964-1.278-.121-4.625.376-5.454 1.572 0 0 2.856-1.787 5.563-1.129 2.734.659 7.876.188 9.046-3.36 1.156-3.56-1.578-5.065-5.781-5.294-4.176-.241-6.938 1.344-7.319-1.854h-.013Z" clip-rule="evenodd"/>
    <path fill-rule="evenodd" d="M32.43 27.077s-10.665 5.066-18.174 3.802c-7.523-1.25-5.074-8.774-2.857-10.884 0 0-4.625 3.763-2.353 8.25 1.483 2.796 4.217 4.126 11.318 3.118 7.1-.994 12.065-4.286 12.065-4.286Z" clip-rule="evenodd"/>
    <path fill-rule="evenodd" d="M26.567 28.514s-5.17.578-5.673 6.356c-.49 5.765-.938 6.088-.938 6.088s-.776 1.343 1.047 1.29c1.823-.054 5.863.174 9.563-.524 3.686-.686 10.365-.82 12.16.524 0 0-6.379-1.505-11.412-.108-5.006 1.398-10.488.632-10.882.632-.395 0-1.878-.43-1.211-2.164.666-1.72 1.102-4.313 1.102-6.248.013-1.935 1.66-5.859 6.244-5.859v.013Z" clip-rule="evenodd"/>
    <path d="M57.894 4.26c0-2.742 2.272-4.26 5.237-4.26 2.762 0 4.544.954 5.428 1.774l-1.374 2.553c-.843-.659-2.353-1.344-3.863-1.344-1.102 0-1.769.578-1.769 1.21 0 2.338 7.727 1.061 7.727 5.993 0 2.754-2.272 4.474-5.782 4.474-2.638 0-5.291-1.397-5.971-2.392l1.768-2.338c.844.9 3.02 1.734 4.448 1.734 1.048 0 1.878-.444 1.878-1.304 0-2.23-7.727-.994-7.727-6.087V4.26Zm22.119 10.078c-2.095 5.012-3.442 6.208-5.537 6.208-1.306 0-2.258-.497-3.074-1.075l1.17-2.701c.38.215.925.497 1.496.497.925 0 1.592-.712 2.19-2.177l.327-.739L70 .35h4.38l3.333 7.646c.285.686.476 1.344.707 2.016.122-.659.258-1.344.503-2.056L81.495.349h4.163L80.04 14.324l-.028.014Zm19.316-2.096c-1.211 1.599-3.36 2.418-5.673 2.418-4.625 0-7.753-2.916-7.753-7.323 0-4.058 3.06-7.324 7.4-7.324 2.353 0 4.407.578 5.754 1.895l-1.714 2.835c-1.089-1.02-2.258-1.357-3.564-1.357-2.027 0-3.972 1.519-3.972 3.978 0 2.459 1.972 4.018 4.121 4.018 1.551 0 2.762-.713 3.687-1.72l1.74 2.58h-.026ZM108.388 0c4.734 0 7.781 3.13 7.781 7.323 0 4.193-3.06 7.324-7.781 7.324-4.72 0-7.781-3.131-7.781-7.324C100.594 3.144 103.641 0 108.388 0Zm0 11.341c2.258 0 3.904-1.599 3.904-4.018 0-2.418-1.686-3.977-3.904-3.977-2.217 0-3.863 1.559-3.863 3.977-.013 2.352 1.646 4.018 3.863 4.018Zm32.198 2.997h-3.645v-8.21c0-1.734-.721-2.675-2.435-2.675-1.374 0-2.435.659-2.952 1.613 0 .215.041.712.041 1.021v8.224h-3.646V5.859c0-1.465-.83-2.42-2.38-2.42-1.306 0-2.354.565-2.979 1.492v9.38h-3.646V.322h3.646v1.56C123.596.765 125.283.08 127.079.08c2.19 0 3.645.954 4.162 2.23 1.007-1.303 2.598-2.23 4.829-2.23 2.598 0 4.571 1.276 4.571 5.092v9.165h-.055ZM150.721 0c4.733 0 7.78 3.13 7.78 7.323 0 4.193-3.06 7.324-7.78 7.324-4.721 0-7.781-3.131-7.781-7.324C142.94 3.131 146 0 150.721 0Zm0 11.341c2.258 0 3.904-1.599 3.904-4.018 0-2.418-1.687-3.977-3.904-3.977-2.218 0-3.864 1.559-3.864 3.977 0 2.42 1.66 4.018 3.864 4.018ZM160.773.35h3.646v1.356c.666-.9 1.55-1.612 3.278-1.612 1.17 0 1.755.188 2.217.537l-1.306 3.36c-.707-.403-1.088-.538-1.85-.538-1.265 0-1.931.686-2.353 1.492v9.38h-3.645V.348h.013Zm23.057 12.59c-1.428 1.183-3.455 1.734-5.455 1.734-4.611 0-7.685-2.916-7.685-7.324-.014-4.071 2.843-7.337 7.549-7.337 3.687 0 6.761 2.58 6.761 6.49 0 .874-.068 1.398-.218 1.936h-10.324c.326 2.11 2.027 3.252 4.285 3.252 1.754 0 3.196-.619 4.026-1.277l1.048 2.513.013.013Zm-9.495-6.907h7.019c.041-1.72-1.169-3.05-3.278-3.05-2.108 0-3.36 1.223-3.741 3.05ZM58.398 29.818c1.224-.712 3.183-1.344 5.046-1.344 4.23 0 5.713 2.11 5.713 5.805v8.506h-3.183v-1.599c-.761 1.062-2.271 1.8-4.23 1.8-2.598 0-4.49-1.598-4.49-4.286 0-3.077 2.313-4.528 5.21-4.528 1.266 0 2.545.403 3.238.9.096-2.338-.544-3.615-2.68-3.615-1.645 0-2.693.497-3.74.954l-.884-2.62v.027Zm7.331 8.882v-1.438c-.639-.457-1.469-.685-2.516-.685-1.21 0-2.272.564-2.272 1.733 0 1.062.884 1.64 2.027 1.64 1.537.013 2.313-.632 2.761-1.25Zm28.403 4.112h-3.645v-8.21c0-1.734-.721-2.674-2.435-2.674-1.374 0-2.435.658-2.952 1.612 0 .215.041.712.041 1.021v8.224h-3.646v-8.452c0-1.465-.83-2.419-2.38-2.419-1.306 0-2.353.564-2.98 1.492v9.379H72.49V28.81h3.646v1.559c1.006-1.116 2.693-1.8 4.489-1.8 2.19 0 3.645.953 4.162 2.23 1.007-1.304 2.598-2.23 4.83-2.23 2.597 0 4.57 1.276 4.57 5.092v9.164h-.014l-.04-.013Z"/>
</svg>
