<svg width="322" height="322" viewBox="0 0 322 322" fill="none" xmlns="http://www.w3.org/2000/svg">
    <g clip-path="url(#clip0_4002_1158)">
        <g filter="url(#filter0_d_4002_1158)">
            <path d="M162.073 196.028C181.366 196.028 197.006 180.388 197.006 161.094C197.006 141.801 181.366 126.161 162.073 126.161C142.78 126.161 127.14 141.801 127.14 161.094C127.14 180.388 142.78 196.028 162.073 196.028Z" fill="#FA442E"/>
            <path d="M162.073 196.028C181.366 196.028 197.006 180.388 197.006 161.094C197.006 141.801 181.366 126.161 162.073 126.161C142.78 126.161 127.14 141.801 127.14 161.094C127.14 180.388 142.78 196.028 162.073 196.028Z" stroke="url(#paint0_linear_4002_1158)" stroke-miterlimit="10"/>
        </g>
        <g filter="url(#filter1_d_4002_1158)">
            <path d="M121.183 114.304C130.561 114.304 138.164 106.7 138.164 97.3213C138.164 87.9422 130.561 80.339 121.183 80.339C111.804 80.339 104.201 87.9422 104.201 97.3213C104.201 106.7 111.804 114.304 121.183 114.304Z" fill="#FEFEFE"/>
            <path d="M121.183 114.304C130.561 114.304 138.164 106.7 138.164 97.3213C138.164 87.9422 130.561 80.339 121.183 80.339C111.804 80.339 104.201 87.9422 104.201 97.3213C104.201 106.7 111.804 114.304 121.183 114.304Z" stroke="url(#paint1_linear_4002_1158)" stroke-miterlimit="10"/>
        </g>
        <g filter="url(#filter2_d_4002_1158)">
            <path d="M272.667 214.545C282.046 214.545 289.649 206.942 289.649 197.563C289.649 188.184 282.046 180.581 272.667 180.581C263.288 180.581 255.685 188.184 255.685 197.563C255.685 206.942 263.288 214.545 272.667 214.545Z" fill="#FEFEFE"/>
            <path d="M272.667 214.545C282.046 214.545 289.649 206.942 289.649 197.563C289.649 188.184 282.046 180.581 272.667 180.581C263.288 180.581 255.685 188.184 255.685 197.563C255.685 206.942 263.288 214.545 272.667 214.545Z" stroke="url(#paint2_linear_4002_1158)" stroke-miterlimit="10"/>
        </g>
        <g filter="url(#filter3_d_4002_1158)">
            <path d="M77.4367 313.577C86.8155 313.577 94.4186 305.974 94.4186 296.595C94.4186 287.216 86.8155 279.613 77.4367 279.613C68.0578 279.613 60.4547 287.216 60.4547 296.595C60.4547 305.974 68.0578 313.577 77.4367 313.577Z" fill="#FEFEFE"/>
            <path d="M77.4367 313.577C86.8155 313.577 94.4186 305.974 94.4186 296.595C94.4186 287.216 86.8155 279.613 77.4367 279.613C68.0578 279.613 60.4547 287.216 60.4547 296.595C60.4547 305.974 68.0578 313.577 77.4367 313.577Z" stroke="url(#paint3_linear_4002_1158)" stroke-miterlimit="10"/>
        </g>
        <path d="M151.634 140.268C151.569 140.294 149.722 141.348 147.537 142.603C144.883 144.125 143.524 144.932 143.452 145.003C143.394 145.068 143.329 145.179 143.309 145.25C143.257 145.432 143.251 172.49 143.309 172.685C143.329 172.763 143.394 172.873 143.452 172.932C143.595 173.081 159.426 182.187 159.621 182.226C159.712 182.246 159.81 182.246 159.907 182.213C160.122 182.161 175.914 173.075 176.05 172.925C176.109 172.86 176.174 172.75 176.193 172.678C176.219 172.587 176.232 171.176 176.232 168.197V163.846L180.083 161.634C183.712 159.546 183.933 159.416 184.024 159.273L184.122 159.117V154.428C184.122 149.322 184.135 149.608 183.927 149.426C183.875 149.38 182.021 148.301 179.816 147.026L175.803 144.717H175.354L171.426 146.974C169.267 148.216 167.426 149.283 167.335 149.335C167.244 149.393 167.14 149.504 167.094 149.582L167.016 149.719L166.997 154.135L166.977 158.551L163.732 160.418C161.95 161.446 160.46 162.291 160.434 162.298C160.376 162.317 160.376 161.894 160.376 153.777V145.231L160.291 145.081C160.187 144.906 160.662 145.185 155.842 142.421C151.803 140.099 151.901 140.145 151.628 140.249L151.634 140.268ZM155.348 143.65C157.039 144.619 158.424 145.426 158.424 145.432C158.424 145.439 156.941 146.297 155.133 147.338L151.836 149.231L148.545 147.338C146.737 146.297 145.254 145.439 145.254 145.432C145.254 145.426 146.73 144.567 148.538 143.527L151.823 141.64L152.05 141.764C152.181 141.836 153.663 142.681 155.348 143.65ZM178.873 148.001C180.655 149.029 182.125 149.875 182.138 149.888C182.177 149.92 175.647 153.673 175.556 153.673C175.465 153.673 169.019 149.953 169.019 149.907C169.019 149.855 175.51 146.122 175.575 146.135C175.608 146.141 177.091 146.987 178.866 148.008L178.873 148.001ZM148.031 148.541L151.166 150.349L151.185 159.293L151.205 168.236L151.283 168.359C151.322 168.424 151.4 168.509 151.452 168.548C151.504 168.587 153.247 169.582 155.328 170.753L159.107 172.886V176.672C159.107 178.747 159.094 180.451 159.075 180.451C159.062 180.451 155.79 178.577 151.81 176.288L144.577 172.125L144.564 159.332V146.545L144.72 146.636C144.811 146.688 146.301 147.54 148.024 148.528L148.031 148.541ZM159.114 154.844V163.085L158.984 163.169C158.815 163.28 152.525 166.889 152.506 166.889C152.493 166.889 152.486 163.169 152.486 158.623V150.356L155.771 148.47C157.579 147.429 159.062 146.59 159.081 146.597C159.094 146.603 159.107 150.317 159.107 154.85L159.114 154.844ZM171.634 152.945L174.925 154.837V158.59C174.925 162.148 174.925 162.337 174.866 162.317C174.834 162.304 173.345 161.452 171.556 160.424L168.304 158.558V154.811C168.304 152.75 168.317 151.058 168.323 151.058C168.336 151.058 169.826 151.91 171.634 152.951V152.945ZM182.847 154.779C182.847 156.834 182.834 158.525 182.821 158.538C182.795 158.577 176.291 162.324 176.245 162.324C176.232 162.324 176.226 160.639 176.226 158.571V154.824L179.51 152.938C181.318 151.897 182.808 151.052 182.821 151.052C182.84 151.052 182.847 152.73 182.847 154.779ZM170.99 161.602C173.754 163.195 174.236 163.481 174.19 163.52C174.158 163.54 173.11 164.145 171.862 164.86C170.613 165.576 167.38 167.416 164.668 168.958L159.751 171.761L159.595 171.677C158.659 171.163 153.202 168.06 153.202 168.034C153.202 167.982 167.628 159.689 167.686 159.715C167.712 159.728 169.202 160.574 170.997 161.602H170.99ZM174.919 168.379L174.906 172.132L167.673 176.294C163.693 178.584 160.428 180.457 160.408 180.457C160.389 180.457 160.376 178.929 160.376 176.678V172.893L167.621 168.763C171.601 166.493 174.873 164.633 174.892 164.626C174.906 164.626 174.912 166.317 174.912 168.379H174.919Z" fill="white"/>
        <path d="M153.735 81.4837C155.172 81.3537 156.623 81.2626 158.08 81.2171C159.023 81.1846 159.966 81.165 160.915 81.165C205.006 81.165 240.745 116.905 240.745 160.997C240.745 205.088 205.006 240.828 160.915 240.828C116.825 240.828 81.0853 205.088 81.0853 160.997C81.0853 147.481 84.4479 134.746 90.373 123.585C91.1405 122.141 91.9535 120.723 92.8055 119.331" stroke="url(#paint4_linear_4002_1158)" stroke-width="2" stroke-miterlimit="10"/>
        <path d="M154.359 85.3602C152.213 85.6008 150.275 84.0463 150.041 81.9C149.807 79.7536 151.355 77.8154 153.501 77.5812C155.647 77.3406 157.585 78.895 157.82 81.0414C158.054 83.1878 156.506 85.126 154.359 85.3602Z" fill="url(#paint5_linear_4002_1158)"/>
        <path d="M96.0055 121.621C97.1697 119.8 96.6429 117.38 94.8218 116.216C93.0007 115.052 90.5812 115.578 89.417 117.4C88.2528 119.221 88.7796 121.64 90.6007 122.804C92.4218 123.969 94.8413 123.442 96.0055 121.621Z" fill="url(#paint6_linear_4002_1158)"/>
        <path d="M257.916 230.949L250.046 240.367C247.393 243.339 244.57 246.207 241.572 248.952C240.537 249.902 239.477 250.838 238.398 251.762C188.278 294.559 112.955 288.621 70.1586 238.493C27.3623 188.366 33.3005 113.048 83.4268 70.2511C133.547 27.454 208.869 33.3922 251.666 83.5196C264.784 98.8888 273.324 116.626 277.415 135.065C278.345 139.266 279.048 143.507 279.522 147.761C279.522 147.761 280.335 156.067 280.609 161.66" stroke="url(#paint7_linear_4002_1158)" stroke-width="2" stroke-miterlimit="10"/>
        <path d="M254.788 228.588C256.173 226.929 258.638 226.708 260.297 228.093C261.955 229.479 262.176 231.944 260.791 233.602C259.406 235.261 256.941 235.482 255.282 234.097C253.624 232.711 253.402 230.246 254.788 228.588Z" fill="url(#paint8_linear_4002_1158)"/>
        <path d="M276.674 161.569C276.732 163.728 278.527 165.433 280.693 165.374C282.859 165.315 284.557 163.52 284.498 161.354C284.439 159.195 282.644 157.491 280.479 157.55C278.313 157.608 276.615 159.403 276.674 161.569Z" fill="url(#paint9_linear_4002_1158)"/>
        <path d="M49.3848 276.835C42.2239 270.344 37.528 263.944 31.5834 255.645L27.6225 250.11C24.6501 245.655 21.8794 241.017 19.3233 236.191C18.1786 234.032 17.073 231.833 16.0193 229.602C-21.873 149.602 12.7478 53.425 92.8836 15.8376C172.089 -21.3075 266.696 11.9612 305.077 90.8888C343.587 170.083 311.45 264.926 232.7 304.341C207.803 316.803 181.247 322.182 155.302 321.246C149.52 321.037 143.777 320.517 138.08 319.691C138.08 319.691 132.363 318.787 126.412 317.714C120.103 316.569 113.918 314.82 107.953 312.478" stroke="url(#paint10_linear_4002_1158)" stroke-width="2" stroke-miterlimit="10"/>
        <path d="M51.8173 273.752C53.4433 275.177 53.6059 277.648 52.188 279.274C50.7637 280.9 48.2921 281.063 46.6661 279.645C45.0401 278.221 44.8775 275.749 46.2954 274.123C47.7133 272.497 50.1913 272.335 51.8173 273.752Z" fill="url(#paint11_linear_4002_1158)"/>
        <path d="M109.612 308.888C107.609 308.081 105.326 309.05 104.519 311.054C103.713 313.057 104.682 315.34 106.685 316.146C108.688 316.953 110.971 315.984 111.778 313.98C112.584 311.977 111.615 309.694 109.612 308.888Z" fill="url(#paint12_linear_4002_1158)"/>
        <g filter="url(#filter4_d_4002_1158)">
            <path d="M46.3995 201.043C55.7784 201.043 63.3815 193.439 63.3815 184.06C63.3815 174.681 55.7784 167.078 46.3995 167.078C37.0207 167.078 29.4176 174.681 29.4176 184.06C29.4176 193.439 37.0207 201.043 46.3995 201.043Z" fill="#FEFEFE"/>
            <path d="M46.3995 201.043C55.7784 201.043 63.3815 193.439 63.3815 184.06C63.3815 174.681 55.7784 167.078 46.3995 167.078C37.0207 167.078 29.4176 174.681 29.4176 184.06C29.4176 193.439 37.0207 201.043 46.3995 201.043Z" stroke="url(#paint13_linear_4002_1158)" stroke-miterlimit="10"/>
        </g>
        <g filter="url(#filter5_d_4002_1158)">
            <path d="M260.284 52.9306C269.662 52.9306 277.266 45.3274 277.266 35.9484C277.266 26.5693 269.662 18.9661 260.284 18.9661C250.905 18.9661 243.302 26.5693 243.302 35.9484C243.302 45.3274 250.905 52.9306 260.284 52.9306Z" fill="#FEFEFE"/>
            <path d="M260.284 52.9306C269.662 52.9306 277.266 45.3274 277.266 35.9484C277.266 26.5693 269.662 18.9661 260.284 18.9661C250.905 18.9661 243.302 26.5693 243.302 35.9484C243.302 45.3274 250.905 52.9306 260.284 52.9306Z" stroke="url(#paint14_linear_4002_1158)" stroke-miterlimit="10"/>
        </g>
        <g filter="url(#filter6_d_4002_1158)">
            <path d="M44.8776 68.1502C54.2564 68.1502 61.8595 60.547 61.8595 51.168C61.8595 41.7889 54.2564 34.1857 44.8776 34.1857C35.4987 34.1857 27.8956 41.7889 27.8956 51.168C27.8956 60.547 35.4987 68.1502 44.8776 68.1502Z" fill="#FEFEFE"/>
            <path d="M44.8776 68.1502C54.2564 68.1502 61.8595 60.547 61.8595 51.168C61.8595 41.7889 54.2564 34.1857 44.8776 34.1857C35.4987 34.1857 27.8956 41.7889 27.8956 51.168C27.8956 60.547 35.4987 68.1502 44.8776 68.1502Z" stroke="url(#paint15_linear_4002_1158)" stroke-miterlimit="10"/>
        </g>
    </g>
    <path d="M48.0833 186.5L50.5833 184L48.0833 181.5M43.9167 181.5L41.4167 184L43.9167 186.5M42.5 191.5H49.5C50.9 191.5 51.6 191.5 52.135 191.227C52.6054 190.988 52.9878 190.605 53.2275 190.135C53.5 189.6 53.5 188.9 53.5 187.5V180.5C53.5 179.1 53.5 178.4 53.2275 177.865C52.9878 177.395 52.6054 177.012 52.135 176.772C51.6 176.5 50.9 176.5 49.5 176.5H42.5C41.1 176.5 40.4 176.5 39.865 176.772C39.3946 177.012 39.0122 177.395 38.7725 177.865C38.5 178.4 38.5 179.1 38.5 180.5V187.5C38.5 188.9 38.5 189.6 38.7725 190.135C39.0122 190.605 39.3946 190.988 39.865 191.227C40.4 191.5 41.1 191.5 42.5 191.5Z" stroke="#6A6A6A" stroke-width="1.6" stroke-linecap="round" stroke-linejoin="round"/>
    <path d="M258.643 38.3574L263.357 33.6433M256.876 35.4109L255.697 36.5894C254.395 37.8911 254.395 40.0019 255.697 41.3036C256.999 42.6053 259.11 42.605 260.411 41.3032L261.589 40.1248M260.411 31.875L261.589 30.6965C262.891 29.3948 265.001 29.395 266.303 30.6968C267.605 31.9985 267.605 34.1091 266.303 35.4108L265.125 36.5893" stroke="#251B3B" stroke-width="1.7" stroke-linecap="round" stroke-linejoin="round"/>
    <path d="M272.5 195.875V200.75M272.5 200.75L275 199.125M272.5 200.75L270 199.125M265 192.625V201.4C265 202.31 265 202.765 265.182 203.112C265.341 203.418 265.596 203.667 265.91 203.823C266.266 204 266.732 204 267.664 204H277.336C278.267 204 278.733 204 279.089 203.823C279.403 203.667 279.659 203.418 279.818 203.113C280 202.765 280 202.31 280 201.4L280 195.225C280 194.315 280 193.86 279.818 193.512C279.659 193.206 279.403 192.958 279.089 192.802C278.733 192.625 278.267 192.625 277.333 192.625H272.5M265 192.625H272.5M265 192.625C265 191.728 265.746 191 266.667 191H269.729C270.136 191 270.341 191 270.532 191.045C270.703 191.085 270.865 191.151 271.014 191.24C271.182 191.34 271.326 191.481 271.615 191.762L272.5 192.625" stroke="#6A6A6A" stroke-width="1.6" stroke-linecap="round" stroke-linejoin="round"/>
    <path d="M120.752 88.0131C120.916 87.9893 121.084 87.9893 121.248 88.0131C121.436 88.0402 121.613 88.1062 121.762 88.1625C121.775 88.1676 121.789 88.1732 121.802 88.1781L126.717 90.0209C126.757 90.036 126.797 90.051 126.837 90.0658C127.407 90.2788 127.885 90.4587 128.252 90.7816C128.575 91.0662 128.824 91.4253 128.977 91.8275C129.15 92.2841 129.151 92.7949 129.15 93.4037V96.9994C129.15 99.384 127.698 101.35 126.17 102.771C124.817 104.028 123.301 104.956 122.341 105.482L121.966 105.683C121.951 105.691 121.946 105.693 121.932 105.701L121.931 105.702C121.773 105.784 121.58 105.884 121.331 105.933C121.126 105.973 120.874 105.973 120.669 105.933C120.42 105.884 120.228 105.784 120.07 105.702L120.069 105.701C120.057 105.694 120.048 105.69 120.035 105.683C119.136 105.215 117.377 104.208 115.831 102.771C114.303 101.35 112.851 99.384 112.851 96.9994V93.4037C112.85 92.7949 112.85 92.284 113.023 91.8275C113.176 91.4253 113.425 91.0661 113.748 90.7816C114.115 90.4586 114.593 90.2788 115.164 90.0658C115.203 90.0511 115.243 90.0359 115.283 90.0209L120.198 88.1781C120.211 88.1732 120.225 88.1676 120.238 88.1625C120.387 88.1062 120.564 88.0403 120.752 88.0131ZM120.968 89.6351L120.966 89.6361C120.926 89.6492 120.873 89.6696 120.772 89.7074L115.857 91.5502C115.479 91.6919 115.251 91.7812 115.104 91.8461C114.958 91.9112 114.887 91.9552 114.828 92.0072C114.704 92.1164 114.609 92.2543 114.55 92.4086C114.522 92.482 114.507 92.564 114.497 92.724C114.488 92.8835 114.483 93.1284 114.483 93.5316V96.9994C114.483 98.7039 115.534 100.265 116.943 101.575C118.335 102.868 119.949 103.796 120.79 104.235C120.838 104.26 120.874 104.278 120.905 104.293V104.294C120.93 104.307 120.947 104.314 120.959 104.32L121.001 104.339L121.042 104.32C121.054 104.314 121.071 104.307 121.096 104.294C121.127 104.279 121.162 104.26 121.211 104.235C122.052 103.796 123.666 102.868 125.058 101.575C126.467 100.265 127.517 98.7039 127.517 96.9994V93.5316C127.517 93.1284 127.513 92.8835 127.504 92.724C127.494 92.5638 127.478 92.4821 127.45 92.4086C127.391 92.2545 127.297 92.1163 127.173 92.0072C127.114 91.9552 127.042 91.9113 126.896 91.8461C126.749 91.7812 126.521 91.6918 126.144 91.5502L121.229 89.7074C121.127 89.6694 121.074 89.6492 121.034 89.6361L121.031 89.6351L121.001 89.6254L120.971 89.6351H120.968ZM123.173 94.5883C123.492 94.2694 124.009 94.2694 124.328 94.5883C124.647 94.9071 124.647 95.4246 124.328 95.7435L120.661 99.4105C120.342 99.7292 119.825 99.7292 119.506 99.4105L117.673 97.5765C117.354 97.2577 117.354 96.7411 117.673 96.4222C117.992 96.1033 118.509 96.1033 118.828 96.4222L120.084 97.6781L120.154 97.6068L123.173 94.5883Z" fill="#6A6A6A" stroke="#FEFEFE" stroke-width="0.2"/>
    <g clip-path="url(#clip1_4002_1158)">
        <path d="M84.7804 303.72L80.6922 299.632C81.6251 298.429 82.0646 296.916 81.9214 295.401C81.7782 293.886 81.0631 292.482 79.9214 291.476C78.7798 290.469 77.2975 289.935 75.7763 289.983C74.2551 290.031 72.8092 290.657 71.733 291.733C70.6568 292.809 70.0311 294.255 69.9833 295.776C69.9355 297.297 70.4691 298.78 71.4756 299.921C72.4821 301.063 73.8858 301.778 75.401 301.921C76.9162 302.065 78.4291 301.625 79.6317 300.692L83.7198 304.78C83.7895 304.85 83.8721 304.905 83.9631 304.943C84.0541 304.981 84.1516 305 84.2501 305C84.3486 305 84.4461 304.981 84.5371 304.943C84.628 304.905 84.7107 304.85 84.7803 304.78C84.85 304.711 84.9052 304.628 84.9429 304.537C84.9806 304.446 85 304.349 85 304.25C85 304.152 84.9806 304.054 84.9429 303.963C84.9052 303.872 84.85 303.789 84.7804 303.72ZM75.9741 300.448C75.0893 300.448 74.2243 300.185 73.4885 299.694C72.7528 299.202 72.1793 298.504 71.8407 297.686C71.5021 296.869 71.4135 295.969 71.5861 295.101C71.7587 294.233 72.1848 293.436 72.8105 292.81C73.4362 292.185 74.2334 291.759 75.1013 291.586C75.9691 291.413 76.8687 291.502 77.6862 291.841C78.5037 292.179 79.2024 292.753 79.694 293.488C80.1856 294.224 80.448 295.089 80.448 295.974C80.4466 297.16 79.9748 298.297 79.1361 299.136C78.2974 299.975 77.1602 300.446 75.9741 300.448Z" fill="#6A6A6A"/>
    </g>
    <path d="M51.6002 48.389L51.2888 48.2161C51.2404 48.1893 51.2167 48.1758 51.1933 48.1618C50.9611 48.023 50.7654 47.8312 50.6225 47.6018C50.6082 47.5787 50.5946 47.5545 50.5669 47.5066C50.5393 47.4588 50.5252 47.4346 50.5124 47.4106C50.3842 47.1719 50.3149 46.9059 50.3108 46.6351C50.3104 46.6079 50.3105 46.5801 50.3114 46.5248L50.3175 46.1639C50.3272 45.5864 50.3321 45.2968 50.2508 45.0369C50.1786 44.806 50.0577 44.5933 49.8963 44.4129C49.7139 44.2089 49.4614 44.0633 48.9559 43.7726L48.536 43.5312C48.0319 43.2413 47.7798 43.0963 47.5121 43.041C47.2754 42.9921 47.031 42.9944 46.7951 43.0472C46.5288 43.1069 46.2798 43.2556 45.7822 43.553L45.7793 43.5544L45.4785 43.7341C45.4309 43.7626 45.4068 43.7769 45.383 43.7901C45.1464 43.9214 44.8822 43.994 44.6116 44.0027C44.5843 44.0035 44.5566 44.0035 44.5011 44.0035C44.446 44.0035 44.417 44.0035 44.3898 44.0027C44.1186 43.994 43.8539 43.921 43.6169 43.7891C43.593 43.7759 43.5694 43.7614 43.5217 43.7329L43.219 43.5515C42.7179 43.2513 42.467 43.1009 42.1992 43.041C41.9623 42.988 41.7172 42.9865 41.4795 43.036C41.2112 43.0919 40.959 43.238 40.4546 43.5302L40.4524 43.5312L40.0377 43.7713L40.0331 43.7741C39.5332 44.0636 39.2827 44.2087 39.1018 44.4119C38.9413 44.5922 38.8213 44.8045 38.7495 45.0348C38.6684 45.2951 38.6727 45.5853 38.6825 46.1655L38.6886 46.5259C38.6895 46.5805 38.6911 46.6076 38.6907 46.6344C38.6866 46.9057 38.6164 47.1723 38.4879 47.4115C38.4752 47.4351 38.4615 47.4588 38.4342 47.506C38.4068 47.5533 38.3936 47.5768 38.3794 47.5996C38.2359 47.8303 38.0393 48.0232 37.8056 48.1622C37.7825 48.176 37.7581 48.1892 37.7103 48.2157L37.4028 48.3857C36.8913 48.6686 36.6356 48.8102 36.4495 49.0116C36.2849 49.1899 36.1606 49.4013 36.0847 49.6315C35.9989 49.8917 35.999 50.1836 36.0003 50.7672L36.0014 51.2442C36.0027 51.8239 36.0045 52.1136 36.0905 52.3721C36.1666 52.6008 36.29 52.8109 36.4537 52.9881C36.6387 53.1883 36.8919 53.329 37.3995 53.6108L37.7042 53.78C37.7561 53.8088 37.7822 53.823 37.8072 53.838C38.0387 53.9772 38.2338 54.1695 38.3761 54.3989C38.3914 54.4237 38.4062 54.4494 38.4357 54.5008C38.4648 54.5516 38.4797 54.577 38.4932 54.6025C38.6179 54.8381 38.6847 55.0999 38.6892 55.3664C38.6897 55.3952 38.6893 55.4243 38.6883 55.4828L38.6825 55.8286C38.6726 56.4108 38.6683 56.7022 38.75 56.9632C38.8222 57.1941 38.9429 57.4068 39.1043 57.5872C39.2867 57.7913 39.5396 57.9367 40.0452 58.2274L40.465 58.4688C40.9691 58.7587 41.2211 58.9035 41.4887 58.9588C41.7255 59.0077 41.97 59.0058 42.2059 58.953C42.4725 58.8932 42.7224 58.7439 43.2214 58.4457L43.5223 58.2659C43.5699 58.2375 43.594 58.2232 43.6179 58.21C43.8545 58.0787 44.1184 58.0057 44.389 57.9971C44.4163 57.9962 44.444 57.9962 44.4995 57.9962C44.5551 57.9962 44.5828 57.9962 44.6101 57.9971C44.8813 58.0058 45.1468 58.079 45.3838 58.2108C45.4047 58.2224 45.4256 58.235 45.4622 58.257L45.7821 58.4486C46.2832 58.7488 46.5336 58.8987 46.8014 58.9586C47.0383 59.0117 47.2836 59.0138 47.5213 58.9643C47.7895 58.9084 48.0422 58.762 48.5463 58.4701L48.9673 58.2263C49.4674 57.9366 49.7182 57.7913 49.8992 57.5881C50.0597 57.4078 50.1798 57.1956 50.2516 56.9653C50.3322 56.7069 50.3273 56.4189 50.3177 55.8471L50.3114 55.4741C50.3105 55.4195 50.3104 55.3924 50.3108 55.3656C50.3148 55.0942 50.3839 54.8275 50.5124 54.5883C50.5251 54.5647 50.5389 54.5409 50.5661 54.4938C50.5935 54.4465 50.6076 54.423 50.6218 54.4001C50.7653 54.1695 50.9621 53.9764 51.1958 53.8373C51.2186 53.8237 51.2421 53.8107 51.2889 53.7849L51.2905 53.7842L51.5979 53.6141C52.1094 53.3312 52.3656 53.1895 52.5517 52.9881C52.7163 52.8098 52.8405 52.5987 52.9164 52.3685C53.0017 52.1098 53.001 51.8196 52.9997 51.2428L52.9986 50.7556C52.9973 50.1759 52.9966 49.8863 52.9106 49.6278C52.8345 49.3991 52.7104 49.1889 52.5467 49.0118C52.3619 48.8117 52.1083 48.671 51.6017 48.3897L51.6002 48.389Z" stroke="#6A6A6A" stroke-width="1.6" stroke-linecap="round" stroke-linejoin="round"/>
    <path d="M41.0989 51.0001C41.0989 52.8747 42.6218 54.3943 44.5003 54.3943C46.3788 54.3943 47.9016 52.8747 47.9016 51.0001C47.9016 49.1255 46.3788 47.6058 44.5003 47.6058C42.6218 47.6058 41.0989 49.1255 41.0989 51.0001Z" stroke="#6A6A6A" stroke-width="1.6" stroke-linecap="round" stroke-linejoin="round"/>
    <defs>
        <filter id="filter0_d_4002_1158" x="114.64" y="119.661" width="94.866" height="94.8674" filterUnits="userSpaceOnUse" color-interpolation-filters="sRGB">
            <feFlood flood-opacity="0" result="BackgroundImageFix"/>
            <feColorMatrix in="SourceAlpha" type="matrix" values="0 0 0 0 0 0 0 0 0 0 0 0 0 0 0 0 0 0 127 0" result="hardAlpha"/>
            <feOffset dy="6"/>
            <feGaussianBlur stdDeviation="6"/>
            <feColorMatrix type="matrix" values="0 0 0 0 0.529412 0 0 0 0 0.156863 0 0 0 0 0.137255 0 0 0 0.16 0"/>
            <feBlend mode="normal" in2="BackgroundImageFix" result="effect1_dropShadow_4002_1158"/>
            <feBlend mode="normal" in="SourceGraphic" in2="effect1_dropShadow_4002_1158" result="shape"/>
        </filter>
        <filter id="filter1_d_4002_1158" x="91.7006" y="73.839" width="58.9639" height="58.9646" filterUnits="userSpaceOnUse" color-interpolation-filters="sRGB">
            <feFlood flood-opacity="0" result="BackgroundImageFix"/>
            <feColorMatrix in="SourceAlpha" type="matrix" values="0 0 0 0 0 0 0 0 0 0 0 0 0 0 0 0 0 0 127 0" result="hardAlpha"/>
            <feOffset dy="6"/>
            <feGaussianBlur stdDeviation="6"/>
            <feColorMatrix type="matrix" values="0 0 0 0 0 0 0 0 0 0 0 0 0 0 0 0 0 0 0.07 0"/>
            <feBlend mode="normal" in2="BackgroundImageFix" result="effect1_dropShadow_4002_1158"/>
            <feBlend mode="normal" in="SourceGraphic" in2="effect1_dropShadow_4002_1158" result="shape"/>
        </filter>
        <filter id="filter2_d_4002_1158" x="243.185" y="174.081" width="58.9639" height="58.9646" filterUnits="userSpaceOnUse" color-interpolation-filters="sRGB">
            <feFlood flood-opacity="0" result="BackgroundImageFix"/>
            <feColorMatrix in="SourceAlpha" type="matrix" values="0 0 0 0 0 0 0 0 0 0 0 0 0 0 0 0 0 0 127 0" result="hardAlpha"/>
            <feOffset dy="6"/>
            <feGaussianBlur stdDeviation="6"/>
            <feColorMatrix type="matrix" values="0 0 0 0 0 0 0 0 0 0 0 0 0 0 0 0 0 0 0.07 0"/>
            <feBlend mode="normal" in2="BackgroundImageFix" result="effect1_dropShadow_4002_1158"/>
            <feBlend mode="normal" in="SourceGraphic" in2="effect1_dropShadow_4002_1158" result="shape"/>
        </filter>
        <filter id="filter3_d_4002_1158" x="47.9547" y="273.113" width="58.9639" height="58.9646" filterUnits="userSpaceOnUse" color-interpolation-filters="sRGB">
            <feFlood flood-opacity="0" result="BackgroundImageFix"/>
            <feColorMatrix in="SourceAlpha" type="matrix" values="0 0 0 0 0 0 0 0 0 0 0 0 0 0 0 0 0 0 127 0" result="hardAlpha"/>
            <feOffset dy="6"/>
            <feGaussianBlur stdDeviation="6"/>
            <feColorMatrix type="matrix" values="0 0 0 0 0 0 0 0 0 0 0 0 0 0 0 0 0 0 0.07 0"/>
            <feBlend mode="normal" in2="BackgroundImageFix" result="effect1_dropShadow_4002_1158"/>
            <feBlend mode="normal" in="SourceGraphic" in2="effect1_dropShadow_4002_1158" result="shape"/>
        </filter>
        <filter id="filter4_d_4002_1158" x="16.9176" y="160.578" width="58.9639" height="58.9646" filterUnits="userSpaceOnUse" color-interpolation-filters="sRGB">
            <feFlood flood-opacity="0" result="BackgroundImageFix"/>
            <feColorMatrix in="SourceAlpha" type="matrix" values="0 0 0 0 0 0 0 0 0 0 0 0 0 0 0 0 0 0 127 0" result="hardAlpha"/>
            <feOffset dy="6"/>
            <feGaussianBlur stdDeviation="6"/>
            <feColorMatrix type="matrix" values="0 0 0 0 0 0 0 0 0 0 0 0 0 0 0 0 0 0 0.07 0"/>
            <feBlend mode="normal" in2="BackgroundImageFix" result="effect1_dropShadow_4002_1158"/>
            <feBlend mode="normal" in="SourceGraphic" in2="effect1_dropShadow_4002_1158" result="shape"/>
        </filter>
        <filter id="filter5_d_4002_1158" x="230.802" y="12.4661" width="58.9639" height="58.9646" filterUnits="userSpaceOnUse" color-interpolation-filters="sRGB">
            <feFlood flood-opacity="0" result="BackgroundImageFix"/>
            <feColorMatrix in="SourceAlpha" type="matrix" values="0 0 0 0 0 0 0 0 0 0 0 0 0 0 0 0 0 0 127 0" result="hardAlpha"/>
            <feOffset dy="6"/>
            <feGaussianBlur stdDeviation="6"/>
            <feColorMatrix type="matrix" values="0 0 0 0 0 0 0 0 0 0 0 0 0 0 0 0 0 0 0.07 0"/>
            <feBlend mode="normal" in2="BackgroundImageFix" result="effect1_dropShadow_4002_1158"/>
            <feBlend mode="normal" in="SourceGraphic" in2="effect1_dropShadow_4002_1158" result="shape"/>
        </filter>
        <filter id="filter6_d_4002_1158" x="15.3956" y="27.6857" width="58.9639" height="58.9646" filterUnits="userSpaceOnUse" color-interpolation-filters="sRGB">
            <feFlood flood-opacity="0" result="BackgroundImageFix"/>
            <feColorMatrix in="SourceAlpha" type="matrix" values="0 0 0 0 0 0 0 0 0 0 0 0 0 0 0 0 0 0 127 0" result="hardAlpha"/>
            <feOffset dy="6"/>
            <feGaussianBlur stdDeviation="6"/>
            <feColorMatrix type="matrix" values="0 0 0 0 0 0 0 0 0 0 0 0 0 0 0 0 0 0 0.07 0"/>
            <feBlend mode="normal" in2="BackgroundImageFix" result="effect1_dropShadow_4002_1158"/>
            <feBlend mode="normal" in="SourceGraphic" in2="effect1_dropShadow_4002_1158" result="shape"/>
        </filter>
        <linearGradient id="paint0_linear_4002_1158" x1="162.073" y1="125.835" x2="162.073" y2="196.353" gradientUnits="userSpaceOnUse">
            <stop stop-color="#F05340"/>
            <stop offset="0.46" stop-color="#ED523F"/>
            <stop offset="0.72" stop-color="#E54F3D"/>
            <stop offset="0.93" stop-color="#D74A39"/>
            <stop offset="1" stop-color="#D14838"/>
        </linearGradient>
        <linearGradient id="paint1_linear_4002_1158" x1="121.183" y1="114.635" x2="121.183" y2="80.0138" gradientUnits="userSpaceOnUse">
            <stop stop-color="white"/>
            <stop offset="0.46" stop-color="#F5F5F5"/>
            <stop offset="1" stop-color="#F0F0F0"/>
        </linearGradient>
        <linearGradient id="paint2_linear_4002_1158" x1="272.667" y1="214.87" x2="272.667" y2="180.255" gradientUnits="userSpaceOnUse">
            <stop stop-color="white"/>
            <stop offset="0.11" stop-color="#F9F9F9"/>
            <stop offset="0.37" stop-color="#F2F2F2"/>
            <stop offset="1" stop-color="#F0F0F0"/>
        </linearGradient>
        <linearGradient id="paint3_linear_4002_1158" x1="77.4367" y1="313.909" x2="77.4367" y2="279.287" gradientUnits="userSpaceOnUse">
            <stop stop-color="white"/>
            <stop offset="0.11" stop-color="#F9F9F9"/>
            <stop offset="0.4" stop-color="#F2F2F2"/>
            <stop offset="1" stop-color="#F0F0F0"/>
        </linearGradient>
        <linearGradient id="paint4_linear_4002_1158" x1="80.4349" y1="161.003" x2="241.402" y2="161.003" gradientUnits="userSpaceOnUse">
            <stop stop-color="#F05340"/>
            <stop offset="1" stop-color="#FFC6BF"/>
        </linearGradient>
        <linearGradient id="paint5_linear_4002_1158" x1="80.435" y1="81.4707" x2="241.402" y2="81.4707" gradientUnits="userSpaceOnUse">
            <stop stop-color="#F05340"/>
            <stop offset="1" stop-color="#FFC6BF"/>
        </linearGradient>
        <linearGradient id="paint6_linear_4002_1158" x1="80.4349" y1="119.507" x2="241.402" y2="119.507" gradientUnits="userSpaceOnUse">
            <stop stop-color="#F05340"/>
            <stop offset="1" stop-color="#FFC6BF"/>
        </linearGradient>
        <linearGradient id="paint7_linear_4002_1158" x1="252.16" y1="83.0903" x2="69.6677" y2="238.906" gradientUnits="userSpaceOnUse">
            <stop stop-color="#F05340"/>
            <stop offset="0.22" stop-color="#EB6857"/>
            <stop offset="0.5" stop-color="#E67C6E"/>
            <stop offset="0.77" stop-color="#E3887C"/>
            <stop offset="1" stop-color="#E38D81"/>
        </linearGradient>
        <linearGradient id="paint8_linear_4002_1158" x1="327.626" y1="171.468" x2="145.127" y2="327.291" gradientUnits="userSpaceOnUse">
            <stop stop-color="#F05340"/>
            <stop offset="0.22" stop-color="#EB6857"/>
            <stop offset="0.5" stop-color="#E67C6E"/>
            <stop offset="0.77" stop-color="#E3887C"/>
            <stop offset="1" stop-color="#E38D81"/>
        </linearGradient>
        <linearGradient id="paint9_linear_4002_1158" x1="302.846" y1="142.453" x2="120.347" y2="298.269" gradientUnits="userSpaceOnUse">
            <stop stop-color="#F05340"/>
            <stop offset="0.22" stop-color="#EB6857"/>
            <stop offset="0.5" stop-color="#E67C6E"/>
            <stop offset="0.77" stop-color="#E3887C"/>
            <stop offset="1" stop-color="#E38D81"/>
        </linearGradient>
        <linearGradient id="paint10_linear_4002_1158" x1="231.308" y1="305.753" x2="90.518" y2="16.2496" gradientUnits="userSpaceOnUse">
            <stop stop-color="#F07F71"/>
            <stop offset="1" stop-color="#FFC0B8"/>
        </linearGradient>
        <linearGradient id="paint11_linear_4002_1158" x1="95.4916" y1="371.802" x2="-45.2986" y2="82.2991" gradientUnits="userSpaceOnUse">
            <stop stop-color="#F07F71"/>
            <stop offset="1" stop-color="#FFC0B8"/>
        </linearGradient>
        <linearGradient id="paint12_linear_4002_1158" x1="129.046" y1="355.49" x2="-11.7444" y2="65.9802" gradientUnits="userSpaceOnUse">
            <stop stop-color="#F07F71"/>
            <stop offset="1" stop-color="#FFC0B8"/>
        </linearGradient>
        <linearGradient id="paint13_linear_4002_1158" x1="46.393" y1="201.374" x2="46.393" y2="166.753" gradientUnits="userSpaceOnUse">
            <stop stop-color="white"/>
            <stop offset="0.1" stop-color="#FAFAFA"/>
            <stop offset="0.42" stop-color="#F2F2F2"/>
            <stop offset="1" stop-color="#F0F0F0"/>
        </linearGradient>
        <linearGradient id="paint14_linear_4002_1158" x1="260.277" y1="53.2623" x2="260.277" y2="18.6409" gradientUnits="userSpaceOnUse">
            <stop stop-color="white"/>
            <stop offset="0.1" stop-color="#FAFAFA"/>
            <stop offset="0.43" stop-color="#F2F2F2"/>
            <stop offset="1" stop-color="#F0F0F0"/>
        </linearGradient>
        <linearGradient id="paint15_linear_4002_1158" x1="44.8711" y1="68.4819" x2="44.8711" y2="33.8605" gradientUnits="userSpaceOnUse">
            <stop stop-color="white"/>
            <stop offset="0.11" stop-color="#F9F9F9"/>
            <stop offset="0.37" stop-color="#F2F2F2"/>
            <stop offset="1" stop-color="#F0F0F0"/>
        </linearGradient>
        <clipPath id="clip0_4002_1158">
            <rect width="322" height="322" fill="white"/>
        </clipPath>
        <clipPath id="clip1_4002_1158">
            <rect width="15" height="15" fill="white" transform="translate(70 290)"/>
        </clipPath>
    </defs>
</svg>
