<svg xmlns="http://www.w3.org/2000/svg" width="160" height="160" fill="none" viewBox="0 0 160 160">
    <path fill="#191228" d="M44.47 76.92c1.26-.72 3.27-.72 4.52 0 1.24.71 1.23 1.87-.03 2.59-1.24.72-3.27.72-4.51 0-1.24-.72-1.24-1.88 0-2.59h.02Zm-3.24 7.01c-1.26.72-3.28.72-4.52 0-1.24-.71-1.24-1.87.01-2.59 1.26-.72 3.28-.72 4.52 0 1.24.71 1.23 1.88-.01 2.59Zm-7.74 4.43c-1.26.72-3.28.72-4.52 0-1.24-.72-1.23-1.88.01-2.59 1.26-.72 3.28-.72 4.52 0 1.24.71 1.23 1.87-.01 2.59Z"/>
    <path fill="#191228" d="M21.63 98.43c0 .82.61 1.61 1.7 2.25l4.84 2.78c0-.55-.03-8.52-.03-8.76-.34-.2-4.85-2.8-5.52-3.18-.56-.33-.76-.54-1-.73v7.65h.01v-.01ZM90.8 60.3 29.99 94.34l45.88 26.41c2.48 1.44 6.55 1.44 9.04 0l51.78-29.61c2.28-1.3 2.28-3.21.03-4.49l-28.06-16.14-24.23-13.66a9.646 9.646 0 0 0-9.4-.04L53.47 68.72 23.32 85.99c-2.33 1.33-2.21 3.25-.03 4.51.3.18 5.22 3 5.46 3.14L89.91 59.4l.88.9h.01Zm47.61 31.1c-1.07 1-7.92 4.58-52.87 30.41-2.9 1.65-7.42 1.65-10.29 0L29.36 95.4c0 .59.03 8.52.03 8.76l10.53 6.06 6.98 4 29 16.7c2.48 1.43 6.55 1.43 9.06 0l51.77-29.61c1.1-.64 1.7-1.44 1.7-2.26v-7.66h-.01l-.01.01ZM74.99 55.53a9.634 9.634 0 0 1 9.34.03l25.24 14.06 27.77 15.98c1.47.85 2.28 2.01 2.3 3.28 0 0 0 5.29.03 10.18 0 1.29-.83 2.46-2.32 3.32l-51.77 29.61c-2.88 1.65-7.39 1.67-10.29 0l-29-16.69-6.98-4.01c-.98-.55-16.38-9.43-16.6-9.55-1.56-.89-2.23-2.14-2.29-3.48-.14-3.21-.03-6.7-.03-9.77 0-1.36.71-2.62 2.3-3.52l29.9-17.1 22.4-12.32v-.02Z"/>
    <g id="diamond">
        <path fill="#AC78FF" d="m60.27 47.99-8.68 14.78V47.01l8.61-10.72c.01.5.07 11.23.07 11.7Zm52.52-1.33v15.99c-.13-.24-8.17-13.8-8.68-14.65l.04-11.94 8.64 10.61v-.01Zm-1.7 19.69-28.36 28.6V76.44l28.36-10.09Zm-57.79.14c7.14 2.51 21.05 7.42 28.21 9.94v18.51L53.3 66.48v.01Zm28.21-10.95v19.6c-6-2.13-19.73-6.96-29.63-10.45l9.29-15.8 20.34 6.65Zm21.7-6.65 9.29 15.66-29.78 10.6V55.56l20.48-6.67h.01Zm-.27-14.1c0 .24-.06 12.09-.06 12.92-.24.08-19.87 6.45-20.77 6.75l-20.63-6.75c0-.26-.07-12.14-.07-12.71l20.71-6.96 4.06 1.32 10.65 3.45 6.11 1.99v-.01Z"/>
        <path fill="#191228" d="M51.59 62.78 60.27 48c0-.47-.06-11.21-.07-11.7l-8.61 10.72v15.76Zm29.92 13.66c-7.16-2.52-21.08-7.43-28.21-9.94l28.21 28.46V76.44Zm0-1.29v-19.6L61.17 48.9l-9.29 15.8c9.9 3.49 23.63 8.33 29.63 10.45Zm1.22 19.8 28.36-28.6-28.36 10.09v18.51Zm20.16-47.24c0-.84.06-12.68.06-12.92l-6.11-1.99-10.65-3.45-4.06-1.32L61.43 35c0 .57.07 12.45.07 12.71l20.63 6.75c.89-.3 20.53-6.67 20.77-6.75h-.01Zm9.62 16.84-9.29-15.66-20.48 6.67v19.59l29.78-10.6h-.01Zm-8.63-30.7s.11.04.14.1l9.86 12.1c.1.1.14.24.14.38v18.44c-.14.48-.01.07-.17.43l-4.28 4.31-.89.91-26.12 26.36c-.27.26-.67.21-.88 0L61.49 76.51l-.88-.91-6.82-6.88-.88-.88-2.35-2.38c-.06-.11-.07-.13-.18-.44V46.79c0-.13.04-.27.14-.38l9.83-12.23s.11-.07.16-.11c.04-.03.07-.07.13-.09l21.28-7.18c.13-.03.27-.03.38 0l4.26 1.39 10.65 3.45 6.54 2.11.13.1Zm.27 2.2-.04 11.94c.51.85 8.55 14.41 8.68 14.65V46.65l-8.64-10.61v.01Z"/>
    </g>
</svg>
