<svg width="160" height="160" viewBox="0 0 160 160" fill="none" xmlns="http://www.w3.org/2000/svg">
    <g>
        <path d="M62.825 92.67C73.035 98.63 76.775 108.01 76.775 108.01C77.565 110.05 77.695 112.31 77.145 114.89C106.265 125.93 106.285 126.12 108.505 125.97C111.995 125.76 114.765 121.75 113.715 118.37C113.195 117.59 106.615 111.43 86.635 103.29L87.155 102.24C107.295 110.46 114.105 116.85 114.695 117.73C116.715 119.11 119.275 119.75 121.735 120.25C124.345 120.64 126.875 120.28 128.595 118.56C129.865 116.76 129.565 115.73 128.445 114.06C128.445 114.05 128.405 114.03 128.395 114.02C128.355 113.97 128.315 113.91 128.285 113.86C128.285 113.86 128.285 113.83 128.275 113.83C128.245 113.76 128.195 113.71 128.155 113.65C127.555 112.95 126.675 112.13 125.585 111.27C125.585 111.26 125.475 111.17 125.395 111.11C121.965 108.38 113.915 102.41 95.465 94.79L95.945 93.9C105.245 97.42 118.485 104.12 126.305 110.36C127.005 110.91 128.605 112.24 129.025 112.93H129.055C129.135 113.03 129.215 113.14 129.275 113.22L129.345 113.29C131.435 115.63 138.325 112.5 132.805 106.62C130.485 104.15 127.705 102.1 124.585 100.52H124.555C123.895 99.96 112.445 92.39 97.525 86.4C97.525 86.4 97.085 86.13 97.405 85.62C97.585 85.34 98.225 85.52 98.225 85.52C104.045 87.69 120.495 95.9 125.025 99.38C126.545 99.59 128.335 97.94 128.415 96.27C128.485 94.37 127.365 92.45 124.905 90.26C122.265 87.89 119.115 85.73 114.785 83.26L106.255 78.83C104.365 77.85 102.575 76.7 100.895 75.39L94.695 70.55C84.495 62.14 78.965 54.77 66.235 48.59C65.945 48.44 65.825 48.08 65.975 47.8C66.115 47.5 66.465 47.38 66.755 47.53C79.875 53.91 85.695 61.69 95.785 69.92L100.795 73.96C102.605 75.42 104.565 76.7 106.635 77.77L115.945 82.59C120.035 84.96 123.095 87.07 125.685 89.37C127.405 90.9 129.695 93.3 129.585 96.33C129.515 98.03 128.235 99.64 126.685 100.3C129.295 101.79 131.635 103.64 133.675 105.79C139.005 111.47 134.155 116.31 130.165 115.07C130.605 117.03 130.765 118.26 129.215 119.74C127.715 121.19 125.585 121.6 123.205 121.55C122.135 121.53 121.065 121.37 120.025 121.15C118.295 120.79 116.615 120.36 115.135 119.4C115.395 123.24 112.235 127.15 108.145 127.15C105.795 127.15 105.135 126.74 76.755 115.99C75.295 117.61 72.785 117.5 70.655 117.1C70.405 116.99 48.365 113.53 36.875 91.76C35.895 89.84 34.855 87.58 34.595 85.17C34.285 82.14 35.145 79.16 34.865 76.27C26.765 78.35 21.905 72.81 21.895 64.38C21.895 64.05 22.155 63.78 22.485 63.78H22.495C22.805 63.79 23.085 64.05 23.085 64.38C23.095 72 27.245 77.06 34.645 75.09C33.665 70.91 28.865 67.47 28.865 63.48C29.245 52.07 39.425 40.47 46.955 40.35C47.135 40.34 47.935 40.35 48.145 40.45C50.375 40.66 52.635 41.52 54.805 42.38C53.015 30.92 41.565 31.82 32.485 41.91C31.965 42.5 31.095 41.7 31.605 41.13C36.415 35.77 44.365 30.58 50.705 33.87C53.675 35.39 55.555 38.6 56.065 42.9L59.425 44.26C59.715 44.38 59.865 44.74 59.735 45.03C59.615 45.33 59.265 45.48 58.965 45.36C57.055 44.58 55.945 44.13 54.025 43.36C48.625 41.25 48.185 41.81 47.675 41.57C40.965 41.01 30.405 51.83 30.015 63.51C30.015 66.77 34.375 70.26 35.635 74.28C36.685 77.7 35.385 81.7 35.745 85.07C35.965 87.28 36.965 89.43 37.895 91.23C42.495 99.94 49.975 107.2 58.965 111.73C59.675 110.17 60.055 109.31 61.635 108.58C63.425 107.81 65.625 107.87 68.225 108.77C69.935 109.36 71.655 110.22 72.235 112.08C72.495 112.86 72.525 115.29 72.465 116.13C73.705 116.23 75.095 116.05 75.895 115.09C76.535 112.42 76.415 110.15 75.555 108.13C71.855 99.67 62.115 93.32 62.115 93.32C62.115 93.32 61.815 92.83 62.035 92.61C62.255 92.39 62.795 92.66 62.795 92.66L62.825 92.67ZM71.335 116.01C71.365 115.42 71.305 112.96 71.125 112.44C70.685 111.02 69.255 110.37 67.855 109.88C65.545 109.09 63.615 109.02 62.125 109.66C61.245 110.06 60.855 110.39 60.005 112.26C64.055 114.16 68.785 115.62 71.325 116.01H71.335Z" fill="#000"/>
        <path d="M58.985 45.35C58.985 45.35 64.615 47.77 66.235 48.6C67.845 49.42 67.125 47.79 67.125 47.79C67.125 47.79 59.645 44.27 58.415 43.87C57.185 43.47 57.295 44.14 57.295 44.14" fill="#000"/>
        <path d="M21.925 64.27C21.925 64.27 23.235 50.85 32.115 40.56L33.505 40.78C33.505 40.78 25.695 48.11 23.075 64.94L21.925 64.27Z" fill="#000"/>
        <path d="M95.455 94.77C95.455 94.77 94.915 94.46 95.105 94.04C95.295 93.62 95.945 93.89 95.945 93.89" fill="#000"/>
        <path d="M86.635 103.28C86.635 103.28 86.075 103.08 86.245 102.5C86.415 101.92 87.155 102.22 87.155 102.22" fill="#000"/>
    </g>
    <g id="wrench">
        <path d="M124.925 57.21V62.17L117.715 66.38L115.885 62.47L124.925 57.21Z" fill="#AC78FF"/>
        <path d="M136.935 72.32C136.935 74.45 135.475 76.47 132.805 78.03C129.855 79.76 125.805 80.67 121.615 80.55V74.24C125.385 74.35 130.095 73.47 133.415 71.55C134.915 70.68 136.235 69.42 136.925 68.42V72.3V72.32H136.935Z" fill="#AC78FF"/>
        <path d="M69.205 89.7401V95.87L60.005 101.24V95.12C60.225 94.99 68.675 90.0401 69.205 89.7401Z" fill="#AC78FF"/>
        <path d="M78.515 90.62L80.6351 95.11L77.765 96.78L70.445 95.67L70.425 89.38L78.5251 90.61L78.515 90.62Z" fill="#AC78FF"/>
        <path d="M72.635 102.16C74.105 102.01 84.585 102.53 88.895 96.5001C88.895 96.5601 88.925 96.6001 88.935 96.6501V100.32C88.945 101.52 88.485 102.28 88.395 102.51C88.215 102.77 87.635 104.37 84.835 106.01C81.715 107.81 77.385 108.7 72.925 108.46C72.805 108.46 72.715 108.43 72.655 108.39L72.635 102.14V102.16Z" fill="#AC78FF"/>
        <path d="M120.385 80.65C120.145 80.72 120.295 80.69 90.2351 98.23V92.1C111.865 79.49 118.265 75.75 119.895 74.8C119.895 74.8 119.955 74.75 120.155 74.65C120.155 74.65 120.155 74.65 120.175 74.63C120.175 74.63 120.225 74.59 120.245 74.57L120.265 74.53C120.265 74.53 120.315 74.53 120.335 74.51C120.335 74.73 120.335 80.28 120.335 80.64H120.395L120.385 80.65Z" fill="#AC78FF"/>
        <path d="M87.0951 96.78C83.5851 100.26 77.8451 101.04 72.9251 100.99L81.7251 95.86C81.9851 95.71 82.1051 95.37 81.9651 95.1C79.2751 89.38 79.5551 89.74 79.2451 89.57C79.1951 89.55 79.1351 89.5 79.0651 89.5C79.0351 89.49 79.0051 89.5 79.0051 89.47C78.9651 89.47 78.9251 89.45 78.9251 89.45C78.4651 89.4 76.5451 89.09 69.8751 88.09C69.8351 88.09 69.5551 88.14 69.5451 88.16C69.3351 88.28 60.3651 93.53 59.8051 93.87C59.7651 93.61 59.7251 93.63 59.6951 93.12C59.4751 90.5 61.4851 88.41 63.7551 87.08C68.9751 84.03 75.4251 84.63 75.6851 84.58C76.9551 84.08 71.0551 87.45 107.205 66.38C107.415 66.26 107.675 65.78 107.635 65.52C107.265 63.17 108.745 60.83 111.705 59.11C114.845 57.29 119.205 56.38 123.625 56.6L114.835 61.72C114.575 61.87 114.455 62.21 114.605 62.5C114.705 62.72 117.075 67.81 117.075 67.81C117.345 68.32 117.435 68 126.655 69.51C127.025 69.56 126.645 69.61 136.775 63.73C136.925 64.35 136.945 65.01 136.855 65.59C135.915 71.18 126.815 73.33 121.035 73.03C120.965 73.02 120.425 73.13 120.275 73.21C120.275 73.22 120.255 73.23 120.235 73.23C120.255 73.21 120.235 73.23 120.195 73.26L120.175 73.3C120.175 73.3 120.135 73.28 120.125 73.3L120.075 73.32C120.075 73.32 120.015 73.37 119.975 73.37C119.975 73.38 119.935 73.39 119.915 73.41C119.835 73.45 119.805 73.47 119.835 73.45C119.795 73.48 119.775 73.5 119.775 73.5C118.115 74.45 111.545 78.28 89.3651 91.23C89.2051 91.33 88.9151 91.74 88.9251 92.01C88.9151 93.65 89.1051 94.79 87.1351 96.79H87.1051L87.0951 96.78Z" fill="#AC78FF"/>
        <path d="M117.715 66.38L124.955 62.17V57.21L115.895 62.48L117.715 66.38ZM90.2451 98.24C120.295 80.71 120.145 80.74 120.395 80.66C120.395 80.3 120.395 74.76 120.395 74.53C120.395 74.54 120.355 74.56 120.345 74.55L120.305 74.58C120.305 74.58 120.265 74.61 120.245 74.63V74.66C120.245 74.66 120.205 74.65 120.185 74.66C119.985 74.77 119.925 74.81 119.925 74.81C118.295 75.76 111.895 79.5 90.2551 92.11V98.24H90.2451ZM132.785 78.02C135.455 76.46 136.915 74.44 136.915 72.31V68.43C136.215 69.43 134.905 70.68 133.405 71.56C130.085 73.48 125.375 74.36 121.595 74.25V80.56C125.785 80.67 129.845 79.75 132.795 78.04V78.02H132.785ZM69.2251 95.85V89.72C68.6851 90.03 60.2351 94.97 60.0051 95.1V101.22L69.2251 95.85ZM78.5151 90.62L70.4151 89.4V95.68L77.7451 96.79L80.6251 95.12L78.5151 90.62ZM88.8951 96.5C84.5751 102.52 74.1051 102.01 72.6351 102.16L72.6551 108.41C72.7351 108.44 72.8051 108.47 72.9251 108.48C77.3751 108.71 81.7151 107.8 84.8351 106.03C87.6251 104.38 88.2151 102.78 88.3951 102.53C88.4851 102.3 88.9551 101.53 88.9451 100.34V96.67C88.9451 96.67 88.8951 96.58 88.8951 96.52V96.5ZM81.7151 95.87L72.9151 101C77.8351 101.05 83.5951 100.28 87.0851 96.79C89.0651 94.8 88.8651 93.65 88.8751 92.01C88.8751 91.74 89.1551 91.33 89.3151 91.23C111.505 78.29 118.065 74.45 119.725 73.5C119.725 73.5 119.745 73.48 119.785 73.45C119.765 73.47 119.785 73.45 119.865 73.41C119.875 73.38 119.905 73.38 119.925 73.37C119.945 73.35 119.975 73.35 120.025 73.32C120.025 73.32 120.045 73.3 120.065 73.3C120.065 73.3 120.065 73.27 120.085 73.27L120.105 73.23C120.105 73.23 120.145 73.25 120.155 73.21C120.155 73.21 120.185 73.22 120.195 73.19C120.355 73.09 120.885 72.99 120.955 73.01C126.745 73.29 135.845 71.15 136.775 65.57C136.875 65 136.855 64.31 136.695 63.71C126.545 69.58 126.945 69.53 126.575 69.49C117.355 67.98 117.255 68.3 116.995 67.79C116.995 67.79 114.625 62.7 114.525 62.48C114.395 62.19 114.495 61.85 114.755 61.7L123.545 56.58C119.125 56.36 114.775 57.26 111.625 59.09C108.655 60.81 107.185 63.14 107.555 65.5C107.595 65.76 107.345 66.24 107.125 66.36C70.9551 87.43 76.8751 84.06 75.6051 84.56C75.3451 84.62 68.8951 84.02 63.6751 87.06C61.4051 88.39 59.3951 90.48 59.6151 93.1C59.6451 93.61 59.6851 93.59 59.7251 93.85C60.2751 93.52 69.2451 88.28 69.4651 88.14C69.4651 88.13 69.7651 88.07 69.7951 88.07C76.4551 89.07 78.3851 89.37 78.8451 89.43H78.8751H78.9351L78.9951 89.46L79.1751 89.53C79.4951 89.7 79.2051 89.35 81.8951 95.06C82.0351 95.34 81.9251 95.67 81.6551 95.82L81.7051 95.85L81.7151 95.87ZM63.1451 86.06C66.3851 84.15 70.8951 83.19 75.4851 83.39L75.7451 83.33L96.0151 71.49L97.1151 70.85L106.415 65.44C106.095 62.67 107.795 59.98 111.095 58.05C114.885 55.84 120.315 54.92 125.595 55.56L125.675 55.59C125.915 55.66 126.055 55.84 126.095 56.02C126.095 56.02 126.125 62.25 126.125 62.5C126.125 62.71 126.015 62.91 125.825 63.02L118.825 67.09L126.595 68.28L136.795 62.32C137.115 62.12 137.515 62.27 137.655 62.61C137.945 63.34 138.065 64.07 138.075 64.77C138.075 64.77 138.095 64.79 138.095 64.81V65V72.3C138.095 74.87 136.415 77.26 133.365 79.06C129.845 81.11 125.245 81.91 121.075 81.72L120.785 81.78L117.585 83.66L116.405 84.35L106.895 89.9L105.615 90.64L97.4351 95.43L96.1151 96.21L90.1351 99.7C90.0951 100.13 90.2651 101.04 89.7251 102.45L89.1951 103.52C87.0251 107.17 82.1251 108.9 77.9051 109.48L76.7051 109.6C74.9151 109.75 74.4751 109.75 72.9051 109.71C72.0651 109.71 71.4651 109.1 71.4651 108.58L71.4451 103.61L71.4251 102.15V101.04C71.4251 101.04 71.4251 101.03 71.4351 101.01C71.4451 100.79 71.5351 100.42 72.0151 100.15L76.0951 97.76L69.9351 96.83L66.3551 98.92L65.1951 99.6C58.7951 103.32 59.9051 102.72 59.5851 102.83C59.2551 102.95 59.0051 102.77 58.8951 102.55C58.9651 102.79 58.4451 101.65 58.4351 100.34C58.4351 100.34 58.4351 95.55 58.4351 92.79C58.4351 90.28 60.0751 87.87 63.1351 86.1V86.06H63.1451Z" fill="black"/>
    </g>
</svg>
