<svg xmlns="http://www.w3.org/2000/svg" width="160" height="160" fill="none" viewBox="0 0 160 160">
    <path fill="#AC78FF" d="m109.515 31.42.03 8.14-70.99 41.09c0-4.16-.01-7.47-.01-7.47-.01-2.55 1.78-5.65 3.99-6.94 67.72-39.14 63.91-37.19 65.05-37.26.26-.01.68.03.95.18h.03c.62.37.96 1.17.96 2.26h-.01Z"/>
    <path fill="#191228" d="M110.935 93.61c0 1.78-.94 3.43-2.47 4.34l-1.06.63-64.65 37.41c-1.15.66-2.5.96-3.65.3-1.99-1.17-5.6-3.28-7.57-4.44-.97-.57-1.54-1.76-1.54-3.25l-.03-6.21c.09.18.28.28.49.28.32 0 .58-.26.58-.58v-17.62c.01.07.03.15.03.23l.09 23.88c0 1.08.35 1.9.96 2.26l5.54 3.25c-.18-.95-.05 1.95-.28-52.1l-6.38-3.75.03 26.23a.6.6 0 0 0-.54-.35c-.32 0-.58.27-.58.58l.07 17.68a.446.446 0 0 1-.09-.3c-.01-1.06-.08-52.25-.08-53.34-.01-2.97 2-6.45 4.58-7.94l47.95-27.74 6.19-3.6 9.41-5.45c1.35-.77 2.64-.88 3.65-.31 0 0 7.34 4.32 7.57 4.46.99.58 1.53 1.73 1.54 3.27v8.47l.05 26.78c-.09-.2-.3-.35-.53-.35-.32 0-.58.27-.58.6v1.27s-.05-.16-.05-.26l-.04-27.02-70.99 41.07.19 51.03c0 2.29 1.47 3.09 3.43 1.94l65.09-37.69c1.58-.91 2.55-2.6 2.53-4.42v-.18l-.16-24.48c.24.49 1.11.41 1.11-.27v-1.26c.03.07.04.15.04.23l.15 25.75v.97Zm-1.39-54.04-.03-8.14c0-1.1-.34-1.9-.96-2.26h-.03c-.27-.15-.69-.19-.95-.18-1.14.07 2.68-1.88-65.06 37.26-2.2 1.29-4 4.39-3.99 6.94 0 0 .01 3.31.01 7.47l71.01-41.09Zm-2.99-11.59-5.56-3.27c-.64-.37-1.51-.26-2.49.31l-9.41 5.45-6.19 3.59-47.94 27.74c-2.22 1.29-4.01 4.39-4 6.92 0 0 .01 7.1.01 8.14l6.41 3.77c-.01-6.76-.01-5.61-.01-7.45 0-2.97 2-6.46 4.58-7.94 39.96-23.06 62.8-36.47 64.6-37.26Z"/>
    <path fill="#191228" d="M110.745 66.67v1.26c0 .68-.87.76-1.11.27v-1.29c0-.33.26-.6.58-.6.23 0 .43.15.53.35v.01Zm-79.72 37.8v17.62c.01.33-.24.58-.57.58-.2 0-.39-.11-.49-.28l-.07-17.68c0-.31.26-.58.58-.58a.6.6 0 0 1 .54.35l.01-.01Zm13.61-35.9c-2.2 1.27-3.46 5.11-1.57 6.21 1.91 1.1 4.62-1.87 4.61-4.42 0-1.82-1.42-2.72-3.04-1.79Zm-1.33 4.3c0-2.47 3.19-4.95 3.2-2.52 0 2.44-3.2 4.86-3.2 2.52Zm9.78-9.18c-1.41.81-2.49 2.71-2.49 4.31 0 1.86 1.5 2.64 3.08 1.72 1.38-.8 2.46-2.67 2.45-4.25 0-1.8-1.42-2.72-3.04-1.78Zm-1.33 4.29c0-2.43 3.19-4.97 3.2-2.52 0 2.44-3.2 4.86-3.2 2.52Zm9.76-9.18c-1.41.81-2.49 2.71-2.49 4.31 0 1.38.82 2.11 1.78 2.11 1.89 0 3.76-2.56 3.74-4.65 0-1.8-1.41-2.72-3.04-1.78l.01.01Zm-1.31 4.3c0-2.47 3.19-4.93 3.2-2.52 0 2.48-3.2 4.84-3.2 2.52Zm-2.77 42.73 2.18 3.01c.41.56 1.26.65 2.01-.12l3.57-3.59c1.39.51 3 .61 4.7.24l.65 3.82c.14.85.99 1.25 1.78.77l4.27-2.48c.61-.34 1.11-1.11 1.2-1.84l.77-5.51c1.69-1.69 3.26-3.73 4.54-5.89l4.3-.76c.16-.03.31-.08.49-.18.46-.26.85-.76 1.07-1.33l2.1-5.52c.32-.91.09-1.72-.58-1.98l-3.43-1.23c.22-1.68.22-3.55-.09-5.24l3.66-5.72c.47-.75.54-1.6.18-2.14l-2.18-3.01c-.41-.54-1.26-.62-2.01.14l-4.23 4.25c-1.19-.51-2.51-.69-3.96-.53l-.73-4.23c-.15-.84-.96-1.25-1.78-.76l-4.3 2.48c-.61.37-1.09 1.12-1.19 1.84l-.72 5.11c-1.96 1.78-3.78 4-5.3 6.44-3.73.69-3.65.58-4.1.83-.45.26-.85.75-1.07 1.31l-2.08 5.51c-.28.79-.18 1.72.58 1.98l2.6.95c-.35 2.22-.43 4.61.11 6.82l-2.85 4.46c-.49.77-.55 1.63-.19 2.14l.04-.04h-.01Zm1.16-1.51 2.99-4.66c.08-.14.12-.31.07-.46-.61-2.25-.49-4.74-.07-7.05a.578.578 0 0 0-.38-.65l-2.99-1.07s-.05-.24.05-.51c1.97-4.96 1.99-5.85 2.64-6.22.07-.04.12-.05.14-.05l3.87-.69c.16-.03.31-.12.39-.27 1.51-2.51 3.38-4.77 5.38-6.54a.75.75 0 0 0 .19-.35l.74-5.33c.05-.38.34-.83.62-1l4.34-2.52.82 4.78c.05.31.34.53.68.47 1.58-.27 3-.09 4.2.51.22.12.5.07.68-.11l4.51-4.55c.08-.08.16-.15.26-.27l2.16 2.98c.05.07.05.43-.2.84l-3.78 5.91c-.08.12-.11.28-.08.43.36 1.75.32 3.77.07 5.54a.6.6 0 0 0 .38.64l3.81 1.35c.18.3-.46 1.38-2.14 6.03-.14.37-.38.62-.68.77l-4.56.81c-.16.03-.31.14-.41.28-1.3 2.22-2.91 4.31-4.64 6.03a.52.52 0 0 0-.16.34l-.8 5.72c-.05.38-.32.83-.62.99l-4.34 2.53-.76-4.44a.578.578 0 0 0-.73-.46c-1.84.5-3.54.43-4.93-.19-.23-.09-.49-.05-.65.12-.11.11-3.99 4.01-4.08 4.13l-2.18-3.01s-.04-.41.22-.81h-.04l.01.01Z"/>
    <path fill="#191228" d="M74.455 96.22c3.88-2.24 7.02-7.7 7-12.15-.01-4.77-3.53-6.73-7.62-4.36-3.88 2.25-7.02 7.71-7 12.17.01 4.7 3.49 6.75 7.62 4.35v-.01Zm-.04-15.5c3.33-1.92 5.87-.49 5.88 3.36.03 6.52-6.91 13.77-10.62 11.61-1.08-.62-1.68-1.98-1.69-3.82 0-4.09 2.87-9.09 6.42-11.15h.01Z"/>
    <mask id="a" width="39" height="45" x="92" y="77" maskUnits="userSpaceOnUse" style="mask-type:luminance">
        <path fill="#fff" d="M130.195 77.27h-37.51v43.77h37.51V77.27Z"/>
    </mask>
    <g id="pastille" mask="url(#a)">
        <path fill="#AC78FF" d="M97.995 115.51c-2.66-1.55-4.14-4.84-4.17-9.28-.03-15.32 16.15-32.1 25.15-26.86l2.25 1.32c-.32.09-3.1-.19-7.19 2.18-6.58 3.8-12.19 11.78-14.41 19.73-1.27 4.53-1.73 10.14.62 14.21l-2.25-1.31v.01Z"/>
        <path fill="#AC78FF" d="m112.535 107.94 4.36-13.78c.11-.3-.07-.63-.38-.73-.3-.09-.63.07-.73.38l-4.36 13.78c-.23.73.88 1.09 1.11.35Zm6.54-12.52 3.9.61-4.25 5.58c-.47.61.46 1.31.93.7l4.83-6.35c.27-.36.05-.86-.38-.93l-4.84-.76c-.78-.11-.93 1.02-.19 1.15Zm-9.01 5.3a.58.58 0 0 0-.12-.82.578.578 0 0 0-.81.11l-4.83 6.35a.58.58 0 0 0 .36.93c.08.01 4.87.77 4.95.77.7 0 .8-1.04.08-1.16l-3.88-.61 4.25-5.57Zm18.97-8.64c.03 9.47-6.65 21.03-14.89 25.78-3.9 2.25-7.52 2.64-10.22 1.08-4.81-2.76-4.73-10.17-3.29-15.63 2.06-7.79 7.55-15.71 14-19.43 7.83-4.53 14.37-1.21 14.4 8.2Z"/>
        <path fill="#191228" d="m124.475 95.96-4.83 6.35c-.47.61-1.4-.09-.93-.7l4.25-5.58-3.9-.61c-.74-.12-.59-1.25.19-1.15l4.84.76c.43.07.65.57.38.93Zm-11.94 11.98c-.23.74-1.33.38-1.11-.35l4.36-13.78c.09-.31.43-.47.73-.38.31.09.49.43.38.73l-4.36 13.78Zm-2.83-1.04c.71.12.62 1.16-.08 1.16-.08 0-4.87-.76-4.95-.77a.58.58 0 0 1-.36-.93l4.83-6.35c.2-.26.57-.3.81-.11.27.2.31.57.12.82l-4.25 5.57 3.88.61Z"/>
        <path fill="#191228" d="M103.925 118.94c2.7 1.56 6.32 1.17 10.22-1.08 8.24-4.75 14.91-16.32 14.89-25.78-.03-9.41-6.57-12.73-14.4-8.2-6.45 3.72-11.93 11.64-14 19.43-1.44 5.46-1.52 12.86 3.29 15.63Zm-5.93-3.43 2.25 1.31c-2.35-4.07-1.89-9.68-.62-14.21 2.22-7.94 7.83-15.92 14.41-19.73 4.09-2.37 6.86-2.09 7.19-2.18l-2.25-1.32c-8.99-5.25-25.17 11.54-25.15 26.86.03 4.44 1.51 7.73 4.17 9.28v-.01Zm5.36 4.44c-1.48-.86-5.33-3.09-5.93-3.45-2.95-1.71-4.62-5.23-4.73-9.91-.04-.43.03-1.36.03-1.36.46-10.27 8.09-22.53 17.08-26.64 0 0 .47-.27 1.16-.46 3.22-1.2 6.2-1.13 8.59.26 0 0 5.47 3.17 5.93 3.44 10.06 5.87 2.89 29.18-10.75 37.05-3.55 2.04-7.83 3.11-11.38 1.08v-.01Z"/>
    </g>
</svg>
