<svg xmlns="http://www.w3.org/2000/svg" fill="none" viewBox="0 0 318 160">
    <path fill="#A480F8" d="m188.215 31.428.027 8.144-70.992 41.085c0-4.16-.013-7.466-.013-7.466-.014-2.548 1.784-5.65 3.987-6.938 67.735-39.147 63.923-37.196 65.058-37.264.257-.013.676.027.946.177h.028c.621.365.959 1.165.959 2.262Zm9.367 48.389 2.258 1.328c-.325.095-3.109-.19-7.205 2.195-6.596 3.821-12.219 11.843-14.45 19.825-1.27 4.552-1.73 10.189.622 14.282l-2.257-1.315c-2.663-1.558-4.15-4.864-4.177-9.322-.027-15.394 16.193-32.264 25.209-26.993Z"/>
    <path fill="#A480F8" d="M207.666 92.582c.027 9.512-6.664 21.138-14.923 25.908-3.906 2.263-7.542 2.656-10.246 1.084-4.825-2.778-4.744-10.217-3.298-15.705 2.068-7.832 7.57-15.786 14.031-19.526 7.853-4.553 14.409-1.22 14.436 8.239Z"/>
    <path fill="#000" d="M204.098 82.27c10.084 5.894 2.892 29.323-10.773 37.236-3.555 2.047-7.854 3.131-11.409 1.084-1.487-.867-5.339-3.103-5.947-3.468-2.961-1.721-4.637-5.258-4.731-9.96l-49.784 28.835c-1.149.664-2.501.962-3.65.298-1.987-1.165-5.596-3.279-7.569-4.444-.973-.569-1.541-1.762-1.541-3.252l-.027-6.206a.55.55 0 0 0 .486.284.577.577 0 0 0 .582-.582v-17.616c.013.068.027.149.027.23l.094 23.876c0 1.084.352 1.897.96 2.263l5.542 3.252c-.176-.948-.054 1.951-.284-52.101l-6.38-3.754.027 26.234a.598.598 0 0 0-.541-.352.586.586 0 0 0-.581.582l.068 17.684a.462.462 0 0 1-.095-.298c0-1.071-.067-52.265-.067-53.349-.014-2.967 2-6.45 4.582-7.94l47.945-27.738 6.191-3.604 9.408-5.448c1.352-.772 2.636-.88 3.65-.311l7.569 4.458c.987.582 1.528 1.734 1.541 3.265v8.47l.054 26.775a.594.594 0 0 0-.527-.352.59.59 0 0 0-.581.596v1.274s-.054-.163-.054-.258l-.041-27.02L117.25 82l.189 51.031c0 2.29 1.474 3.089 3.434 1.937l50.392-29.174c.446-10.325 8.096-22.643 17.112-26.775l-.04-10.814c.243.488 1.108.407 1.108-.27v-1.26a.628.628 0 0 1 .041.23l.054 11.653c3.23-1.206 6.218-1.138 8.61.257 0 0 5.488 3.185 5.948 3.456Zm-11.355 36.22c8.259-4.77 14.95-16.396 14.923-25.908-.027-9.459-6.583-12.792-14.436-8.24-6.461 3.74-11.963 11.695-14.031 19.527-1.446 5.488-1.527 12.927 3.298 15.705 2.704 1.572 6.34 1.179 10.246-1.084Zm7.097-37.345-2.258-1.328c-9.015-5.271-25.236 11.6-25.209 26.993.027 4.458 1.514 7.764 4.177 9.322l2.257 1.315c-2.352-4.093-1.892-9.73-.622-14.282 2.231-7.982 7.854-16.004 14.45-19.825 4.096-2.385 6.88-2.1 7.205-2.195Zm-11.598-41.573-.027-8.144c0-1.097-.338-1.897-.96-2.262h-.027c-.27-.15-.689-.19-.946-.177-1.135.068 2.677-1.883-65.058 37.264-2.203 1.287-4.001 4.39-3.987 6.938 0 0 .013 3.306.013 7.466l70.992-41.085Zm-2.987-11.585-5.556-3.266c-.635-.366-1.514-.258-2.487.312l-9.408 5.447-6.191 3.59-47.945 27.739c-2.217 1.287-4.014 4.39-4.001 6.924 0 0 .014 7.1.014 8.144l6.407 3.767c-.014-6.762-.014-5.61-.014-7.453 0-2.968 2.001-6.464 4.582-7.94 39.957-23.064 62.801-36.479 64.599-37.264Z"/>
    <path fill="#000" d="M189.445 66.673v1.26c0 .678-.865.76-1.108.271v-1.287a.59.59 0 0 1 .581-.596c.23 0 .433.149.527.352Zm-79.724 37.806v17.615a.558.558 0 0 1-.568.583.55.55 0 0 1-.486-.284l-.068-17.684c0-.311.257-.582.581-.582.244 0 .447.149.541.352Zm13.612-35.909c-2.203 1.274-3.461 5.109-1.568 6.206 1.906 1.098 4.623-1.87 4.609-4.417 0-1.816-1.419-2.724-3.041-1.789Zm-1.325 4.31c0-2.467 3.19-4.947 3.204-2.521 0 2.439-3.204 4.865-3.204 2.52Zm9.773-9.188c-1.406.813-2.487 2.71-2.487 4.31 0 1.856 1.5 2.641 3.082 1.72 1.378-.8 2.46-2.67 2.446-4.255 0-1.802-1.419-2.724-3.041-1.775Zm-1.325 4.295c0-2.425 3.19-4.972 3.204-2.52 0 2.44-3.204 4.865-3.204 2.52Zm9.76-9.187c-1.406.813-2.487 2.71-2.487 4.31 0 1.382.824 2.113 1.784 2.113 1.892 0 3.758-2.56 3.744-4.648 0-1.802-1.406-2.723-3.041-1.775Zm-1.311 4.31c0-2.467 3.19-4.933 3.203-2.521 0 2.48-3.203 4.838-3.203 2.52Zm-2.771 42.724 2.176 3.008c.405.556 1.257.651 2.014-.122l3.568-3.591c1.393.515 3.001.61 4.704.244l.649 3.821c.135.854.987 1.247 1.784.773l4.272-2.48c.608-.339 1.108-1.111 1.203-1.843l.77-5.515c1.69-1.694 3.258-3.726 4.542-5.894l4.299-.76a1.52 1.52 0 0 0 .486-.175c.46-.258.852-.76 1.068-1.328l2.095-5.515c.325-.908.095-1.721-.581-1.979l-3.433-1.233c.216-1.68.216-3.55-.095-5.244l3.663-5.718c.473-.745.541-1.599.176-2.141l-2.176-3.008c-.406-.542-1.258-.624-2.015.135l-4.23 4.255c-1.19-.515-2.515-.69-3.961-.528l-.73-4.228c-.148-.84-.96-1.247-1.784-.759l-4.299 2.48c-.608.366-1.094 1.125-1.189 1.843l-.716 5.108c-1.96 1.775-3.785 3.998-5.299 6.437-3.731.69-3.65.582-4.096.826-.446.258-.851.746-1.068 1.315l-2.081 5.515c-.284.786-.176 1.72.581 1.978l2.595.949c-.351 2.222-.432 4.607.108 6.816l-2.852 4.458c-.486.772-.554 1.626-.189 2.141l.041-.041Zm1.162-1.504 2.987-4.662c.081-.135.122-.311.068-.46-.608-2.25-.487-4.743-.068-7.046a.573.573 0 0 0-.378-.65l-2.987-1.071s-.055-.244.054-.515c1.973-4.96 1.987-5.854 2.635-6.22a.362.362 0 0 1 .136-.054l3.866-.691a.547.547 0 0 0 .392-.271c1.513-2.507 3.379-4.77 5.379-6.545a.69.69 0 0 0 .19-.352l.743-5.326c.054-.38.338-.826.622-1.002l4.339-2.52.824 4.782a.578.578 0 0 0 .676.475c1.582-.271 3.001-.095 4.204.515.216.122.5.067.676-.109l4.515-4.553c.081-.081.162-.149.256-.27l2.163 2.98c.054.068.054.434-.203.84l-3.784 5.908a.6.6 0 0 0-.081.434c.364 1.748.324 3.767.067 5.542a.595.595 0 0 0 .379.637l3.811 1.355c.176.298-.459 1.382-2.135 6.03a1.374 1.374 0 0 1-.676.773l-4.555.813a.616.616 0 0 0-.406.284c-1.298 2.222-2.906 4.31-4.636 6.03a.537.537 0 0 0-.163.339l-.797 5.718c-.054.379-.324.827-.622.989l-4.339 2.534-.757-4.444a.582.582 0 0 0-.73-.461c-1.838.501-3.541.434-4.933-.19-.23-.095-.487-.054-.649.122-.108.109-3.988 4.011-4.082 4.133l-2.177-3.008s-.04-.407.217-.813h-.041Z"/>
    <path fill="#000" d="M153.152 96.227c3.879-2.236 7.015-7.697 7.002-12.155-.014-4.77-3.528-6.735-7.624-4.363-3.88 2.249-7.016 7.71-7.002 12.168.014 4.702 3.487 6.748 7.624 4.35Zm-.041-15.502c3.325-1.924 5.867-.488 5.88 3.36.027 6.518-6.907 13.768-10.624 11.613-1.082-.623-1.677-1.978-1.69-3.821 0-4.092 2.866-9.092 6.421-11.152h.013Zm41.998 13.212a.581.581 0 0 0-.73.38l-4.366 13.848c-.23.731.878 1.097 1.108.352l4.366-13.849a.583.583 0 0 0-.378-.731Zm-6.813 13.537-3.893-.61 4.245-5.597a.6.6 0 0 0-.109-.826.596.596 0 0 0-.824.108l-4.839 6.383a.59.59 0 0 0 .378.935c.068 0 4.88.772 4.947.772.717 0 .798-1.043.095-1.165Zm14.436-11.924-4.866-.76c-.77-.095-.932 1.044-.176 1.152l3.893.61-4.244 5.61c-.473.623.46 1.314.933.704l4.839-6.382a.587.587 0 0 0-.379-.935Z"/>
</svg>
