<svg xmlns="http://www.w3.org/2000/svg" width="100" height="100" fill="none" viewBox="0 0 100 100">
    <path fill="#A480F8" d="M35.665 67.44c-2.832-1.653-4.414-5.161-4.443-9.891-.029-16.334 17.225-34.235 26.815-28.642l2.402 1.41c-.346.1-3.307-.202-7.664 2.329-7.017 4.054-12.998 12.566-15.37 21.035-1.352 4.831-1.84 10.812.661 15.154l-2.4-1.394Z"/>
    <path fill="#A480F8" d="m51.165 59.36 4.644-14.694a.608.608 0 0 0-.403-.777.62.62 0 0 0-.776.403l-4.644 14.694c-.245.777.934 1.165 1.179.374Zm6.973-13.343 4.155.647-4.529 5.953c-.503.647.49 1.395.992.748l5.148-6.773a.623.623 0 0 0-.403-.992l-5.162-.805c-.834-.115-.992 1.093-.2 1.222Zm-9.605 5.65a.625.625 0 0 0-.129-.876.62.62 0 0 0-.863.115l-5.147 6.772a.618.618 0 0 0 .388.992c.087.014 5.19.82 5.277.82.748 0 .848-1.108.086-1.237l-4.14-.647 4.528-5.938Zm20.23-9.215c.03 10.093-7.088 22.43-15.873 27.49-4.155 2.402-8.023 2.819-10.898 1.15-5.133-2.947-5.047-10.84-3.509-16.663 2.2-8.311 8.052-16.751 14.925-20.72 8.353-4.83 15.327-1.293 15.356 8.742Z"/>
    <path fill="#000" d="m63.904 46.593-5.148 6.772c-.503.647-1.495-.101-.992-.748l4.53-5.953-4.156-.647c-.79-.13-.633-1.337.201-1.222l5.162.805c.46.072.69.604.403.992ZM51.165 59.36c-.245.791-1.424.403-1.18-.374l4.645-14.694a.62.62 0 0 1 .776-.403c.33.1.518.46.403.777L51.165 59.36Zm-3.02-1.107c.762.13.662 1.237-.086 1.237-.086 0-5.19-.806-5.277-.82a.618.618 0 0 1-.388-.992l5.147-6.772a.62.62 0 0 1 .863-.115c.288.216.33.604.13.877l-4.53 5.938 4.141.647Z"/>
    <path fill="#000" d="M41.992 71.093c2.875 1.668 6.743 1.25 10.898-1.15 8.785-5.061 15.902-17.398 15.874-27.491-.03-10.036-7.003-13.573-15.356-8.742-6.873 3.968-12.725 12.408-14.925 20.718-1.538 5.824-1.624 13.717 3.509 16.665Zm-6.327-3.652 2.401 1.394c-2.502-4.342-2.013-10.323-.661-15.154 2.372-8.469 8.354-16.98 15.37-21.035 4.357-2.53 7.319-2.229 7.664-2.33l-2.401-1.409c-9.59-5.593-26.844 12.308-26.816 28.642.029 4.73 1.61 8.238 4.443 9.892Zm5.708 4.73c-1.581-.92-5.68-3.292-6.326-3.68-3.149-1.827-4.932-5.58-5.047-10.569-.043-.46.029-1.452.029-1.452.489-10.956 8.627-24.026 18.217-28.411 0 0 .503-.288 1.236-.489 3.437-1.28 6.614-1.208 9.16.273 0 0 5.837 3.38 6.326 3.667 10.726 6.254 3.077 31.114-11.46 39.51-3.781 2.172-8.353 3.322-12.135 1.151Z"/>
</svg>
