<svg xmlns="http://www.w3.org/2000/svg" width="100" height="149" fill="none" viewBox="0 0 100 149">
    <path fill="#A480F8" d="m61.267 49.598 1.41 3.431-3.805 4.954-2.373-2.186 4.768-6.199Zm12.583 7.059c.6 1.472.165 3.286-1.244 5.12-1.555 2.032-4.094 3.804-7.028 4.913l-1.793-4.363c2.643-.996 5.66-2.934 7.411-5.204.788-1.026 1.347-2.27 1.544-3.161l1.1 2.684.01.01ZM31.924 87.876l1.741 4.239-4.85 6.323-1.742-4.23c.124-.155 4.57-5.97 4.85-6.332Zm6.686-2.021 2.735 2.508-1.513 1.97-5.38 1.305-1.792-4.343 5.95-1.44Zm-.799 9.649c.974-.518 8.375-3.13 9.65-8.52.02.042.052.063.072.094l1.047 2.539c.342.83.239 1.482.239 1.669-.052.228 0 1.503-1.472 3.43-1.648 2.125-4.395 3.97-7.546 5.069a.403.403 0 0 1-.207.031l-1.783-4.322v.01ZM64.76 67.105c-.145.114-.052.051-15.88 20.698l-1.74-4.239c11.4-14.853 14.77-19.248 15.63-20.367 0 0 .03-.052.134-.176l.01-.02.032-.063v-.031s.03-.02.041-.031c.062.155 1.628 3.99 1.731 4.239l.042-.01Z"/>
    <path fill="#A480F8" d="M46.29 87.69c-1.441 3.399-5.194 5.565-8.614 6.923l4.633-6.043c.135-.176.125-.445-.052-.59-3.482-3.193-3.182-3.027-3.451-3.058-.042 0-.093-.02-.145 0-.021 0-.042.02-.052 0-.031.01-.062.01-.062.01-.332.093-1.752.425-6.644 1.617-.031.01-.207.124-.207.145-.114.145-4.83 6.312-5.12 6.706-.104-.166-.125-.145-.29-.487-.892-1.751-.094-3.762 1.098-5.327 2.747-3.587 7.38-4.996 7.545-5.11.736-.705-2.394 3.296 16.657-21.518.114-.145.155-.549.052-.715-.923-1.524-.56-3.555 1.005-5.587 1.658-2.145 4.415-4.01 7.535-5.11l-4.633 6.033a.439.439 0 0 0 .062.601l3.213 2.975c.332.28.301.03 7.11-1.534.27-.073.021.072 5.37-6.862.28.384.476.84.58 1.265.933 4.135-4.757 8.198-8.841 9.629-.052.01-.394.238-.477.342 0 .01-.01.02-.02.02.01-.02 0 0-.021.032v.03s-.032 0-.032.022l-.03.03s-.032.052-.052.063c0 .01-.021.02-.031.041-.042.052-.063.073-.042.052-.02.031-.031.052-.031.052-.881 1.13-4.343 5.638-16.024 20.875-.083.114-.166.476-.083.663.456 1.14.912 1.876.114 3.814h-.02Z"/>
    <path fill="#000" d="M62.998 62.907v.031h-.021l.02-.031Zm-.052.073s-.01 0 0 .02v-.02Zm-.456-.892v.01s-.01.021-.021.021l.031-.031h-.01ZM38.599 84.922l-.042.02h-.02s.03 0 .062-.01v-.01Z"/>
    <path fill="#000" d="m58.872 57.984 3.815-4.965-1.41-3.43-4.768 6.208 2.363 2.187Zm-9.992 29.82c15.828-20.637 15.734-20.575 15.88-20.7-.104-.248-1.67-4.083-1.732-4.239 0 .01-.02.032-.03.032l-.021.03s-.021.032-.031.053V63s-.021 0-.032.02l-.134.177c-.86 1.12-4.23 5.514-15.63 20.367l1.74 4.24h-.01Zm23.715-26.027c1.41-1.834 1.845-3.648 1.244-5.12l-1.099-2.685c-.197.892-.756 2.125-1.544 3.162-1.752 2.27-4.768 4.208-7.41 5.203l1.792 4.363c2.923-1.109 5.473-2.891 7.028-4.913l-.01-.01Zm-38.93 30.328-1.741-4.24c-.28.363-4.727 6.178-4.851 6.333l1.741 4.23 4.85-6.323Zm4.944-6.25-5.95 1.45 1.783 4.344 5.38-1.306 1.523-1.97-2.736-2.518Zm8.852 1.13c-1.286 5.39-8.676 8.001-9.65 8.52l1.783 4.322c.062 0 .124 0 .207-.032 3.14-1.098 5.887-2.954 7.545-5.068 1.462-1.928 1.42-3.203 1.472-3.43 0-.187.104-.85-.238-1.67l-1.047-2.539s-.052-.052-.072-.093v-.01Zm-5.152 1.596-4.633 6.042c3.42-1.358 7.183-3.524 8.613-6.923.809-1.939.342-2.675-.114-3.815-.072-.186 0-.549.083-.663C57.95 67.986 61.401 63.477 62.282 62.347c0 0 .01-.02.031-.052-.01.021 0 0 .042-.052 0-.02.02-.03.03-.04.011-.022.032-.032.053-.063 0 0 .01-.02.02-.02v-.011s0-.01.01-.02v-.032s.032 0 .032-.031c0 0 .02 0 .02-.02.084-.115.426-.333.477-.343 4.084-1.44 9.775-5.504 8.842-9.629a3.41 3.41 0 0 0-.58-1.264c-5.36 6.934-5.1 6.789-5.37 6.861-6.81 1.565-6.789 1.814-7.11 1.534l-3.213-2.974a.45.45 0 0 1-.062-.602l4.633-6.032c-3.12 1.099-5.877 2.954-7.535 5.11-1.566 2.031-1.928 4.063-1.006 5.587.104.165.062.57-.052.715-19.06 24.813-15.92 20.812-16.656 21.517-.166.114-4.799 1.524-7.546 5.11-1.192 1.565-1.99 3.576-1.098 5.328.166.341.186.32.29.487.29-.384 5.006-6.55 5.12-6.706 0-.01.187-.135.207-.145 4.893-1.192 6.313-1.535 6.644-1.617h.021l.041-.021h.198c.27.03-.03-.135 3.452 3.058a.425.425 0 0 1 .052.59l.041.01Zm-15.62-1.534c1.7-2.24 4.55-4.177 7.784-5.338l.166-.114 10.676-13.93.58-.757 4.903-6.375c-1.005-1.824-.59-4.166 1.15-6.436 2-2.602 5.494-4.778 9.329-5.825h.062a.44.44 0 0 1 .415.176l1.855 4.478a.438.438 0 0 1-.062.445l-3.69 4.8 5.71-1.38 5.37-7.006a.437.437 0 0 1 .674-.041c.404.425.694.89.901 1.378 0 0 .021.01.021.02l.052.136 2.073 5.047c.725 1.783.238 3.908-1.358 6.012-1.855 2.415-4.81 4.27-7.753 5.317v.01l-.186.114-1.68 2.208-.621.808-5.007 6.53-.673.871-4.302 5.628-.694.912-3.151 4.105c.093.31.466.891.498 2.02l-.063.892c-.466 3.14-3.368 5.722-6.125 7.318l-.798.425c-1.192.611-1.503.736-2.602 1.15-.58.239-1.171-.01-1.316-.373l-1.42-3.43-.425-1.006-.311-.767v-.02c-.052-.156-.093-.436.155-.757l2.146-2.81-4.53 1.1-1.886 2.456-.612.798c-3.379 4.384-2.777 3.659-2.964 3.825-.197.176-.415.124-.56 0 .114.145-.57-.498-.943-1.4 0 0-1.358-3.316-2.135-5.224-.715-1.73-.26-3.866 1.358-5.96l-.01-.03Z"/>
</svg>
