<svg xmlns="http://www.w3.org/2000/svg" width="311" height="160" fill="none" viewBox="0 0 311 160">
    <path fill="#A480F8" d="M183.782 46.168v15.927c-.129-.24-8.217-13.75-8.731-14.599l.043-11.9 8.688 10.572Zm-52.811 1.328-8.73 14.727V46.52l8.659-10.684c.014.494.071 11.193.071 11.66Zm21.356 7.519v19.531c-6.035-2.12-19.843-6.939-29.801-10.416l9.344-15.743 20.457 6.628Zm0 39.261-28.374-28.35c7.175 2.5 21.17 7.39 28.374 9.906v18.444Zm29.743-28.492-28.517 28.492V75.832l28.517-10.048Zm-7.917-17.398 9.343 15.603-29.943 10.557V55.03l20.6-6.643Zm-.271-14.048c0 .24-.057 12.042-.057 12.875-.243.085-19.986 6.43-20.885 6.728l-20.742-6.728c0-.254-.071-12.097-.071-12.663l20.813-6.939 4.08 1.314 10.713 3.435 6.149 1.978Z"/>
    <path fill="#000" d="M115.451 76.341c1.255-.72 3.267-.72 4.522 0 1.241.707 1.227 1.866-.029 2.587-1.241.72-3.266.72-4.507 0-1.242-.721-1.242-1.88 0-2.587h.014Zm-3.238 7.01c-1.256.721-3.282.721-4.523 0-1.241-.706-1.241-1.865.015-2.586 1.255-.72 3.281-.72 4.522 0 1.241.707 1.227 1.88-.014 2.586Zm-7.747 4.438c-1.255.72-3.281.72-4.522 0-1.24-.72-1.227-1.88.015-2.586 1.255-.721 3.281-.721 4.522 0 1.241.706 1.227 1.865-.015 2.586Z"/>
    <path fill="#000" d="M92.612 97.852c0 .82.613 1.61 1.698 2.247l4.836 2.784c0-.551-.029-8.522-.029-8.762-.342-.198-4.85-2.799-5.52-3.18-.557-.326-.757-.538-1-.735v7.646h.015Zm31.341-31.927 28.374 28.35V75.833c-7.204-2.515-21.199-7.405-28.374-9.907Zm.499 2.22-30.157 17.27c-2.325 1.328-2.21 3.25-.028 4.508.3.184 5.22 2.996 5.463 3.138l31.584-18.062-6.862-6.855Zm6.448-32.308-8.659 10.684v15.702l8.731-14.727c0-.466-.058-11.165-.072-11.66Zm21.427 38.71V55.014l-20.457-6.629-9.344 15.744c9.958 3.477 23.766 8.297 29.801 10.416Zm29.743-8.763-28.516 10.048v18.444l28.516-28.492Zm-26.177 54.398 51.783-29.609c2.283-1.3 2.283-3.208.029-4.494l-28.06-16.14-26.263 26.259a.645.645 0 0 1-.884 0l-20.3-20.295-31.226 17.864 45.877 26.415c2.482 1.441 6.548 1.441 9.044 0Zm53.495-29.355c-1.07 1.004-7.917 4.58-52.867 30.414-2.896 1.654-7.418 1.654-10.286 0l-45.891-26.414c0 .594.028 8.522.028 8.763l10.528 6.063 6.976 3.999 29.001 16.705c2.483 1.428 6.548 1.428 9.059 0l51.769-29.608c1.098-.636 1.697-1.442 1.697-2.261v-7.66h-.014Zm-35.563-43.613c0-.834.057-12.635.057-12.876l-6.149-1.978-10.713-3.434-4.08-1.315-20.813 6.94c0 .565.071 12.408.071 12.663l20.742 6.727c.899-.297 20.642-6.643 20.885-6.727Zm9.671 16.775-9.343-15.602-20.599 6.642v19.517l29.942-10.557Zm-8.673-30.583s.114.042.143.099l9.914 12.055c.1.099.143.24.143.381v18.373c-.143.48-.014.07-.171.424l-4.308 4.297 27.774 15.984c1.469.848 2.283 2.007 2.297 3.279 0 0 0 5.285.028 10.175 0 1.287-.827 2.46-2.325 3.322l-51.769 29.608c-2.881 1.654-7.389 1.668-10.285 0l-29.001-16.691-6.976-4.014c-.985-.551-16.377-9.426-16.605-9.553-1.484-.848-2.297-2.021-2.297-3.293l-.028-10.19c0-1.272.813-2.445 2.31-3.293l29.901-17.101-2.368-2.374c-.057-.113-.072-.128-.186-.438V46.295a.58.58 0 0 1 .143-.382l9.886-12.182s.114-.071.157-.113c.043-.029.071-.071.128-.085l21.412-7.151a.887.887 0 0 1 .386 0l4.279 1.385 10.713 3.434 6.577 2.106s.085.07.128.099Zm.271 2.19-.043 11.9c.514.848 8.602 14.36 8.731 14.6V46.167l-8.688-10.572Z"/>
</svg>
