<svg xmlns="http://www.w3.org/2000/svg" width="100" height="129" fill="none" viewBox="0 0 100 129">
    <path fill="#A480F8" d="m36.222 55.746-5.455 9.289V55.13l5.41-6.74c.01.312.045 7.06.045 7.355Zm33.002-.838v10.047c-.08-.152-5.135-8.674-5.455-9.21l.026-7.505 5.43 6.668Zm-1.069 12.373-17.82 17.972V73.62l17.82-6.339Zm-36.319.089c4.485 1.578 13.23 4.663 17.732 6.25v11.633L31.836 67.371Zm17.732-6.881v12.32c-3.771-1.338-12.4-4.378-18.623-6.57l5.84-9.932 12.783 4.181Zm13.639-4.182 5.84 9.842-18.713 6.66V60.496l12.873-4.19Zm-.169-8.861c0 .152-.036 7.596-.036 8.122-.152.053-12.49 4.056-13.051 4.243l-12.962-4.243c0-.16-.044-7.631-.044-7.988l13.006-4.377 2.55.83 6.695 2.165 3.842 1.248Z"/>
    <path fill="#000" d="m30.767 65.035 5.455-9.29c0-.293-.035-7.042-.044-7.354l-5.411 6.74v9.904Zm18.8 8.585c-4.501-1.587-13.246-4.672-17.73-6.25l17.73 17.883V73.62Zm0-.812v-12.32l-12.783-4.18-5.839 9.93c6.222 2.193 14.852 5.233 18.623 6.57Zm.767 12.445 17.82-17.972-17.82 6.339v11.633Zm12.668-29.685c0-.526.036-7.97.036-8.122l-3.842-1.248-6.695-2.166-2.55-.83-13.007 4.378c0 .357.045 7.827.045 7.988l12.962 4.243c.562-.187 12.9-4.19 13.051-4.243Zm6.044 10.581-5.839-9.842-12.873 4.19v12.311l18.712-6.659Zm-5.42-19.291s.071.027.09.062l6.195 7.605a.336.336 0 0 1 .089.24v11.59c-.09.302-.009.044-.107.267l-2.692 2.71-.562.57-16.412 16.564a.4.4 0 0 1-.552 0L36.989 73.664l-.553-.57-4.288-4.324-.552-.553-1.48-1.497c-.036-.072-.045-.08-.116-.277V54.988c0-.08.027-.17.09-.24l6.177-7.685s.071-.045.098-.071c.027-.018.045-.045.08-.054l13.381-4.51a.549.549 0 0 1 .24 0l2.675.873 6.695 2.166 4.11 1.328s.053.045.08.063Zm.17 1.382-.027 7.506c.32.535 5.375 9.057 5.455 9.209V54.908l-5.429-6.668Z"/>
</svg>
