<svg xmlns="http://www.w3.org/2000/svg" fill="none" viewBox="0 0 318 160">
    <path fill="#000" d="M143.98 88.006c-.519.301-8.875 5.163-9.08 5.314v6.027l9.08-5.287v-6.054Zm-9.313 4.068c.547-.33 9.409-5.48 9.614-5.616.014 0 .301-.069.342-.069 6.469 1 8.397 1.302 8.903 1.37 0 0 .027 0 .041.014.014 0 .055 0 .109.014.069 0 .124.04.192.068.314.178.014-.164 2.68 5.479a.618.618 0 0 1-.246.767l-8.684 5.054c4.855.04 10.53-.713 13.99-4.15 1.97-1.959 1.765-3.096 1.792-4.712 0-.26.273-.671.438-.753 22.551-13.122 28.746-16.738 30.168-17.56 0 0 .069-.027.124-.068.013 0 .027-.014.041-.014.041-.04.082-.054.109-.068h.014l.027-.028s0-.013.027-.013h.028c.164-.11.67-.192.725-.192h.013c5.703.301 14.688-1.808 15.618-7.314a4.893 4.893 0 0 0-.055-1.835c-10.024 5.766-9.628 5.739-10.01 5.67-9.191-1.506-9.191-1.191-9.45-1.712a694.37 694.37 0 0 0-2.435-5.232.592.592 0 0 1 .246-.753l8.671-5.04c-4.363-.247-8.643.643-11.761 2.437-2.913 1.699-4.39 4-4.021 6.328.041.274-.219.726-.438.863-35.694 20.75-29.854 17.436-31.126 17.915-.246.055-6.619-.548-11.761 2.466-2.256 1.3-4.239 3.355-4.034 5.958.041.479.068.493.109.726Zm59.818-12.944.014-6.054h-.028l-.109.083c.027-.028.014 0-.041.013-.027.014-.055.028-.082.055l-.068.041a.89.89 0 0 1-.151.082c-1.573.918-7.863 4.575-29.307 17.039l.014 6.054c29.649-17.272 29.512-17.244 29.758-17.313Zm1.204-6.328-.014 6.232c4.13.11 8.123-.767 11.05-2.479 2.626-1.52 4.075-3.52 4.075-5.63v-3.834c-.67.986-1.983 2.219-3.473 3.082-3.255 1.89-7.932 2.739-11.638 2.63Zm16.287-9.094v7.218c0 2.547-1.654 4.903-4.663 6.656-3.487 2.028-8.028 2.808-12.144 2.617h-.014l-.287.054-3.159 1.836c4.089 2.37 7.152 4.478 9.737 6.78 1.723 1.534 4.007 3.93 3.898 6.957-.069 1.699-1.354 3.315-2.9 3.973a30.331 30.331 0 0 1 6.989 5.492c5.333 5.684 1.19 9.971-2.804 8.738.438 1.959-.178 4.219-1.723 5.698-1.874 1.808-4.91 2.534-7.932 1.904-2.202-.452-4.226-1.52-6.086-2.726.26 3.835-2.899 7.753-6.988 7.753-2.352 0-3.009-.411-31.386-11.163-1.463 1.616-3.966 1.506-6.099 1.109-.247-.109-22.292-3.575-33.78-25.339-.984-1.917-2.024-4.177-2.284-6.588-.314-3.027.547-6.013.274-8.903-8.082 2.082-12.937-3.465-12.951-11.888 0-.329.26-.603.588-.603h.014a.614.614 0 0 1 .588.603c.013 7.615 4.157 12.683 11.556 10.71-.985-4.177-5.785-7.615-5.785-11.614.383-11.41 10.558-23.01 18.093-23.134.178-.014.985 0 1.19.096 2.229.206 4.486 1.068 6.66 1.931-1.792-11.464-13.238-10.56-22.319-.465-.52.589-1.395-.206-.875-.781 4.814-5.355 12.759-10.546 19.105-7.26 2.968 1.521 4.855 4.726 5.361 9.027l3.364 1.356c.287.123.438.48.315.767a.59.59 0 0 1-.766.328c-1.915-.78-3.023-1.232-4.937-2-5.402-2.108-5.84-1.547-6.346-1.794-6.715-.561-17.272 10.26-17.655 21.943 0 3.26 4.362 6.752 5.621 10.765 1.053 3.424-.247 7.424.109 10.793.219 2.205 1.217 4.356 2.147 6.164 4.595 8.71 12.076 15.97 21.074 20.503.712-1.561 1.095-2.424 2.667-3.15 1.792-.767 3.994-.712 6.592.192 1.709.589 3.433 1.452 4.007 3.315.26.78.287 3.205.232 4.054 1.245.096 2.626-.082 3.433-1.041.643-2.671.52-4.945-.342-6.958-1.764.164-2.215.164-3.761.096-.834 0-1.422-.589-1.422-1.123v-4.904c-1.969-1.41-3.925-2.52-6.154-3.972-6.332 3.657-5.238 3.096-5.539 3.192-.342.095-.588-.055-.697-.302-.082-.137-.438-1.123-.438-2.205v-7.45c.014-2.466 1.628-4.836 4.65-6.603 3.214-1.876 7.645-2.821 12.171-2.616l.26-.054 20.022-11.643c-10.202-8.41-15.728-15.778-28.46-21.955a.594.594 0 0 1-.26-.795.568.568 0 0 1 .78-.274c13.115 6.383 18.941 14.163 29.034 22.394l9.163-5.341c-.301-2.74 1.367-5.383 4.636-7.273 3.761-2.178 9.121-3.096 14.332-2.438.027 0 .041.027.068.04a.584.584 0 0 1 .424.412l.014 6.396a.597.597 0 0 1-.287.507l-6.907 4.013 7.645 1.192 10.079-5.876a.57.57 0 0 1 .835.301c.287.712.396 1.424.41 2.123 0 .027.013.027.013.041v.192Zm-6.154 48.5c2.093 2.355 8.274-.233 2.749-6.109-2.325-2.465-5.101-4.52-8.219-6.095h-.027c-.657-.562-5.607-4.273-20.418-11.026l-8.069 4.698c9.299 3.52 23.126 9.382 30.948 15.614.698.548 2.298 1.877 2.722 2.575h.027c.082.096.164.206.219.288l.068.068v-.013Zm-1.723 6.67c1.587-1.534 1.956-4.205.834-5.876 0-.014-.041-.027-.054-.041a1.27 1.27 0 0 1-.11-.164s0-.028-.013-.028c-.028-.068-.082-.123-.123-.178-.602-.698-1.477-1.52-2.571-2.383 0-.014-.11-.096-.192-.164-3.433-2.726-12.144-8.424-31.331-15.615l-5.922 3.452c-.027.424.123 1.315-.41 2.712 20.144 8.218 25.683 15.751 26.271 16.628 2.024 1.383 4.281 2.753 6.742 3.246 2.64.561 5.279-.055 6.879-1.589Zm.082-23.106c.069-1.904-1.053-3.822-3.514-6.013-2.64-2.37-5.785-4.534-10.121-7l-9.381 5.466c5.197 2.397 15.098 7.177 19.625 10.656 1.518.205 3.309-1.438 3.391-3.11Zm-5.169-34.9v-4.89l-8.931 5.192 1.792 3.849 7.139-4.15Zm-14.729 64.594c3.487-.205 6.263-4.219 5.21-7.602-.519-.78-5.825-8.081-25.806-16.216-2.147 3.602-6.988 5.3-11.132 5.862.793 2.04.916 4.3.369 6.875 29.116 11.04 29.143 11.232 31.359 11.081Zm-20.842-26.955v-3.63s-.041-.096-.055-.15c-4.267 5.944-14.592 5.437-16.055 5.561v6.177a.642.642 0 0 0 .287.082c4.404.233 8.671-.658 11.761-2.424 2.749-1.617 3.337-3.205 3.501-3.438.096-.233.561-.986.561-2.178Zm-8.206-5.164-2.065-4.437-7.986-1.22v6.192l7.207 1.123 2.844-1.658Zm-8.492 4.945 4.034-2.342-6.072-.945-3.542 2.054c2.434 1.562 3.296 2.055 4.992 3.205v-1.082s.027-.027.027-.041c0-.22.096-.575.561-.85Zm.369 17.217c.027-.589-.027-3.055-.205-3.575-.438-1.425-1.874-2.068-3.269-2.562-2.311-.794-4.239-.862-5.73-.219-.875.397-1.272.726-2.12 2.603 4.049 1.903 8.78 3.355 11.324 3.753Z"/>
    <path fill="#A480F8" d="M210.8 67.09v3.836c0 2.11-1.449 4.109-4.075 5.63-2.927 1.711-6.92 2.588-11.05 2.478l.014-6.232c3.706.11 8.383-.74 11.638-2.63 1.49-.862 2.803-2.095 3.473-3.081Z"/>
    <path fill="#A480F8" d="M210.677 62.448a4.89 4.89 0 0 1 .055 1.835c-.93 5.506-9.915 7.615-15.618 7.314h-.014s-.56.082-.724.178h-.028l-.027.027s-.014.014-.027.014h-.014s-.082.055-.109.082c-.014 0-.028.014-.042.014a.6.6 0 0 1-.123.069c-1.422.821-7.617 4.437-30.168 17.559-.165.082-.438.493-.438.753-.027 1.616.178 2.753-1.792 4.712-3.46 3.438-9.135 4.19-13.99 4.15l8.684-5.054a.618.618 0 0 0 .246-.767c-2.666-5.643-2.366-5.3-2.68-5.479-.069-.027-.123-.069-.192-.069-.054-.013-.095-.013-.109-.013 0-.014-.041-.014-.041-.014-.506-.068-2.434-.37-8.903-1.37-.041 0-.328.055-.342.069-.205.137-9.067 5.287-9.614 5.616-.041-.233-.068-.247-.109-.726-.206-2.603 1.777-4.657 4.034-5.958 5.142-3.014 11.515-2.411 11.761-2.466 1.272-.48-4.568 2.835 31.126-17.915.219-.137.479-.589.438-.863-.369-2.328 1.108-4.63 4.021-6.328 3.118-1.794 7.398-2.684 11.761-2.438l-8.671 5.04a.592.592 0 0 0-.246.754c.11.22 2.298 4.917 2.435 5.232.259.52.259.206 9.45 1.712.382.069-.014.096 10.01-5.67Z"/>
    <path fill="#A480F8" d="M199.012 55.983v4.89l-7.139 4.15-1.791-3.85 8.93-5.19Zm-4.513 17.093-.014 6.054c-.246.069-.109.041-29.758 17.313l-.014-6.054A51056.804 51056.804 0 0 0 194.02 73.35s.041-.013.151-.082h.041l.027-.027s.055-.041.082-.055c.055-.028.068-.041.041-.014.055-.04.096-.055.109-.068h.028v-.028Z"/>
    <path fill="#000" d="M194.348 71.789s-.014.013-.027.013c0 0 0-.013.027-.013Zm-.068.041s-.068.027-.109.068a.293.293 0 0 1 .109-.068Zm-.041 1.397-.027.027h-.041l.068-.04v.013Z"/>
    <path fill="#A480F8" d="M163.441 94.881v3.63c0 1.192-.465 1.945-.561 2.178-.164.233-.752 1.821-3.501 3.438-3.09 1.766-7.357 2.657-11.761 2.424a.537.537 0 0 1-.273-.082v-6.177c1.449-.124 11.774.383 16.041-5.561.014.055.041.096.055.15ZM153.17 88.91l2.065 4.437-2.844 1.658-7.207-1.123V87.69l7.986 1.219Zm-9.19-.904v6.054l-9.08 5.287V93.32c.205-.15 8.561-5.013 9.08-5.314Z"/>
    <path fill="#000" d="M134.763 44.847s5.634 2.425 7.248 3.247c1.614.821.889-.809.889-.809s-7.481-3.52-8.712-3.917c-1.23-.397-1.121.274-1.121.274M97.701 63.776s1.313-13.423 10.189-23.709l1.395.22s-7.809 7.327-10.435 24.16l-1.149-.67Z"/>
</svg>
