<svg xmlns="http://www.w3.org/2000/svg" width="762" height="598" fill="none" viewBox="0 0 762 598">
    <g clip-path="url(#a)">
        <path stroke="#463868" stroke-miterlimit="10" d="m523.467 182.499-12.869 22.284a19.584 19.584 0 0 1-16.913 9.76h-26.06a19.584 19.584 0 0 1-16.913-9.76l-13.034-22.572a19.546 19.546 0 0 1 0-19.521l13.034-22.572a19.585 19.585 0 0 1 16.913-9.761h26.06a19.585 19.585 0 0 1 16.913 9.761l11.889 20.577 25.771-5.278c-3.393-15.806-11.086-29.138-22.268-38.556-11.669-9.836-26.642-15.025-43.302-15.025-40.327 0-70.747 30.269-70.747 70.402 0 40.132 30.42 70.731 70.747 70.731 17.894 0 33.669-5.916 45.606-17.109 10.38-9.747 17.407-23.01 20.293-38.433l-25.12-4.901v-.027Z"/>
        <path stroke="#463868" stroke-miterlimit="10" d="m498.422 168.379-4.23-16.91a1.258 1.258 0 0 0-1.213-.946c-.09 0-.199 0-.309.034l-16.9 4.229c-10.037 2.358-16.639 12.16-15.062 22.318.891 5.066 3.722 9.508 7.946 12.482a19.273 19.273 0 0 0 14.479 3.229 23.82 23.82 0 0 0 2.647-.651c9.728-3.373 15.282-13.812 12.649-23.772l-.02-.02.013.007Z"/>
        <path fill="url(#b)" d="M762 242.749v-.685h-78.899V101.308h31.442v-.685h-31.442V62.917h-.685v37.706H548.971V0h-.685v100.623H411.605V62.917h-.686v37.706H274.698V23.045h-.685v77.578H137.791V62.917h-.685v37.706H58.948v.685h78.158v140.756H0v.685h137.113v140.756H66.016v.685h71.097v130.913H38.421v.685h98.692v20.522h.685v-20.522h136.221v62.773h.686v-62.773h136.221V598h.686v-82.212h136.681v36.63h.685v-36.63h133.445v20.522h.685v-20.522h62.239v-.685h-62.239V242.749h78.899H762Zm-79.584-141.441v140.756H548.971V101.308h133.445Zm-134.13 0v140.756H411.605V101.308h136.681ZM411.605 242.749h136.681v140.756H411.605V242.749Zm-.686 140.756H274.698V242.749h136.221v140.756Zm0-282.197v140.756H274.698V101.308h136.221Zm-273.121 0h136.221v140.756H137.798V101.308Zm0 141.441h136.221v140.756H137.798V242.749Zm0 272.354V384.19h136.221v130.913H137.798Zm136.9 0V384.19h136.221v130.913H274.698Zm136.907 0V384.19h136.681v130.913H411.605Zm270.811 0H548.971V384.19h112.568v-.685H548.971V242.749h133.445v272.354Z"/>
    </g>
    <defs>
        <radialGradient id="b" cx="0" cy="0" r="1" gradientTransform="matrix(342.49 0 0 342.412 381 298.997)" gradientUnits="userSpaceOnUse">
            <stop stop-color="#463868"/>
            <stop offset="1" stop-color="#170E29"/>
        </radialGradient>
        <clipPath id="a">
            <path fill="#fff" d="M0 0h762v598H0z"/>
        </clipPath>
    </defs>
</svg>
