<svg xmlns="http://www.w3.org/2000/svg" fill="none" viewBox="0 0 16 16">
    <path fill="currentColor" d="M16 7.502v1.437c-.3 2.71-1.961 5.217-4.414 6.43-.39.193-1.474.78-1.582.098-.159-1 .2-2.179-.18-3.195-.084-.225-.253-.368-.324-.582 1.114-.021 2.55-.603 3.096-1.623.517-.965.678-2.503.27-3.525-.101-.256-.52-.766-.544-.898-.033-.18.097-.413.115-.611.044-.5-.061-.998-.218-1.47-.311-.371-1.885.567-2.254.75a7.883 7.883 0 0 0-3.931 0C5.626 4.118 4.2 3.27 3.809 3.53c-.205.137-.268 1.245-.246 1.502.016.2.147.43.114.611-.025.137-.462.669-.565.94-.287.758-.255 1.908-.032 2.682.462 1.611 1.695 2.216 3.261 2.427.053.006.215-.044.158.09-.022.052-.16.165-.22.28-.089.17-.226.666-.28.721-.153.161-.866.241-1.094.218-1.03-.105-1.103-1.105-1.862-1.512-.361-.194-1.3-.324-.733.233.143.142.347.207.502.374.459.493.506 1.27 1.129 1.62.608.342 1.389.286 2.058.223v1.656c0 .11-.332.227-.46.217-.492-.04-1.812-.822-2.247-1.135-4.212-3.034-4.406-9.272-.447-12.612 4.926-4.156 12.524-1 13.097 5.337l.058.099Z"/>
</svg>
