<svg xmlns="http://www.w3.org/2000/svg" fill="none" viewBox="0 0 16 16">
    <path fill="currentColor" d="M8 1.446h3.277c.771 0 1.157.193 1.446.289.385.193.675.29.964.578.289.29.482.579.578.964.096.29.193.675.29 1.446v6.554c0 .771-.194 1.157-.29 1.446-.193.385-.29.675-.578.964-.29.289-.579.482-.964.578-.29.096-.675.193-1.446.29H4.723c-.771 0-1.157-.194-1.446-.29-.385-.193-.675-.29-.964-.578-.289-.29-.482-.579-.578-.964-.096-.29-.193-.675-.29-1.446V4.723c0-.771.194-1.157.29-1.446.193-.385.29-.675.578-.964.29-.289.579-.482.964-.578.29-.096.675-.193 1.446-.29H8ZM8 0H4.723c-.868 0-1.446.193-1.928.386a4.209 4.209 0 0 0-1.446.963c-.482.482-.674.868-.963 1.446-.193.482-.29 1.06-.386 1.928v6.554c0 .868.193 1.446.386 1.928.192.482.481.964.963 1.446s.868.674 1.446.963c.482.193 1.06.29 1.928.386h6.554c.868 0 1.446-.193 1.928-.386a4.21 4.21 0 0 0 1.446-.963c.482-.482.674-.868.963-1.446.193-.482.29-1.06.386-1.928V4.723c0-.868-.193-1.446-.386-1.928a4.21 4.21 0 0 0-.963-1.446c-.482-.482-.868-.674-1.446-.963-.482-.193-1.06-.29-1.928-.386H8Z"/>
    <path fill="currentColor" d="M8 3.855A4.114 4.114 0 0 0 3.855 8 4.114 4.114 0 0 0 8 12.145 4.114 4.114 0 0 0 12.145 8 4.114 4.114 0 0 0 8 3.855ZM8 10.7A2.694 2.694 0 0 1 5.301 8 2.694 2.694 0 0 1 8 5.301 2.694 2.694 0 0 1 10.699 8c0 1.446-1.253 2.699-2.699 2.699Zm4.241-5.977a.964.964 0 1 0 0-1.928.964.964 0 0 0 0 1.928Z"/>
</svg>
