<svg xmlns="http://www.w3.org/2000/svg" width="400" height="400" fill="none" viewBox="0 0 400 400">
    <g id="laravel">
        <g id="inner">
            <g id="center">
                <g id="Vector" filter="url(#filter0_d_4015_476)">
                    <path fill="#FA442E" d="M201.077 235.027c19.293 0 34.933-15.64 34.933-34.934 0-19.293-15.64-34.933-34.933-34.933s-34.933 15.64-34.933 34.933c0 19.294 15.64 34.934 34.933 34.934Z"/>
                    <path stroke="url(#paint0_linear_4015_476)" stroke-miterlimit="10" d="M201.077 235.027c19.293 0 34.933-15.64 34.933-34.934 0-19.293-15.64-34.933-34.933-34.933s-34.933 15.64-34.933 34.933c0 19.294 15.64 34.934 34.933 34.934Z"/>
                </g>
                <g id="surface1">
                    <path id="Vector_2" fill="#fff" d="M190.638 179.267c-.065.026-1.912 1.08-4.098 2.335-2.653 1.522-4.013 2.329-4.084 2.4a.728.728 0 0 0-.143.247c-.052.183-.059 27.24 0 27.435a.623.623 0 0 0 .143.247c.143.15 15.974 9.255 16.169 9.294.091.02.188.02.286-.013.215-.052 16.006-9.138 16.143-9.288a.752.752 0 0 0 .143-.247c.026-.091.039-1.502.039-4.481v-4.351l3.85-2.212c3.63-2.088 3.851-2.218 3.942-2.361l.097-.156v-4.689c0-5.106.013-4.82-.195-5.002-.052-.045-1.905-1.125-4.11-2.4l-4.013-2.309h-.449l-3.928 2.257c-2.16 1.242-4 2.309-4.091 2.361a.854.854 0 0 0-.241.247l-.078.137-.02 4.416-.019 4.416-3.246 1.867a235.353 235.353 0 0 1-3.297 1.88c-.059.019-.059-.404-.059-8.521v-8.546l-.084-.15c-.104-.175.37.104-4.449-2.66-4.039-2.322-3.941-2.276-4.215-2.172l.007.019Zm3.714 3.382c1.691.969 3.076 1.776 3.076 1.783 0 .006-1.483.865-3.291 1.905l-3.298 1.893-3.291-1.893a368.485 368.485 0 0 1-3.291-1.905c0-.007 1.477-.866 3.285-1.906l3.284-1.886.228.123c.13.072 1.613.917 3.298 1.886Zm23.525 4.352c1.782 1.027 3.252 1.873 3.265 1.886.039.032-6.491 3.785-6.582 3.785-.091 0-6.537-3.72-6.537-3.766 0-.052 6.491-3.785 6.556-3.772.033.006 1.516.852 3.291 1.873l.007-.006Zm-30.842.539 3.135 1.809.019 8.943.02 8.943.078.124a.792.792 0 0 0 .169.188 290.17 290.17 0 0 0 3.876 2.205l3.779 2.133v3.786c0 2.075-.013 3.779-.033 3.779-.013 0-3.284-1.873-7.265-4.163l-7.232-4.163-.013-12.793v-12.787l.156.091c.091.052 1.581.904 3.304 1.892l.007.013Zm11.082 6.303v8.241l-.13.084c-.169.111-6.458 3.721-6.478 3.721-.013 0-.019-3.721-.019-8.267v-8.267l3.284-1.886c1.809-1.041 3.291-1.88 3.311-1.873.013.006.026 3.72.026 8.253l.006-.006Zm12.521-1.899 3.291 1.892v3.753c0 3.558 0 3.747-.059 3.727-.032-.013-1.522-.865-3.31-1.892l-3.252-1.867v-3.747c0-2.061.013-3.752.019-3.752.013 0 1.503.852 3.311 1.892v-.006Zm11.213 1.834c0 2.055-.013 3.746-.026 3.759-.026.039-6.53 3.786-6.576 3.786-.013 0-.02-1.685-.02-3.753v-3.747l3.285-1.886a264.645 264.645 0 0 1 3.311-1.886c.019 0 .026 1.678.026 3.727Zm-11.857 6.823c2.764 1.593 3.245 1.879 3.2 1.918-.033.02-1.08.625-2.329 1.34-1.248.716-4.481 2.556-7.193 4.098l-4.917 2.803-.156-.084c-.937-.514-6.394-3.617-6.394-3.643 0-.052 14.426-8.344 14.485-8.318.026.013 1.515.858 3.31 1.886h-.006Zm3.928 6.777-.013 3.753-7.232 4.163c-3.981 2.289-7.246 4.162-7.265 4.162-.02 0-.033-1.528-.033-3.779v-3.785l7.246-4.13c3.98-2.27 7.252-4.13 7.271-4.137.013 0 .02 1.691.02 3.753h.006Z"/>
                </g>
            </g>
            <g id="arc-3">
                <g id="line-arc-3">
                    <path id="Vector_3" stroke="url(#paint1_linear_4015_476)" stroke-miterlimit="10" stroke-width="2" d="M192.739 120.483a74.236 74.236 0 0 1 4.344-.267 83.493 83.493 0 0 1 2.836-.052c44.091 0 79.83 35.74 79.83 79.832 0 44.091-35.739 79.831-79.83 79.831s-79.83-35.74-79.83-79.831c0-13.516 3.363-26.251 9.288-37.412a80.377 80.377 0 0 1 2.432-4.254"/>
                    <path id="Vector_4" fill="url(#paint2_linear_4015_476)" d="M193.363 124.359a3.911 3.911 0 0 1-4.319-3.46 3.917 3.917 0 0 1 3.46-4.319 3.912 3.912 0 0 1 4.319 3.461 3.915 3.915 0 0 1-3.46 4.318Z"/>
                    <path id="Vector_5" fill="url(#paint3_linear_4015_476)" d="M135.009 160.62a3.912 3.912 0 0 0-1.184-5.405 3.91 3.91 0 0 0-5.404 1.184 3.912 3.912 0 1 0 6.588 4.221Z"/>
                </g>
                <g id="icon-shield">
                    <g id="Vector_6" filter="url(#filter1_d_4015_476)">
                        <path fill="#FEFEFE" d="M160.186 153.303c9.379 0 16.982-7.604 16.982-16.983 0-9.379-7.603-16.982-16.982-16.982s-16.982 7.603-16.982 16.982 7.603 16.983 16.982 16.983Z"/>
                        <path stroke="url(#paint4_linear_4015_476)" stroke-miterlimit="10" d="M160.186 153.303c9.379 0 16.982-7.604 16.982-16.983 0-9.379-7.603-16.982-16.982-16.982s-16.982 7.603-16.982 16.982 7.603 16.983 16.982 16.983Z"/>
                    </g>
                    <g id="shield-check 1">
                        <path id="Vector_7" fill="#6A6A6A" stroke="#FEFEFE" stroke-width=".2" d="M159.756 127.012c.164-.024.331-.024.496 0a2.4 2.4 0 0 1 .553.165l4.915 1.843.121.045c.57.213 1.048.393 1.415.716.322.284.571.643.724 1.046.174.456.175.967.174 1.576v3.596c0 2.384-1.452 4.35-2.98 5.771-1.353 1.257-2.87 2.185-3.83 2.711l-.375.201-.034.018-.001.001c-.157.082-.35.183-.599.231-.205.04-.458.04-.662 0-.249-.048-.442-.149-.599-.231l-.001-.001-.034-.018c-.899-.468-2.658-1.475-4.204-2.912-1.529-1.421-2.981-3.387-2.981-5.771v-3.596c-.001-.609-.001-1.12.173-1.576a2.64 2.64 0 0 1 .725-1.046c.366-.323.845-.503 1.416-.716l.119-.045 4.915-1.843.04-.015a2.41 2.41 0 0 1 .514-.15Zm.215 1.622-.002.001c-.039.013-.092.034-.193.072l-4.915 1.842c-.378.142-.607.231-.753.296a1.012 1.012 0 0 0-.276.161c-.124.109-.22.247-.279.402a1.03 1.03 0 0 0-.052.315c-.01.16-.014.405-.014.808v3.468c0 1.704 1.051 3.265 2.46 4.575 1.392 1.293 3.005 2.221 3.847 2.66l.115.058v.001c.024.013.042.02.054.026l.042.019.041-.019c.011-.006.029-.013.053-.026.032-.015.067-.034.116-.059.841-.439 2.455-1.367 3.846-2.66 1.409-1.31 2.459-2.871 2.459-4.575v-3.468c0-.403-.003-.648-.012-.808a1.017 1.017 0 0 0-.054-.315 1.03 1.03 0 0 0-.277-.402 1.031 1.031 0 0 0-.278-.161 15.504 15.504 0 0 0-.752-.296l-4.915-1.842c-.101-.038-.154-.059-.194-.072l-.003-.001-.03-.009-.031.009h-.003Zm2.206 4.953a.818.818 0 0 1 1.155 1.156l-3.667 3.667a.818.818 0 0 1-1.155 0l-1.833-1.834a.817.817 0 1 1 1.155-1.155l1.256 1.256.07-.071 3.019-3.019Z"/>
                    </g>
                </g>
            </g>
            <g id="arc-2">
                <g id="line-arc-2">
                    <path id="Vector_8" stroke="url(#paint5_linear_4015_476)" stroke-miterlimit="10" stroke-width="2" d="m296.92 269.948-7.87 9.418a119.643 119.643 0 0 1-8.475 8.585c-1.034.95-2.094 1.886-3.174 2.81-50.12 42.797-125.442 36.859-168.239-13.268-42.796-50.128-36.858-125.446 13.268-168.243 50.12-42.797 125.443-36.859 168.239 13.269 13.119 15.369 21.659 33.106 25.75 51.545.93 4.202 1.632 8.442 2.107 12.696 0 0 .813 8.306 1.086 13.899"/>
                    <path id="Vector_9" fill="url(#paint6_linear_4015_476)" d="M293.791 267.587a3.909 3.909 0 0 1 5.509-.494 3.91 3.91 0 1 1-5.014 6.003 3.91 3.91 0 0 1-.495-5.509Z"/>
                    <path id="Vector_10" fill="url(#paint7_linear_4015_476)" d="M315.677 200.568a3.911 3.911 0 0 0 4.02 3.805 3.907 3.907 0 0 0 3.805-4.019 3.911 3.911 0 0 0-4.02-3.805 3.907 3.907 0 0 0-3.805 4.019Z"/>
                </g>
                <g id="icon-code">
                    <g id="Vector_11" filter="url(#filter2_d_4015_476)">
                        <path fill="#FEFEFE" d="M85.403 240.042c9.38 0 16.982-7.603 16.982-16.982 0-9.38-7.603-16.983-16.982-16.983s-16.982 7.603-16.982 16.983c0 9.379 7.603 16.982 16.982 16.982Z"/>
                        <path stroke="url(#paint8_linear_4015_476)" stroke-miterlimit="10" d="M85.403 240.042c9.38 0 16.982-7.603 16.982-16.982 0-9.38-7.603-16.983-16.982-16.983s-16.982 7.603-16.982 16.983c0 9.379 7.603 16.982 16.982 16.982Z"/>
                    </g>
                    <g id="code (3) 1">
                        <path id="Vector_12" stroke="#6A6A6A" stroke-linecap="round" stroke-linejoin="round" stroke-width="1.6" d="m87.087 225.499 2.5-2.5-2.5-2.5m-4.167 0-2.5 2.5 2.5 2.5m-1.416 5h7c1.4 0 2.1 0 2.635-.272a2.5 2.5 0 0 0 1.092-1.093c.273-.535.273-1.235.273-2.635v-7c0-1.4 0-2.1-.273-2.635a2.498 2.498 0 0 0-1.092-1.092c-.535-.273-1.235-.273-2.635-.273h-7c-1.4 0-2.1 0-2.635.273-.47.239-.853.622-1.093 1.092-.272.535-.272 1.235-.272 2.635v7c0 1.4 0 2.1.272 2.635a2.5 2.5 0 0 0 1.093 1.093c.535.272 1.235.272 2.635.272Z"/>
                    </g>
                </g>
                <g id="icon-folder">
                    <g id="Vector_13" filter="url(#filter3_d_4015_476)">
                        <path fill="#FEFEFE" d="M311.671 253.544c9.379 0 16.982-7.603 16.982-16.982s-7.603-16.982-16.982-16.982-16.982 7.603-16.982 16.982 7.603 16.982 16.982 16.982Z"/>
                        <path stroke="url(#paint9_linear_4015_476)" stroke-miterlimit="10" d="M311.671 253.544c9.379 0 16.982-7.603 16.982-16.982s-7.603-16.982-16.982-16.982-16.982 7.603-16.982 16.982 7.603 16.982 16.982 16.982Z"/>
                    </g>
                    <path id="Vector_14" stroke="#6A6A6A" stroke-linecap="round" stroke-linejoin="round" stroke-width="1.6" d="M311.504 234.874v4.875m0 0 2.5-1.625m-2.5 1.625-2.5-1.625m-5-6.5v8.775c0 .91 0 1.365.181 1.713.16.305.415.554.728.71.357.177.823.177 1.755.177h9.671c.932 0 1.398 0 1.754-.177.314-.156.569-.405.729-.71.182-.348.182-.803.182-1.713v-6.175c0-.91 0-1.365-.182-1.713a1.646 1.646 0 0 0-.729-.71c-.356-.177-.823-.177-1.756-.177h-4.833m-7.5 0h7.5m-7.5 0c0-.897.746-1.625 1.666-1.625h3.062c.408 0 .612 0 .804.045.17.04.332.106.482.195.168.1.312.241.6.522l.886.863"/>
                </g>
            </g>
            <g id="arc-1">
                <g id="line-arc-1">
                    <path id="Vector_15" stroke="url(#paint10_linear_4015_476)" stroke-miterlimit="10" stroke-width="2" d="M88.388 315.835c-7.16-6.492-11.856-12.892-17.8-21.191l-3.962-5.535a159.992 159.992 0 0 1-8.299-13.919 159.88 159.88 0 0 1-3.304-6.588c-37.892-80.001-3.272-176.178 76.864-213.765C211.093 17.692 305.7 50.96 344.08 129.888c38.51 79.194 6.374 174.037-72.376 213.453-24.898 12.461-51.453 17.84-77.398 16.904a160.067 160.067 0 0 1-17.222-1.555s-5.717-.904-11.669-1.977a98.735 98.735 0 0 1-18.458-5.236"/>
                    <path id="Vector_16" fill="url(#paint11_linear_4015_476)" d="M90.821 312.751a3.919 3.919 0 0 1 .37 5.522 3.918 3.918 0 0 1-5.521.371 3.919 3.919 0 0 1-.37-5.522 3.92 3.92 0 0 1 5.521-.371Z"/>
                    <path id="Vector_17" fill="url(#paint12_linear_4015_476)" d="M148.616 347.887a3.914 3.914 0 0 0-2.927 7.259 3.915 3.915 0 0 0 2.927-7.259Z"/>
                </g>
                <g id="icon-magnifying-glass">
                    <g id="Vector_18" filter="url(#filter4_d_4015_476)">
                        <path fill="#FEFEFE" d="M116.44 352.576c9.379 0 16.982-7.603 16.982-16.982s-7.603-16.982-16.982-16.982-16.982 7.603-16.982 16.982 7.603 16.982 16.982 16.982Z"/>
                        <path stroke="url(#paint13_linear_4015_476)" stroke-miterlimit="10" d="M116.44 352.576c9.379 0 16.982-7.603 16.982-16.982s-7.603-16.982-16.982-16.982-16.982 7.603-16.982 16.982 7.603 16.982 16.982 16.982Z"/>
                    </g>
                    <g id="magnifying-glass (1) 1" clip-path="url(#clip0_4015_476)">
                        <path id="Vector_19" fill="#6A6A6A" d="m123.784 342.719-4.088-4.088a5.986 5.986 0 0 0-4.916-9.649 5.985 5.985 0 0 0-4.301 9.938 5.982 5.982 0 0 0 8.156.771l4.088 4.088a.757.757 0 0 0 .531.22.746.746 0 0 0 .693-.463.761.761 0 0 0 0-.574.753.753 0 0 0-.163-.243Zm-8.806-3.272a4.472 4.472 0 0 1-3.164-7.637 4.477 4.477 0 0 1 4.876-.97 4.474 4.474 0 0 1 2.762 4.133 4.477 4.477 0 0 1-4.474 4.474Z"/>
                    </g>
                </g>
                <g id="icon-link">
                    <g id="Group 16">
                        <g id="Vector_20" filter="url(#filter5_d_4015_476)">
                            <path fill="#FEFEFE" d="M299.287 91.93c9.379 0 16.982-7.603 16.982-16.983 0-9.379-7.603-16.982-16.982-16.982s-16.982 7.603-16.982 16.983c0 9.379 7.603 16.982 16.982 16.982Z"/>
                            <path stroke="url(#paint14_linear_4015_476)" stroke-miterlimit="10" d="M299.287 91.93c9.379 0 16.982-7.603 16.982-16.983 0-9.379-7.603-16.982-16.982-16.982s-16.982 7.603-16.982 16.983c0 9.379 7.603 16.982 16.982 16.982Z"/>
                        </g>
                        <g id="Interface / Link">
                            <path id="Vector_21" stroke="#6A6A6A" stroke-linecap="round" stroke-linejoin="round" stroke-width="1.7" d="m297.647 77.356 4.714-4.713m-6.482 1.767-1.178 1.178a3.334 3.334 0 1 0 4.714 4.714l1.177-1.178m-1.178-8.25 1.179-1.178a3.333 3.333 0 0 1 4.714 4.714l-1.178 1.178"/>
                        </g>
                    </g>
                </g>
                <g id="icon-cog">
                    <g id="Vector_22" filter="url(#filter6_d_4015_476)">
                        <path fill="#FEFEFE" d="M83.881 107.149c9.38 0 16.982-7.603 16.982-16.982S93.26 73.185 83.881 73.185 66.9 80.788 66.9 90.167c0 9.38 7.603 16.982 16.982 16.982Z"/>
                        <path stroke="url(#paint15_linear_4015_476)" stroke-miterlimit="10" d="M83.881 107.149c9.38 0 16.982-7.603 16.982-16.982S93.26 73.185 83.881 73.185 66.9 80.788 66.9 90.167c0 9.38 7.603 16.982 16.982 16.982Z"/>
                    </g>
                    <g id="Vector_23">
                        <path stroke="#6A6A6A" stroke-linecap="round" stroke-linejoin="round" stroke-width="1.6" d="m90.604 87.388-.311-.173a1.698 1.698 0 0 1-.666-.614 3.735 3.735 0 0 1-.11-.191 1.695 1.695 0 0 1-.202-.886l.006-.36c.01-.578.015-.868-.067-1.128a1.696 1.696 0 0 0-.354-.624c-.182-.204-.435-.35-.94-.64l-.42-.242c-.504-.29-.757-.435-1.024-.49a1.704 1.704 0 0 0-.717.006c-.267.06-.516.209-1.013.506l-.003.001-.3.18a1.7 1.7 0 0 1-.867.269h-.222a1.701 1.701 0 0 1-.773-.214l-.096-.056-.302-.181c-.501-.3-.752-.45-1.02-.51a1.702 1.702 0 0 0-.72-.006c-.268.056-.52.202-1.025.494l-.002.001-.415.24-.004.003c-.5.29-.75.435-.931.638-.161.18-.281.393-.353.623-.081.26-.077.55-.067 1.13l.006.361c.001.055.003.082.002.109a1.696 1.696 0 0 1-.256.871l-.055.094c-.143.23-.34.423-.574.562l-.095.054-.308.17c-.511.283-.767.424-.953.626-.164.178-.289.39-.365.62-.085.26-.085.552-.084 1.135l.001.477c.001.58.003.87.09 1.128.075.229.199.44.362.616.185.2.439.341.946.623l.305.17a1.699 1.699 0 0 1 .672.619l.06.101.057.102a1.694 1.694 0 0 1 .195.88l-.006.346c-.01.582-.014.873.068 1.134.072.231.193.444.354.624.182.204.435.35.94.64l.42.242c.505.29.757.435 1.024.49.237.049.482.047.718-.006.266-.06.516-.209 1.015-.507l.301-.18.096-.056c.236-.131.5-.204.77-.213h.221a1.704 1.704 0 0 1 .853.26l.32.192c.5.3.751.45 1.019.51.237.053.482.055.72.005.268-.055.52-.202 1.025-.494l.42-.244c.501-.29.752-.434.933-.638.16-.18.28-.392.352-.623.08-.258.076-.546.066-1.118l-.006-.373v-.108a1.696 1.696 0 0 1 .255-.872l.056-.094c.143-.23.34-.424.573-.563l.094-.052h.001l.308-.17c.511-.284.767-.425.953-.627.165-.178.29-.39.365-.62.085-.258.085-.548.083-1.125v-.487c-.002-.58-.003-.87-.089-1.128a1.697 1.697 0 0 0-.364-.616c-.184-.2-.438-.34-.945-.622h-.001Z"/>
                        <path stroke="#6A6A6A" stroke-linecap="round" stroke-linejoin="round" stroke-width="1.6" d="M80.103 90a3.398 3.398 0 0 0 3.4 3.394 3.398 3.398 0 0 0 3.402-3.395 3.398 3.398 0 0 0-3.401-3.394 3.398 3.398 0 0 0-3.401 3.394Z"/>
                    </g>
                </g>
            </g>
        </g>
    </g>
    <defs>
        <linearGradient id="paint0_linear_4015_476" x1="201.077" x2="201.077" y1="164.835" y2="235.352" gradientUnits="userSpaceOnUse">
            <stop stop-color="#F05340"/>
            <stop offset=".46" stop-color="#ED523F"/>
            <stop offset=".72" stop-color="#E54F3D"/>
            <stop offset=".93" stop-color="#D74A39"/>
            <stop offset="1" stop-color="#D14838"/>
        </linearGradient>
        <linearGradient id="paint1_linear_4015_476" x1="119.439" x2="280.406" y1="200.002" y2="200.002" gradientUnits="userSpaceOnUse">
            <stop stop-color="#F05340"/>
            <stop offset="1" stop-color="#FFC6BF"/>
        </linearGradient>
        <linearGradient id="paint2_linear_4015_476" x1="119.439" x2="280.406" y1="120.47" y2="120.47" gradientUnits="userSpaceOnUse">
            <stop stop-color="#F05340"/>
            <stop offset="1" stop-color="#FFC6BF"/>
        </linearGradient>
        <linearGradient id="paint3_linear_4015_476" x1="119.438" x2="280.406" y1="158.506" y2="158.506" gradientUnits="userSpaceOnUse">
            <stop stop-color="#F05340"/>
            <stop offset="1" stop-color="#FFC6BF"/>
        </linearGradient>
        <linearGradient id="paint4_linear_4015_476" x1="160.186" x2="160.186" y1="153.634" y2="119.013" gradientUnits="userSpaceOnUse">
            <stop stop-color="#fff"/>
            <stop offset=".46" stop-color="#F5F5F5"/>
            <stop offset="1" stop-color="#F0F0F0"/>
        </linearGradient>
        <linearGradient id="paint5_linear_4015_476" x1="291.164" x2="108.671" y1="122.089" y2="277.905" gradientUnits="userSpaceOnUse">
            <stop stop-color="#F05340"/>
            <stop offset=".22" stop-color="#EB6857"/>
            <stop offset=".5" stop-color="#E67C6E"/>
            <stop offset=".77" stop-color="#E3887C"/>
            <stop offset="1" stop-color="#E38D81"/>
        </linearGradient>
        <linearGradient id="paint6_linear_4015_476" x1="366.63" x2="184.131" y1="210.468" y2="366.29" gradientUnits="userSpaceOnUse">
            <stop stop-color="#F05340"/>
            <stop offset=".22" stop-color="#EB6857"/>
            <stop offset=".5" stop-color="#E67C6E"/>
            <stop offset=".77" stop-color="#E3887C"/>
            <stop offset="1" stop-color="#E38D81"/>
        </linearGradient>
        <linearGradient id="paint7_linear_4015_476" x1="341.849" x2="159.351" y1="181.453" y2="337.268" gradientUnits="userSpaceOnUse">
            <stop stop-color="#F05340"/>
            <stop offset=".22" stop-color="#EB6857"/>
            <stop offset=".5" stop-color="#E67C6E"/>
            <stop offset=".77" stop-color="#E3887C"/>
            <stop offset="1" stop-color="#E38D81"/>
        </linearGradient>
        <linearGradient id="paint8_linear_4015_476" x1="85.397" x2="85.397" y1="240.374" y2="205.752" gradientUnits="userSpaceOnUse">
            <stop stop-color="#fff"/>
            <stop offset=".1" stop-color="#FAFAFA"/>
            <stop offset=".42" stop-color="#F2F2F2"/>
            <stop offset="1" stop-color="#F0F0F0"/>
        </linearGradient>
        <linearGradient id="paint9_linear_4015_476" x1="311.671" x2="311.671" y1="253.87" y2="219.255" gradientUnits="userSpaceOnUse">
            <stop stop-color="#fff"/>
            <stop offset=".11" stop-color="#F9F9F9"/>
            <stop offset=".37" stop-color="#F2F2F2"/>
            <stop offset="1" stop-color="#F0F0F0"/>
        </linearGradient>
        <linearGradient id="paint10_linear_4015_476" x1="270.312" x2="129.522" y1="344.752" y2="55.249" gradientUnits="userSpaceOnUse">
            <stop stop-color="#F07F71"/>
            <stop offset="1" stop-color="#FFC0B8"/>
        </linearGradient>
        <linearGradient id="paint11_linear_4015_476" x1="134.495" x2="-6.295" y1="410.801" y2="121.298" gradientUnits="userSpaceOnUse">
            <stop stop-color="#F07F71"/>
            <stop offset="1" stop-color="#FFC0B8"/>
        </linearGradient>
        <linearGradient id="paint12_linear_4015_476" x1="168.049" x2="27.259" y1="394.489" y2="104.979" gradientUnits="userSpaceOnUse">
            <stop stop-color="#F07F71"/>
            <stop offset="1" stop-color="#FFC0B8"/>
        </linearGradient>
        <linearGradient id="paint13_linear_4015_476" x1="116.44" x2="116.44" y1="352.908" y2="318.286" gradientUnits="userSpaceOnUse">
            <stop stop-color="#fff"/>
            <stop offset=".11" stop-color="#F9F9F9"/>
            <stop offset=".4" stop-color="#F2F2F2"/>
            <stop offset="1" stop-color="#F0F0F0"/>
        </linearGradient>
        <linearGradient id="paint14_linear_4015_476" x1="299.281" x2="299.281" y1="92.261" y2="57.64" gradientUnits="userSpaceOnUse">
            <stop stop-color="#fff"/>
            <stop offset=".1" stop-color="#FAFAFA"/>
            <stop offset=".43" stop-color="#F2F2F2"/>
            <stop offset="1" stop-color="#F0F0F0"/>
        </linearGradient>
        <linearGradient id="paint15_linear_4015_476" x1="83.875" x2="83.875" y1="107.481" y2="72.86" gradientUnits="userSpaceOnUse">
            <stop stop-color="#fff"/>
            <stop offset=".11" stop-color="#F9F9F9"/>
            <stop offset=".37" stop-color="#F2F2F2"/>
            <stop offset="1" stop-color="#F0F0F0"/>
        </linearGradient>
        <filter id="filter0_d_4015_476" width="94.866" height="94.867" x="153.644" y="158.66" color-interpolation-filters="sRGB" filterUnits="userSpaceOnUse">
            <feFlood flood-opacity="0" result="BackgroundImageFix"/>
            <feColorMatrix in="SourceAlpha" result="hardAlpha" values="0 0 0 0 0 0 0 0 0 0 0 0 0 0 0 0 0 0 127 0"/>
            <feOffset dy="6"/>
            <feGaussianBlur stdDeviation="6"/>
            <feColorMatrix values="0 0 0 0 0.529412 0 0 0 0 0.156863 0 0 0 0 0.137255 0 0 0 0.16 0"/>
            <feBlend in2="BackgroundImageFix" result="effect1_dropShadow_4015_476"/>
            <feBlend in="SourceGraphic" in2="effect1_dropShadow_4015_476" result="shape"/>
        </filter>
        <filter id="filter1_d_4015_476" width="58.964" height="58.965" x="130.704" y="112.838" color-interpolation-filters="sRGB" filterUnits="userSpaceOnUse">
            <feFlood flood-opacity="0" result="BackgroundImageFix"/>
            <feColorMatrix in="SourceAlpha" result="hardAlpha" values="0 0 0 0 0 0 0 0 0 0 0 0 0 0 0 0 0 0 127 0"/>
            <feOffset dy="6"/>
            <feGaussianBlur stdDeviation="6"/>
            <feColorMatrix values="0 0 0 0 0 0 0 0 0 0 0 0 0 0 0 0 0 0 0.07 0"/>
            <feBlend in2="BackgroundImageFix" result="effect1_dropShadow_4015_476"/>
            <feBlend in="SourceGraphic" in2="effect1_dropShadow_4015_476" result="shape"/>
        </filter>
        <filter id="filter2_d_4015_476" width="58.964" height="58.965" x="55.921" y="199.577" color-interpolation-filters="sRGB" filterUnits="userSpaceOnUse">
            <feFlood flood-opacity="0" result="BackgroundImageFix"/>
            <feColorMatrix in="SourceAlpha" result="hardAlpha" values="0 0 0 0 0 0 0 0 0 0 0 0 0 0 0 0 0 0 127 0"/>
            <feOffset dy="6"/>
            <feGaussianBlur stdDeviation="6"/>
            <feColorMatrix values="0 0 0 0 0 0 0 0 0 0 0 0 0 0 0 0 0 0 0.07 0"/>
            <feBlend in2="BackgroundImageFix" result="effect1_dropShadow_4015_476"/>
            <feBlend in="SourceGraphic" in2="effect1_dropShadow_4015_476" result="shape"/>
        </filter>
        <filter id="filter3_d_4015_476" width="58.964" height="58.965" x="282.189" y="213.08" color-interpolation-filters="sRGB" filterUnits="userSpaceOnUse">
            <feFlood flood-opacity="0" result="BackgroundImageFix"/>
            <feColorMatrix in="SourceAlpha" result="hardAlpha" values="0 0 0 0 0 0 0 0 0 0 0 0 0 0 0 0 0 0 127 0"/>
            <feOffset dy="6"/>
            <feGaussianBlur stdDeviation="6"/>
            <feColorMatrix values="0 0 0 0 0 0 0 0 0 0 0 0 0 0 0 0 0 0 0.07 0"/>
            <feBlend in2="BackgroundImageFix" result="effect1_dropShadow_4015_476"/>
            <feBlend in="SourceGraphic" in2="effect1_dropShadow_4015_476" result="shape"/>
        </filter>
        <filter id="filter4_d_4015_476" width="58.964" height="58.965" x="86.958" y="312.112" color-interpolation-filters="sRGB" filterUnits="userSpaceOnUse">
            <feFlood flood-opacity="0" result="BackgroundImageFix"/>
            <feColorMatrix in="SourceAlpha" result="hardAlpha" values="0 0 0 0 0 0 0 0 0 0 0 0 0 0 0 0 0 0 127 0"/>
            <feOffset dy="6"/>
            <feGaussianBlur stdDeviation="6"/>
            <feColorMatrix values="0 0 0 0 0 0 0 0 0 0 0 0 0 0 0 0 0 0 0.07 0"/>
            <feBlend in2="BackgroundImageFix" result="effect1_dropShadow_4015_476"/>
            <feBlend in="SourceGraphic" in2="effect1_dropShadow_4015_476" result="shape"/>
        </filter>
        <filter id="filter5_d_4015_476" width="58.964" height="58.965" x="269.805" y="51.465" color-interpolation-filters="sRGB" filterUnits="userSpaceOnUse">
            <feFlood flood-opacity="0" result="BackgroundImageFix"/>
            <feColorMatrix in="SourceAlpha" result="hardAlpha" values="0 0 0 0 0 0 0 0 0 0 0 0 0 0 0 0 0 0 127 0"/>
            <feOffset dy="6"/>
            <feGaussianBlur stdDeviation="6"/>
            <feColorMatrix values="0 0 0 0 0 0 0 0 0 0 0 0 0 0 0 0 0 0 0.07 0"/>
            <feBlend in2="BackgroundImageFix" result="effect1_dropShadow_4015_476"/>
            <feBlend in="SourceGraphic" in2="effect1_dropShadow_4015_476" result="shape"/>
        </filter>
        <filter id="filter6_d_4015_476" width="58.964" height="58.965" x="54.399" y="66.685" color-interpolation-filters="sRGB" filterUnits="userSpaceOnUse">
            <feFlood flood-opacity="0" result="BackgroundImageFix"/>
            <feColorMatrix in="SourceAlpha" result="hardAlpha" values="0 0 0 0 0 0 0 0 0 0 0 0 0 0 0 0 0 0 127 0"/>
            <feOffset dy="6"/>
            <feGaussianBlur stdDeviation="6"/>
            <feColorMatrix values="0 0 0 0 0 0 0 0 0 0 0 0 0 0 0 0 0 0 0.07 0"/>
            <feBlend in2="BackgroundImageFix" result="effect1_dropShadow_4015_476"/>
            <feBlend in="SourceGraphic" in2="effect1_dropShadow_4015_476" result="shape"/>
        </filter>
        <clipPath id="clip0_4015_476">
            <path fill="#fff" d="M109.004 328.999h15v15h-15z"/>
        </clipPath>
    </defs>
</svg>
