<svg xmlns="http://www.w3.org/2000/svg" fill="currentColor" stroke="#000" viewBox="0 0 145 28">
    <path stroke-width=".3" d="M13.741.168c3.204 0 6.077 1.017 8.314 2.94 2.11 1.814 3.573 4.374 4.242 7.413l-4.75.992-2.253-3.982a3.943 3.943 0 0 0-3.416-2.01h-5.063a3.937 3.937 0 0 0-3.277 1.783l-.139.227-2.53 4.473a4.09 4.09 0 0 0 0 4.017l2.53 4.473a3.943 3.943 0 0 0 3.416 2.01h5.063c1.405 0 2.713-.77 3.416-2.01l2.445-4.322 4.625.92c-.571 2.967-1.908 5.514-3.868 7.39-2.29 2.19-5.314 3.35-8.755 3.35-7.747 0-13.59-5.996-13.59-13.866C.15 6.096 5.992.168 13.74.168Z"/>
    <path stroke-width=".3" d="M15.74 9.816c.04 0 .078.027.09.071v.001l.822 3.352.01.04.002.003c.47 1.889-.57 3.855-2.372 4.493-.08.025-.16.049-.24.069l-.25.055a3.54 3.54 0 0 1-2.7-.615 3.675 3.675 0 0 1-1.446-2.198l-.036-.18c-.293-1.937.943-3.802 2.813-4.25l.002-.001 3.282-.838.009-.002h.015ZM69.777.456V.46h.15c3.775 0 7.215 1.346 9.69 3.786l.001.001c2.5 2.461 3.878 5.917 3.878 9.724 0 3.807-1.382 7.229-3.88 9.635-2.458 2.365-5.895 3.673-9.689 3.673h-9.848V.456h9.698ZM64.99 22.764h4.841c2.388 0 4.55-.828 6.095-2.341h.006l.044-.044c1.608-1.604 2.452-3.823 2.452-6.413 0-2.395-.796-4.331-2.5-6.088-1.815-1.866-3.977-2.907-6.097-2.907H64.99v17.793ZM105.272.456v4.515H91.824v6.585h13.448v4.514H91.824v6.694h13.448v4.514H86.913V.456h18.359ZM43.106.15c3.766 0 7.217 1.402 9.722 3.943 2.505 2.54 3.888 6.033 3.888 9.877 0 3.843-1.383 7.365-3.888 9.92-2.501 2.551-5.956 3.96-9.722 3.96-3.765 0-7.216-1.406-9.72-3.96-2.505-2.555-3.888-6.091-3.888-9.92 0-3.83 1.382-7.336 3.887-9.877C35.885 1.553 39.34.15 43.106.15Zm0 5.342c-2.29 0-4.398.856-5.933 2.414-1.546 1.566-2.392 3.705-2.392 6.064 0 2.358.85 4.529 2.39 6.105 1.536 1.57 3.645 2.433 5.935 2.433 2.291 0 4.4-.864 5.935-2.433 1.545-1.58 2.39-3.765 2.39-6.105 0-2.341-.848-4.498-2.39-6.064-1.535-1.558-3.644-2.414-5.935-2.414ZM137.319.287h5.405v4.81h-5.405c-1.861 0-3.38.243-4.507.739l-.22.102c-1.16.572-1.988 1.41-2.444 2.5l-.001.001c-.329.788-.538 1.754-.62 2.866l-.039.525-.03.396.284-.278.371-.363v-.001c.538-.531 1.287-.982 2.232-1.34.956-.362 2.083-.548 3.352-.548 1.791 0 3.406.37 4.802 1.102 1.354.71 2.416 1.717 3.16 2.993l-.005.007.055.097c.751 1.327 1.134 2.887 1.134 4.63 0 1.74-.424 3.325-1.262 4.72-.838 1.392-2.031 2.517-3.552 3.336-1.524.818-3.209 1.236-5.224 1.236-2.013 0-3.829-.485-5.4-1.444-1.565-.957-2.826-2.415-3.747-4.342-.922-1.93-1.391-4.248-1.391-7.21 0-2.963.442-5.553 1.307-7.703.856-2.125 2.263-3.812 4.185-5.014 1.926-1.203 4.466-1.817 7.56-1.817Zm-2.623 14.022c-.923 0-1.76.183-2.489.547h-.001a4.289 4.289 0 0 0-1.741 1.565c-.421.672-.633 1.416-.633 2.295 0 .876.211 1.663.633 2.334a4.374 4.374 0 0 0 1.736 1.582c.733.379 1.571.57 2.495.57.923 0 1.769-.192 2.511-.57.748-.382 1.34-.906 1.757-1.56.423-.664.634-1.469.634-2.316 0-.85-.212-1.63-.633-2.313a4.193 4.193 0 0 0-1.764-1.587c-.742-.363-1.583-.547-2.505-.547ZM119.901.215v27.297h-4.878v-20l-.224.128-.289.166c-1.071.615-2.465.966-4.15 1.037l-.34.01-.668.006V4.182a9.44 9.44 0 0 0 2.048-.294c1.14-.299 2.021-.725 2.684-1.332.639-.586 1.064-1.331 1.328-2.27h.009l.017-.07h4.463Z"/>
</svg>
