<svg viewBox="0 0 88 92" fill="none" xmlns="http://www.w3.org/2000/svg">
    <mask id="path-1-inside-1_4005_296" fill="white">
        <path d="M45.5605 0.414551C56.2901 0.414588 65.9328 3.76665 73.4482 10.1196C80.6481 16.2032 85.6044 24.8192 87.79 35.0288L71.1924 38.4399L63.5371 25.147C61.293 21.2555 57.12 18.8414 52.6436 18.8413H35.8594C31.3829 18.8413 27.21 21.2555 24.9658 25.147L16.5742 39.729C14.3301 43.6206 14.3301 48.4497 16.5742 52.3413L24.9658 66.9233C27.2099 70.8149 31.3828 73.23 35.8594 73.23H52.6436C57.12 73.2299 61.293 70.8149 63.5371 66.9233L71.8232 52.5288V52.5405L88 55.7056C86.1416 65.6689 81.6181 74.2372 74.9326 80.5317C67.2419 87.764 57.085 91.5854 45.5605 91.5854C19.5896 91.5854 0.000192901 71.8232 0 45.895C0 19.9667 19.5895 0.414551 45.5605 0.414551ZM52.1875 31.8755C52.5498 31.8755 52.8771 32.1216 52.9707 32.4849L55.6943 43.4097L55.7061 43.4214C57.4008 49.8566 53.8234 56.5966 47.5586 58.7769C46.9977 58.9526 46.4251 59.0933 45.8525 59.1987C42.5682 59.7731 39.2604 59.0342 36.5254 57.1118C33.8022 55.1895 31.979 52.3176 31.4062 49.0474C30.3896 42.4834 34.644 36.1542 41.1074 34.6304L51.9893 31.8989C52.0592 31.8756 52.1292 31.8755 52.1875 31.8755Z"/>
    </mask>
    <path d="M45.5605 0.414551L45.5606 -0.585449H45.5605V0.414551ZM73.4482 10.1196L72.8027 10.8833L72.8028 10.8835L73.4482 10.1196ZM87.79 35.0288L87.9914 36.0083L88.9789 35.8054L88.7679 34.8195L87.79 35.0288ZM71.1924 38.4399L70.3258 38.939L70.6862 39.5649L71.3937 39.4195L71.1924 38.4399ZM63.5371 25.147L64.4037 24.6479L64.4034 24.6474L63.5371 25.147ZM52.6436 18.8413L52.6436 17.8413H52.6436V18.8413ZM24.9658 25.147L24.0995 24.6474L24.0991 24.6482L24.9658 25.147ZM16.5742 39.729L17.4405 40.2286L17.4409 40.2278L16.5742 39.729ZM16.5742 52.3413L17.4409 51.8425L17.4405 51.8418L16.5742 52.3413ZM24.9658 66.9233L24.0991 67.4221L24.0995 67.4229L24.9658 66.9233ZM52.6436 73.23L52.6436 74.23L52.6436 74.23L52.6436 73.23ZM63.5371 66.9233L64.4034 67.4229L64.4038 67.4222L63.5371 66.9233ZM71.8232 52.5288H72.8232V48.7872L70.9566 52.0299L71.8232 52.5288ZM71.8232 52.5405H70.8232V53.3638L71.6312 53.5219L71.8232 52.5405ZM88 55.7056L88.983 55.8889L89.1648 54.9145L88.192 54.7242L88 55.7056ZM74.9326 80.5317L75.6177 81.2602L75.6181 81.2598L74.9326 80.5317ZM45.5605 91.5854L45.5605 92.5854L45.5606 92.5854L45.5605 91.5854ZM0 45.895L-1 45.895L-1 45.895L0 45.895ZM52.1875 31.8755L52.1875 30.8755L52.1875 30.8755L52.1875 31.8755ZM52.9707 32.4849L53.941 32.243L53.9391 32.2355L52.9707 32.4849ZM55.6943 43.4097L54.724 43.6516L54.7911 43.9207L54.9872 44.1168L55.6943 43.4097ZM55.7061 43.4214L56.6731 43.1667L56.6043 42.9054L56.4132 42.7143L55.7061 43.4214ZM47.5586 58.7769L47.8576 59.7311L47.8725 59.7264L47.8873 59.7213L47.5586 58.7769ZM45.8525 59.1987L46.0248 60.1838L46.0337 60.1822L45.8525 59.1987ZM36.5254 57.1118L35.9487 57.9288L35.9504 57.9299L36.5254 57.1118ZM31.4062 49.0474L30.418 49.2004L30.4195 49.2102L30.4212 49.2199L31.4062 49.0474ZM41.1074 34.6304L41.3369 35.6037L41.3439 35.602L41.3509 35.6003L41.1074 34.6304ZM51.9893 31.8989L52.2327 32.8688L52.2694 32.8596L52.3053 32.8477L51.9893 31.8989ZM45.5605 0.414551L45.5605 1.41455C56.077 1.41459 65.4848 4.69735 72.8027 10.8833L73.4482 10.1196L74.0938 9.35593C66.3809 2.83596 56.5031 -0.585411 45.5606 -0.585449L45.5605 0.414551ZM73.4482 10.1196L72.8028 10.8835C79.815 16.8084 84.6675 25.22 86.8122 35.2381L87.79 35.0288L88.7679 34.8195C86.5412 24.4185 81.4813 15.598 74.0936 9.35579L73.4482 10.1196ZM87.79 35.0288L87.5887 34.0493L70.9911 37.4604L71.1924 38.4399L71.3937 39.4195L87.9914 36.0083L87.79 35.0288ZM71.1924 38.4399L72.059 37.9409L64.4037 24.6479L63.5371 25.147L62.6705 25.646L70.3258 38.939L71.1924 38.4399ZM63.5371 25.147L64.4034 24.6474C61.9813 20.4473 57.4787 17.8414 52.6436 17.8413L52.6436 18.8413L52.6435 19.8413C56.7614 19.8414 60.6047 22.0636 62.6708 25.6465L63.5371 25.147ZM52.6436 18.8413V17.8413H35.8594V18.8413V19.8413H52.6436V18.8413ZM35.8594 18.8413V17.8413C31.0242 17.8413 26.5216 20.4474 24.0995 24.6474L24.9658 25.147L25.8321 25.6465C27.8983 22.0636 31.7416 19.8413 35.8594 19.8413V18.8413ZM24.9658 25.147L24.0991 24.6482L15.7075 39.2302L16.5742 39.729L17.4409 40.2278L25.8325 25.6458L24.9658 25.147ZM16.5742 39.729L15.7079 39.2295C13.2855 43.4302 13.2855 48.6401 15.7079 52.8409L16.5742 52.3413L17.4405 51.8418C15.3747 48.2593 15.3747 43.811 17.4405 40.2286L16.5742 39.729ZM16.5742 52.3413L15.7075 52.8401L24.0991 67.4221L24.9658 66.9233L25.8325 66.4246L17.4409 51.8425L16.5742 52.3413ZM24.9658 66.9233L24.0995 67.4229C26.5215 71.623 31.024 74.23 35.8594 74.23V73.23V72.23C31.7416 72.23 27.8983 70.0069 25.8321 66.4238L24.9658 66.9233ZM35.8594 73.23V74.23H52.6436V73.23V72.23H35.8594V73.23ZM52.6436 73.23L52.6436 74.23C57.4789 74.2299 61.9814 71.6229 64.4034 67.4229L63.5371 66.9233L62.6708 66.4238C60.6046 70.0069 56.7612 72.2299 52.6435 72.23L52.6436 73.23ZM63.5371 66.9233L64.4038 67.4222L72.6899 53.0277L71.8232 52.5288L70.9566 52.0299L62.6704 66.4244L63.5371 66.9233ZM71.8232 52.5288H70.8232V52.5405H71.8232H72.8232V52.5288H71.8232ZM71.8232 52.5405L71.6312 53.5219L87.808 56.687L88 55.7056L88.192 54.7242L72.0153 51.5591L71.8232 52.5405ZM88 55.7056L87.017 55.5222C85.1935 65.2983 80.7631 73.6688 74.2471 79.8037L74.9326 80.5317L75.6181 81.2598C82.4732 74.8057 87.0897 66.0394 88.983 55.8889L88 55.7056ZM74.9326 80.5317L74.2476 79.8032C66.7601 86.8443 56.8559 90.5854 45.5605 90.5854L45.5605 91.5854L45.5606 92.5854C57.314 92.5854 67.7237 88.6836 75.6177 81.2602L74.9326 80.5317ZM45.5605 91.5854V90.5854C20.1463 90.5854 1.00019 71.2753 1 45.895L0 45.895L-1 45.895C-0.999803 72.3711 19.033 92.5854 45.5605 92.5854V91.5854ZM0 45.895H1C1 20.5207 20.1401 1.41455 45.5605 1.41455V0.414551V-0.585449C19.0389 -0.585449 -1 19.4127 -1 45.895H0ZM52.1875 31.8755V32.8755C52.0986 32.8755 52.0238 32.8177 52.0023 32.7343L52.9707 32.4849L53.9391 32.2355C53.7305 31.4255 53.0009 30.8755 52.1875 30.8755V31.8755ZM52.9707 32.4849L52.0004 32.7268L54.724 43.6516L55.6943 43.4097L56.6646 43.1678L53.941 32.243L52.9707 32.4849ZM55.6943 43.4097L54.9872 44.1168L54.9989 44.1285L55.7061 43.4214L56.4132 42.7143L56.4014 42.7026L55.6943 43.4097ZM55.7061 43.4214L54.739 43.6761C56.3013 49.6085 52.9992 55.8247 47.2299 57.8324L47.5586 58.7769L47.8873 59.7213C54.6476 57.3686 58.5002 50.1046 56.6731 43.1667L55.7061 43.4214ZM47.5586 58.7769L47.2596 57.8226C46.7385 57.9859 46.2053 58.1169 45.6714 58.2153L45.8525 59.1987L46.0337 60.1822C46.6449 60.0696 47.2569 59.9193 47.8576 59.7311L47.5586 58.7769ZM45.8525 59.1987L45.6803 58.2137C42.6577 58.7422 39.6187 58.0637 37.1004 56.2937L36.5254 57.1118L35.9504 57.9299C38.9021 60.0046 42.4787 60.8039 46.0248 60.1838L45.8525 59.1987ZM36.5254 57.1118L37.1021 56.2949C34.5938 54.5242 32.9182 51.8835 32.3913 48.8749L31.4062 49.0474L30.4212 49.2199C31.0398 52.7517 33.0106 55.8547 35.9487 57.9288L36.5254 57.1118ZM31.4062 49.0474L32.3945 48.8943C31.4575 42.8451 35.3828 37.0074 41.3369 35.6037L41.1074 34.6304L40.878 33.6571C33.9052 35.3009 29.3216 42.1216 30.418 49.2004L31.4062 49.0474ZM41.1074 34.6304L41.3509 35.6003L52.2327 32.8688L51.9893 31.8989L51.7458 30.929L40.864 33.6605L41.1074 34.6304ZM51.9893 31.8989L52.3053 32.8477C52.2464 32.8673 52.2005 32.8728 52.1803 32.8746C52.17 32.8755 52.1642 32.8756 52.1655 32.8756C52.1678 32.8755 52.1719 32.8755 52.1875 32.8755L52.1875 31.8755L52.1875 30.8755C52.1428 30.8755 51.9176 30.8688 51.6732 30.9502L51.9893 31.8989Z" fill="currentColor" mask="url(#path-1-inside-1_4005_296)"/>
</svg>
