<svg xmlns="http://www.w3.org/2000/svg" fill="currentColor" viewBox="0 0 85 89">
    <path d="M44.007.468c10.364 0 19.678 3.239 26.937 9.375C77.9 15.72 82.686 24.041 84.797 33.902l-16.031 3.295-7.395-12.84a12.184 12.184 0 0 0-10.522-6.09H34.637a12.183 12.183 0 0 0-10.522 6.09L16.01 38.444a12.225 12.225 0 0 0 0 12.183l8.106 14.084A12.183 12.183 0 0 0 34.637 70.8h16.212c4.324 0 8.355-2.333 10.522-6.091l8.004-13.904v.012L85 53.874c-1.795 9.624-6.164 17.901-12.622 23.981-7.429 6.986-17.24 10.677-28.371 10.677C18.92 88.532 0 69.442 0 44.398S18.921.468 44.007.468Zm6.401 30.389c.35 0 .667.238.757.589l2.63 10.552.012.011c1.636 6.216-1.818 12.726-7.87 14.832-.541.17-1.095.306-1.648.407a11.968 11.968 0 0 1-9.009-2.015 12.034 12.034 0 0 1-4.945-7.79c-.982-6.34 3.128-12.454 9.371-13.926l10.51-2.638c.068-.022.136-.022.192-.022Z"/>
</svg>
