<svg fill="currentColor" viewBox="0 0 305 305" xmlns="http://www.w3.org/2000/svg">
 <path d="m50.326 264.56c-15.029 0.93166-30.611 0.90935-46.577-0.37936-0.45188-0.039-0.86471-0.26778-1.1269-0.63598-0.26778-0.3682-0.36262-0.83124-0.25662-1.272 3.8996-16.413 33.886-142.59 36.932-155.41 0.15063-0.63598 0.68619-1.1102 1.3389-1.1827 11.626-1.5342 114.49-17.244 220.01-105.32 0.5021-0.41841 1.2162-0.47978 1.7796-0.14505 0.56904 0.33473 0.86472 0.98745 0.7364 1.629-5.5453 28.748-10.326 53.724-14.449 75.397 16.703-10.778 33.869-23.236 51.107-37.623 0.50209-0.41841 1.2162-0.4742 1.7796-0.14505 0.56904 0.33473 0.85914 0.98745 0.73641 1.6346-25.428 131.82-34.868 184.46-37.869 201.75-0.74198 4.5411-3.4588 8.5244-7.4142 10.873-23.481 13.333-110.82 58.07-214.13 49.713-0.45188-0.0335-0.86471-0.26778-1.1269-0.63598-0.26778-0.36263-0.36262-0.83125-0.25662-1.272 1.1381-4.7978 4.5077-18.979 8.7866-36.971zm183.19-107.48c-15.799 41.841-45.205 66.075-62.393 79.565 11.704-4.53 34.834-15.777 42.181-19.609 7.3529-3.8326 9.0376-6.6611 10.544-9.1492 1.5007-2.4937 2.4324-9.7964 2.4324-9.7964z" />
</svg>
