<svg xmlns="http://www.w3.org/2000/svg" xmlns:xlink="http://www.w3.org/1999/xlink" aria-owns="md:col-span-21" width="416" height="306" viewBox="0 0 415.5555725097656 305.9895935058594"><rect x="1340.0001220703125" y="457.0833435058594" width="415.5555725097656" height="305.9895935058594" fill="rgb(255, 255, 255)" transform="translate(-1340.0001220703125,-457.0833435058594)"/><rect x="1340.0001220703125" y="457.0833435058594" width="415.5555725097656" height="305.9895935058594" fill="rgb(255, 255, 255)" transform="translate(-1340.0001220703125,-457.0833435058594)"/><!-- Generated by dom-to-svg from https://concorde.test/ozu --><style transform="translate(-1340.0001220703125,-457.0833435058594)"/><g id="md:col-span-21" class="md:col-span-2 min-h-48 bg-purple-50 relative overflow-hidden flex items-center justify-center" mask="url(#mask-for-md:col-span-211)" aria-owns="absolute1 absolute2 absolute3 relative1" transform="translate(-1340.0001220703125,-457.0833435058594)"><rect width="415.5555725097656" height="305.9895935058594" x="1340.0001220703125" y="457.0833435058594" fill="lab(97.1627 2.99937 -4.13398)"/><mask id="mask-for-md:col-span-211"><rect width="415.5555725097656" height="305.9895935058594" x="1340.0001220703125" y="457.0833435058594" fill="#ffffff"/><rect transform="translate(1363.9931640625,481.076416015625)" width="367.5694580078125" height="258.00347900390625" rx="24" ry="24" fill="#ffffff"/><rect transform="translate(1387.994873046875,505.0781555175781)" width="319.56597900390625" height="210.00001525878906" rx="20" ry="20" fill="#ffffff"/><rect transform="translate(1411.99658203125,529.0798950195312)" width="271.5625" height="161.9965362548828" rx="16" ry="16" fill="#ffffff"/></mask><rect width="367.5694580078125" height="258.00347900390625" x="1363.9931640625" y="481.076416015625" fill="rgba(0, 0, 0, 0)" stroke="oklab(0.893997 0.0225191 -0.0523341 / 0.7)" stroke-width="1.11111px" rx="24" ry="24" id="absolute1" class="absolute inset-6 rounded-3xl border-[1.5px] border-violet-200/70"/><rect width="319.56597900390625" height="210.00001525878906" x="1387.994873046875" y="505.0781555175781" fill="rgba(0, 0, 0, 0)" stroke="oklab(0.810996 0.0443742 -0.101714 / 0.7)" stroke-width="1.11111px" rx="20" ry="20" id="absolute2" class="absolute inset-12 rounded-2xl border-[1.5px] border-violet-300/70"/><rect width="271.5625" height="161.9965362548828" x="1411.99658203125" y="529.0798950195312" fill="rgba(0, 0, 0, 0)" stroke="oklab(0.684953 0.0941078 -0.169904 / 0.7)" stroke-width="1.11111px" rx="16" ry="16" id="absolute3" class="absolute inset-[4.5rem] rounded-xl border-[1.5px] border-violet-400/70"/><g id="relative1" class="relative size-20 text-violet-400/25" aria-hidden="true" mask="url(#mask-for-relative11)"><mask id="mask-for-relative11"><rect width="80" height="80" x="1507.77783203125" y="570.078125" fill="#ffffff"/></mask><path d="m433.25 257.09c-13.261 0-25.266-3.1688-36.017-9.5174-10.75-6.3431-19.286-14.923-25.607-25.746-6.3152-10.823-9.4784-22.884-9.4784-36.195 0-13.266 3.1632-25.211 9.4784-35.838 6.3208-10.633 14.856-19.107 25.607-25.428 10.75-6.3208 22.756-9.4784 36.017-9.4784 13.361 0 25.411 3.1241 36.162 9.3724 10.75 6.2483 19.286 14.722 25.607 25.423 6.3208 10.706 9.4784 22.683 9.4784 35.95 0 13.356-3.1576 25.434-9.4784 36.234-6.3208 10.795-14.856 19.364-25.607 25.707-10.75 6.3487-22.801 9.5174-36.162 9.5174zm0-24.92c8.6694 0 16.363-1.9972 23.091-5.9972s11.994-9.5286 15.799-16.591c3.8103-7.0628 5.7127-15.068 5.7127-24.022 0-8.8591-1.9414-16.709-5.8187-23.559-3.8773-6.8452-9.1436-12.257-15.799-16.229-6.6555-3.9777-14.315-5.9637-22.985-5.9637-8.5188 0-16.156 1.986-22.912 5.9637-6.7503 3.9721-12.028 9.3836-15.833 16.229-3.8103 6.8508-5.7127 14.722-5.7127 23.632 0 8.954 1.9024 16.948 5.7127 23.989 3.8047 7.0349 9.0823 12.552 15.833 16.552 6.7559 4 14.393 5.9972 22.912 5.9972zm101.13 7.8996 74.086-98.823h-69.06v-23.487h106.51v14.148l-74.086 98.828h72.435v23.481h-109.89zm204.83 17.021c-11.291 0-21.378-2.5495-30.265-7.6485-8.887-5.099-15.805-12.139-20.764-21.116-4.954-8.9819-7.431-19.392-7.431-31.23v-79.336h25.925v78.215c0 7.4644 1.2943 13.908 3.8773 19.319 2.5886 5.4059 6.3487 9.5844 11.28 12.53 4.9317 2.9456 10.745 4.4184 17.45 4.4184 10.198 0 18.159-3.219 23.883-9.6625 5.7183-6.4379 8.5802-15.308 8.5802-26.605v-78.215h25.93v79.364c0 11.872-2.4826 22.321-7.4365 31.347-4.954 9.0265-11.821 16.05-20.608 21.077-8.781 5.0321-18.918 7.5425-30.421 7.5425zm-688.89 7.4756c-15.029 0.93166-30.611 0.90935-46.577-0.37936-0.45188-0.039-0.86471-0.26778-1.1269-0.63598-0.26778-0.3682-0.36262-0.83124-0.25662-1.272 3.8996-16.413 33.886-142.59 36.932-155.41 0.15063-0.63598 0.68619-1.1102 1.3389-1.1827 11.626-1.5342 114.49-17.244 220.01-105.32 0.5021-0.41841 1.2162-0.47978 1.7796-0.14505 0.56904 0.33473 0.86472 0.98745 0.7364 1.629-5.5453 28.748-10.326 53.724-14.449 75.397 16.703-10.778 33.869-23.236 51.107-37.623 0.50209-0.41841 1.2162-0.4742 1.7796-0.14505 0.56904 0.33473 0.85914 0.98745 0.73641 1.6346-25.428 131.82-34.868 184.46-37.869 201.75-0.74198 4.5411-3.4588 8.5244-7.4142 10.873-23.481 13.333-110.82 58.07-214.13 49.713-0.45188-0.0335-0.86471-0.26778-1.1269-0.63598-0.26778-0.36263-0.36262-0.83125-0.25662-1.272 1.1381-4.7978 4.5077-18.979 8.7866-36.971zm183.19-107.48c-15.799 41.841-45.205 66.075-62.393 79.565 11.704-4.53 34.834-15.777 42.181-19.609 7.3529-3.8326 9.0376-6.6611 10.544-9.1492 1.5007-2.4937 2.4324-9.7964 2.4324-9.7964z" color="oklab(0.684953 0.0941078 -0.169904 / 0.25)" fill="oklab(0.684953 0.0941078 -0.169904 / 0.25)" stroke="none" transform="matrix(0.1 0 0 0.1 1507.78 594.828)" class="svg-content relative size-20 text-violet-400/25" data-view-box="0 0 800 305" data-width="" data-height=""/></g></g></svg>
