<svg xmlns="http://www.w3.org/2000/svg" width="106" height="102" fill="none" viewBox="0 0 106 102">
    <path fill="#187FF7" d="M0 0h106v102H0z"/>
    <path fill="#fff" d="M53.279 44.84c-3.314 0-6.116-1.24-8.509-3.713-2.396-2.424-3.567-5.361-3.567-8.71 0-3.347 1.171-6.388 3.567-8.812C47.167 21.181 50.072 20 53.483 20c3.413 0 6.317 1.185 8.664 3.659 2.396 2.423 3.617 5.36 3.617 8.812 0 3.452-1.224 6.34-3.67 8.763-2.396 2.37-5.35 3.609-8.815 3.609v-.004ZM30.076 82c-3.314 0-6.116-1.239-8.508-3.712C19.172 75.864 18 72.927 18 69.578c0-3.347 1.172-6.389 3.568-8.812 2.396-2.424 5.3-3.609 8.713-3.609 3.412 0 6.316 1.185 8.663 3.659 2.396 2.423 3.617 5.361 3.617 8.813 0 3.451-1.224 6.339-3.67 8.762-2.396 2.37-5.35 3.61-8.815 3.61Zm45.442 0c-3.314 0-6.115-1.239-8.508-3.712-2.396-2.424-3.568-5.361-3.568-8.71 0-3.347 1.172-6.389 3.568-8.812 2.396-2.424 5.3-3.609 8.713-3.609 3.412 0 6.317 1.185 8.663 3.659 2.397 2.423 3.618 5.361 3.618 8.813 0 3.451-1.225 6.339-3.67 8.762-2.397 2.37-5.35 3.61-8.816 3.61Z"/>
</svg>
