<svg xmlns="http://www.w3.org/2000/svg" width="106" height="102" fill="none" viewBox="0 0 106 102">
  <path fill="#711ED7" d="M0 0h106v102H0z"/>
  <path fill="#FFF" d="M32.6 74.243a63.248 63.248 0 0 1-9.314-.078.31.31 0 0 1-.226-.133.331.331 0 0 1-.052-.263c.78-3.395 6.777-29.504 7.385-32.157a.313.313 0 0 1 .268-.244c2.325-.317 22.894-3.568 43.995-21.793.1-.087.244-.1.356-.031a.326.326 0 0 1 .148.337 5647.153 5647.153 0 0 0-2.89 15.602 104.22 104.22 0 0 0 10.22-7.784.306.306 0 0 1 .357-.032.326.326 0 0 1 .148.338c-5.086 27.276-6.973 38.168-7.573 41.746a3.226 3.226 0 0 1-1.482 2.25c-4.695 2.757-22.16 12.015-42.82 10.285a.305.305 0 0 1-.225-.132.33.33 0 0 1-.052-.263l1.757-7.65v.002Zm36.633-22.24c-3.16 8.658-9.04 13.672-12.476 16.465 2.34-.937 6.965-3.265 8.434-4.058 1.47-.792 1.808-1.378 2.108-1.893.3-.515.486-2.028.486-2.028l1.448-8.485Z"/>
</svg>
