<svg xmlns="http://www.w3.org/2000/svg" width="496" height="279" fill="none" viewBox="0 0 496 279">
    <path fill="#fff" d="M0 0h496v279H0z"/>
    <mask id="a" fill="#fff">
        <path d="M250.411 69.05c16.582 0 31.485 5.18 43.1 14.999 11.127 9.401 18.786 22.716 22.164 38.495l-25.651 5.271-11.831-20.542c-3.468-6.014-9.916-9.746-16.835-9.746h-25.939c-6.918 0-13.367 3.732-16.835 9.746l-12.97 22.535a19.562 19.562 0 0 0 0 19.493l12.97 22.535c3.468 6.014 9.917 9.746 16.835 9.746h25.939c6.919 0 13.367-3.732 16.835-9.746L291 149.591v.017l25 4.892c-2.872 15.398-9.863 28.64-20.195 38.368-11.886 11.177-27.583 17.083-45.394 17.083-40.137 0-70.411-30.543-70.411-70.614 0-40.071 30.274-70.287 70.411-70.287Zm10.242 48.621c.56 0 1.067.38 1.211.942l4.208 16.884.019.017c2.619 9.946-2.909 20.362-12.591 23.732-.867.272-1.752.489-2.637.652-5.076.888-10.188-.254-14.415-3.224-4.209-2.971-7.026-7.41-7.911-12.464-1.571-10.145 5.003-19.927 14.992-22.282l16.818-4.22a.947.947 0 0 1 .306-.037Z"/>
    </mask>
    <path fill="#BDBDBD" d="M250.411 69.05v-1 1Zm43.1 14.999-.646.763.646-.763Zm22.164 38.495.201.979.988-.203-.211-.986-.978.21Zm-25.651 5.271-.866.499.36.626.708-.145-.202-.98Zm-11.831-20.542.867-.499-.867.499Zm-16.835-9.746v-1 1Zm-42.774 9.746-.866-.499h-.001l.867.499Zm-12.97 22.535.867.5v-.001l-.867-.499Zm0 19.493.867-.499v-.001l-.867.5Zm12.97 22.535-.867.499h.001l.866-.499Zm42.774 9.746v1-1Zm16.835-9.746.867.499-.867-.499ZM291 149.591h1v-3.742l-1.867 3.243.867.499Zm0 .017h-1v.823l.808.159.192-.982Zm25 4.892.983.183.182-.974-.973-.191-.192.982Zm-20.195 38.368.685.728-.685-.728Zm-45.394 17.083v1-1ZM180 139.337h-1 1Zm80.653-21.666v-1 1Zm1.211.942.971-.242-.002-.007-.969.249Zm4.208 16.884-.97.242.071.283.212.201.687-.726Zm.019.017.967-.254-.073-.276-.206-.196-.688.726ZM253.5 159.246l.299.954.015-.005.015-.005-.329-.944Zm-2.637.652.173.985.008-.001-.181-.984Zm-14.415-3.224-.576.817.001.001.575-.818Zm-7.911-12.464-.988.153.001.01.002.009.985-.172Zm14.992-22.282.23.974.007-.002.007-.002-.244-.97Zm16.818-4.22.243.97.037-.01.037-.012-.317-.948Zm-9.936-48.658v1c16.369 0 31.037 5.111 42.454 14.762l.646-.763.645-.764c-11.812-9.985-26.95-15.235-43.745-15.235v1Zm43.1 14.999-.646.763c10.94 9.243 18.495 22.354 21.832 37.941l.978-.209.978-.21c-3.419-15.969-11.182-29.489-22.497-39.05l-.645.765Zm22.164 38.495-.202-.98-25.65 5.272.201.979.202.98 25.65-5.272-.201-.979Zm-25.651 5.271.867-.499-11.831-20.542-.867.499-.866.499 11.831 20.542.866-.499Zm-11.831-20.542.867-.499c-3.646-6.323-10.425-10.247-17.702-10.247v2c6.56 0 12.679 3.54 15.969 9.246l.866-.5Zm-16.835-9.746v-1h-25.939v2h25.939v-1Zm-25.939 0v-1c-7.277 0-14.055 3.924-17.701 10.247l.866.499.866.5c3.291-5.706 9.409-9.246 15.969-9.246v-1Zm-16.835 9.746-.867-.499-12.969 22.536.866.498.867.499 12.97-22.535-.867-.499Zm-12.97 22.535-.866-.499a20.556 20.556 0 0 0 0 20.491l.866-.499.867-.5a18.559 18.559 0 0 1 0-18.493l-.867-.5Zm0 19.493-.866.498 12.969 22.536.867-.499.867-.499-12.97-22.535-.867.499Zm12.97 22.535-.866.499c3.646 6.323 10.424 10.247 17.701 10.247v-2c-6.56 0-12.678-3.54-15.969-9.246l-.866.5Zm16.835 9.746v1h25.939v-2h-25.939v1Zm25.939 0v1c7.277 0 14.056-3.924 17.702-10.247l-.867-.499-.866-.5c-3.29 5.706-9.409 9.246-15.969 9.246v1Zm16.835-9.746.867.499 12.807-22.245-.867-.499-.867-.499-12.806 22.245.866.499ZM291 149.591h-1v.017h2v-.017h-1Zm0 .017-.192.982 25 4.891.192-.981.192-.982-25-4.891-.192.981Zm25 4.892-.983-.184c-2.837 15.211-9.735 28.256-19.898 37.824l.686.728.685.728c10.502-9.887 17.586-23.328 20.493-38.913L316 154.5Zm-20.195 38.368-.685-.729c-11.683 10.986-27.127 16.812-44.709 16.812v2c18.04 0 33.99-5.986 46.079-17.355l-.685-.728Zm-45.394 17.083v-1c-39.58 0-69.411-30.091-69.411-69.614h-2c0 40.618 30.718 71.614 71.411 71.614v-1ZM180 139.337h1c0-39.517 29.825-69.287 69.411-69.287v-2C209.724 68.05 179 98.712 179 139.337h1Zm80.653-21.666v1c.109 0 .213.076.243.191l.968-.249.969-.249a2.254 2.254 0 0 0-2.18-1.693v1Zm1.211.942-.97.242 4.208 16.884.97-.242.971-.242-4.208-16.884-.971.242Zm4.208 16.884-.687.726.018.017.688-.726.688-.726-.019-.017-.688.726Zm.019.017-.967.255c2.487 9.443-2.766 19.335-11.953 22.532l.329.945.329.944c10.177-3.542 15.98-14.482 13.229-24.93l-.967.254ZM253.5 159.246l-.299-.954c-.827.259-1.673.467-2.519.623l.181.983.181.984a23.571 23.571 0 0 0 2.755-.682l-.299-.954Zm-2.637.652-.172-.985c-4.814.842-9.658-.239-13.668-3.058l-.575.819-.575.818c4.444 3.123 9.825 4.325 15.163 3.391l-.173-.985Zm-14.415-3.224.577-.817c-3.994-2.82-6.664-7.027-7.503-11.82l-.985.173-.985.172c.931 5.316 3.896 9.986 8.32 13.109l.576-.817Zm-7.911-12.464.988-.153c-1.491-9.63 4.754-18.92 14.234-21.155l-.23-.974-.229-.973c-10.499 2.475-17.402 12.749-15.751 23.408l.988-.153Zm14.992-22.282.244.97 16.817-4.22-.243-.97-.244-.97-16.817 4.221.243.969Zm16.818-4.22.317.948a.269.269 0 0 1-.066.015h.055v-2c-.083 0-.343-.005-.623.088l.317.949Z" mask="url(#a)"/>
</svg>
